<svg xmlns="http://www.w3.org/2000/svg" width="306.222" height="120" viewBox="0 0 306.222 120">
  <path id="Union_13" data-name="Union 13" d="M76.175,120a17.775,17.775,0,1,1,0-35.551h50.551a9.192,9.192,0,0,1-.228-7.609H17.776a17.775,17.775,0,1,1,0-35.551H161.284a9.624,9.624,0,0,1-1.933-5.738H117.229a17.775,17.775,0,1,1,0-35.551H232.294a17.775,17.775,0,1,1,0,35.551H192.918a9.624,9.624,0,0,1-1.933,5.738h1.378a17.775,17.775,0,1,1,0,35.551H158.636a9.192,9.192,0,0,1-.228,7.609h130.04a17.775,17.775,0,0,1,0,35.551Z" fill="#f8f9fb"/>
</svg>
