<svg xmlns="http://www.w3.org/2000/svg" width="290.222" height="114" viewBox="0 0 290.222 114">
  <path id="Union_6" data-name="Union 6" d="M72.235,114a16.887,16.887,0,0,1,0-33.773h78.79a9.143,9.143,0,0,1,1.836-5.451H16.887a16.887,16.887,0,0,1,0-33.773h103a8.735,8.735,0,0,1,.216-7.229H72.235A16.887,16.887,0,0,1,72.235,0h201.1a16.887,16.887,0,0,1,0,33.773H150.129A8.733,8.733,0,0,1,150.345,41h31.926a16.887,16.887,0,1,1,0,33.773H181a9.142,9.142,0,0,1,1.836,5.451h37.278a16.887,16.887,0,1,1,0,33.773Z" transform="translate(290.222 114) rotate(180)" fill="#f8f9fb"/>
</svg>
