<svg xmlns="http://www.w3.org/2000/svg" width="388.918" height="143.999" viewBox="0 0 388.918 143.999">
  <path id="Union_12" data-name="Union 12" d="M-109.62,130A18.076,18.076,0,0,1-127.7,111.922,18.076,18.076,0,0,1-109.62,93.846H22.043a13.084,13.084,0,0,1-.2-2.307V81.2a12.942,12.942,0,0,1,2.8-8.055h-49.47A15.254,15.254,0,0,1-40.089,57.887,15.254,15.254,0,0,1-24.835,42.633H90.333a12.947,12.947,0,0,1-1.473-6.017V26.479a12.976,12.976,0,0,1,.737-4.325H62.554a18.077,18.077,0,0,1,0-36.154H179.4a18.077,18.077,0,0,1,0,36.154h-46.2a12.976,12.976,0,0,1,.737,4.325V36.616a12.947,12.947,0,0,1-1.473,6.017h83.579a15.254,15.254,0,0,1,0,30.508H64.116a12.942,12.942,0,0,1,2.8,8.055V91.539a13.084,13.084,0,0,1-.2,2.307H243.146a18.076,18.076,0,1,1,0,36.153Z" transform="translate(127.696 14)" fill="#f8f9fb"/>
</svg>
