<svg xmlns="http://www.w3.org/2000/svg" width="160.961" height="100" viewBox="0 0 160.961 100">
  <path id="Union_2" data-name="Union 2" d="M65.524,100a14.438,14.438,0,0,1-.492-28.867,5.371,5.371,0,0,1-.006-6.7H14.438a14.437,14.437,0,1,1,0-28.875H42.2a5.676,5.676,0,0,1,.3-6.687H41.7A14.438,14.438,0,0,1,41.7,0h81a14.438,14.438,0,0,1,0,28.876H67.276a5.676,5.676,0,0,1,.3,6.687H95.438a14.437,14.437,0,1,1,0,28.875H89.956a5.369,5.369,0,0,1,0,6.687h56.567a14.438,14.438,0,1,1,0,28.876Z" fill="#f8f9fb"/>
</svg>
