<svg xmlns="http://www.w3.org/2000/svg" width="91" height="91" viewBox="0 0 91 91">
  <g id="Group_72" data-name="Group 72" transform="translate(-1414 -4774)">
    <circle id="Ellipse_81" data-name="Ellipse 81" cx="45.5" cy="45.5" r="45.5" transform="translate(1414 4774)" fill="#fff"/>
    <path id="shopping-cart-solid_1_" data-name="shopping-cart-solid (1)" d="M42.51,24.254,46.315,7.512a1.932,1.932,0,0,0-1.884-2.36H12.815l-.738-3.607A1.932,1.932,0,0,0,10.185,0H1.932A1.932,1.932,0,0,0,0,1.932V3.22A1.932,1.932,0,0,0,1.932,5.152H7.557L13.211,32.8a4.508,4.508,0,1,0,5.4.689H35.483a4.506,4.506,0,1,0,5.119-.838l.444-1.954a1.932,1.932,0,0,0-1.884-2.36H17.557l-.527-2.576h23.6A1.932,1.932,0,0,0,42.51,24.254Z" transform="translate(1436 4799)" fill="#ebcb8b"/>
  </g>
</svg>
