<svg xmlns="http://www.w3.org/2000/svg" width="34.896" height="34.512" viewBox="0 0 34.896 34.512">
  <path id="Path_1253" data-name="Path 1253" d="M231.2,321.406a1.119,1.119,0,0,1-.746-.517l-5.716-9.205-10.83-.445a1.2,1.2,0,0,1-1.059-.71,1.648,1.648,0,0,1,.144-1.312l6.955-8.255L217.04,290.53a1.3,1.3,0,0,1,.385-1.2,1.107,1.107,0,0,1,1.2-.229l10.084,4.055,9.025-6.016a.938.938,0,0,1,1.2,0,1.2,1.2,0,0,1,.626,1.107L238.759,299l8.423,6.738a1.36,1.36,0,0,1,.481,1.2,1.2,1.2,0,0,1-.915.9l-10.517,2.647-3.814,10.12a1.2,1.2,0,0,1-1.011.77C231.431,321.455,231.323,321.431,231.2,321.406Zm-5.511-11.949a1.059,1.059,0,0,1,.746.517l4.813,7.689,3.213-8.423a1,1,0,0,1,.878-.662l8.82-2.166-7.051-5.619a.927.927,0,0,1-.385-1.047l.686-9.085-7.593,4.97a1.684,1.684,0,0,1-1.119.132l-8.423-3.345,2.407,8.76a1.2,1.2,0,0,1-.217,1.047l-5.812,6.919,9.013.421C225.463,309.41,225.583,309.434,225.692,309.458Z" transform="translate(-212.777 -286.918)"/>
</svg>
