<svg cache-id="55958e7aacb14bebbe913075eb1798f2" id="eJsCrl7MdD21" xmlns="http://www.w3.org/2000/svg" xmlns:xlink="http://www.w3.org/1999/xlink" viewBox="0 0 684 558.703000" shape-rendering="geometricPrecision" text-rendering="geometricPrecision" data-svgatorid="pi_f4a4268fd0c544ca8fcf1b29dfb92b28"><g id="eJsCrl7MdD22" transform="matrix(1 0 0 1 -162 -104.80000000000000)"><path id="eJsCrl7MdD23" d="M513.415000,341.100000C513.415000,341.100000,528.403000,247.151000,561.181000,191.100000L425.071000,191.100000C425.071000,191.100000,389.246000,248.371000,376.330000,345.488000C390.100000,344.757000,513.415000,341.100000,513.415000,341.100000Z" transform="matrix(1 0 0 1 46.83800000000000 18.85900000000000)" fill="rgb(255,255,255)" stroke="none" stroke-width="1"/><path id="eJsCrl7MdD24" d="M372.430000,461.956000L588.354000,461.956000L426.900000,374.100000L372.430000,391.647000Z" transform="matrix(1 0 0 1 45.98500000000000 58.85000000000000)" fill="rgb(255,255,255)" stroke="none" stroke-width="1"/><path id="eJsCrl7MdD25" d="M177.430000,186.374000L380.924000,186.374000C380.924000,186.374000,380.437000,135.439000,350.217000,135.439000C330.717000,135.439000,325.603000,150.427000,325.603000,150.427000C325.603000,150.427000,324.750000,109.850000,286.488000,109.850000C266.988000,109.850000,248.957000,127.275000,243.718000,153.350000C211.305000,127.762000,179.136000,151.889000,177.430000,186.374000Z" transform="matrix(1 0 0 1 3.37200000000000 1.10400000000000)" fill="rgb(229,233,240)" stroke="none" stroke-width="1"/><path id="eJsCrl7MdD26" d="M747.241000,382.978000L512.430000,382.978000C512.430000,345.691000,543.259000,309.744000,591.269000,341.061000C618.930000,275.991000,729.085000,282.328000,745.291000,360.923000Z" transform="matrix(1 0 0 1 76.57899999999999 41.92900000000000)" fill="rgb(236,239,244)" stroke="none" stroke-width="1"/><path id="eJsCrl7MdD27" d="M373.870000,183.555000L416.031000,179.778000C416.031000,179.778000,418.346000,193.547000,426.510000,191.598000C426.997000,196.472000,428.703000,211.216000,428.703000,211.216000C428.703000,211.216000,446.615000,211.216000,444.056000,191.598000C442.594000,180.509000,435.039000,168.690000,427.118000,169.786000C424.072000,161.256000,415.055000,151.874000,399.945000,154.798000C384.835000,157.722000,376.306000,167.836000,366.070000,162.475000C362.538000,166.618000,359.248000,183.068000,373.870000,183.555000Z" transform="matrix(1 0 0 1 43.93600000000000 10.80700000000000)" fill="rgb(136,192,208)" stroke="none" stroke-width="1"/><path id="eJsCrl7MdD28" d="M426.686000,187.020000C418.644000,188.726000,416.207000,175.200000,416.207000,175.200000L371.731000,179.100000C368.319000,180.075000,362.348000,182.634000,361.739000,185.436000C360.764000,189.823000,363.079000,192.869000,370.512000,194.336000C377.945000,195.803000,380.504000,207.131000,380.504000,207.131000C380.504000,207.131000,385.622000,228.821000,408.043000,217.123000L408.043000,217.123000L410.236000,226.262000C410.236000,226.262000,419.375000,231.867000,429.736000,222.606000C429.005000,215.417000,427.908000,199.454000,427.908000,199.454000C427.908000,199.454000,437.408000,201.891000,436.925000,193.605000C436.442000,185.319000,431.352000,185.314000,426.686000,187.020000Z" transform="matrix(1 0 0 1 43.60300000000000 15.38500000000000)" fill="rgb(255,255,255)" stroke="none" stroke-width="1"/><path id="eJsCrl7MdD29" d="M319,299.123000L375.300000,292.299000C378.412682,275.571253,382.688052,259.080923,388.095000,242.948000C396.625000,218.090000,419.046000,215.775000,419.046000,215.775000L438.908000,211.145000C438.908000,211.145000,464.619000,205.174000,479.241000,225.645000C482.653000,230.519000,493.376000,242.826000,502.393000,263.663000C505.973702,271.762358,505.335605,281.105660,500.687000,288.643000L501.540000,292.543000C501.540000,292.543000,512.629000,338.843000,512.994000,343.965000L319,343.965000Z" transform="matrix(1 0 0 1 34.30900000000000 23.06300000000000)" fill="rgb(255,255,255)" stroke="none" stroke-width="1"/><path id="eJsCrl7MdD210" d="M230.448000,351.444000L211.400000,354.368000C211.400000,354.368000,187.029000,306.358000,170.336000,298.559000C164.609000,296.244000,163.269000,306.601000,165.706000,312.450000C168.143000,318.299000,190.930000,387.268000,191.417000,398.113000L236.990000,388.243000Z" transform="matrix(1 0 0 1 0.55700000000000 42.27000000000000)" fill="rgb(255,255,255)" stroke="none" stroke-width="1"/><path id="eJsCrl7MdD211" d="M230.448000,351.444000L211.400000,354.368000C211.400000,354.368000,187.029000,306.358000,170.336000,298.559000C164.609000,296.244000,163.269000,306.601000,165.706000,312.450000C168.143000,318.299000,190.930000,387.268000,191.417000,398.113000L236.990000,388.243000Z" transform="matrix(1 0 0 1 0.55700000000000 42.27000000000000)" fill="rgb(255,255,255)" stroke="none" stroke-width="1"/><path id="eJsCrl7MdD212" d="M191.663000,399.432000C191.404087,399.406663,191.154221,399.323261,190.932000,399.188000C190.681315,398.964119,190.510361,398.664687,190.445000,398.335000C189.958000,387.612000,167.045000,318.399000,164.856000,313.160000C163.028000,308.651000,163.028000,301.460000,165.956000,298.538000C167.293005,297.167158,169.364669,296.821881,171.074000,297.685000C186.915000,305.240000,208.974000,346.792000,212.382000,353.372000L230.538000,350.691000C231.170866,350.615735,231.754890,351.040677,231.878000,351.666000L238.458000,388.222000C238.565486,388.889351,238.140407,389.526752,237.483000,389.684000C237.117000,389.806000,198.125000,398.336000,191.910000,399.554000C191.846688,399.484379,191.759684,399.440877,191.666000,399.432000ZM169,299.512000C168.491818,299.535877,168.012178,299.753863,167.660000,300.121000C165.710000,302.071000,165.345000,308.163000,167.051000,312.063000C169.244000,317.181000,190.690000,381.885000,192.640000,396.751000C200.804000,395.045000,229.561000,388.709000,235.654000,387.368000L229.561000,353.127000L211.770000,355.808000C211.277501,355.872550,210.795144,355.631569,210.551000,355.199000C210.307000,354.712000,186.180000,307.554000,170.096000,299.878000C169.765363,299.641584,169.369461,299.513694,168.963000,299.512000Z" transform="matrix(1 0 0 1 0.34900000000000 42.04800000000000)" fill="rgb(0,0,0)" stroke="none" stroke-width="1"/><path id="eJsCrl7MdD213" d="M421.320000,318.565000C421.320000,318.565000,509.420000,316.128000,532.937000,314.300000C534.156000,324.292000,504.180000,358.045000,504.180000,358.045000L362.952000,365.965000L223.187000,407.883000L208.930000,333.065000L342.359000,318.565000Z" transform="matrix(1 0 0 1 10.25600000000000 45.78200000000000)" fill="rgb(136,192,208)" stroke="none" stroke-width="1"/><path id="eJsCrl7MdD214" d="M525.859000,447.637000L393.648000,447.637000C393.204349,447.649711,392.788848,447.420286,392.563272,447.038051C392.337695,446.655816,392.337695,446.181184,392.563272,445.798949C392.788848,445.416714,393.204349,445.187289,393.648000,445.200000L525.859000,445.200000C526.302651,445.187289,526.718152,445.416714,526.943728,445.798949C527.169305,446.181184,527.169305,446.655816,526.943728,447.038051C526.718152,447.420286,526.302651,447.649711,525.859000,447.637000Z" transform="matrix(1 0 0 1 50.35600000000000 74.38800000000001)" fill="rgb(0,0,0)" stroke="none" stroke-width="1"/><path id="eJsCrl7MdD215" d="M451.179000,443.004604L178.630000,445.216000C178.630000,445.216000,178.386000,385.752000,241.994000,372.348000C271.482000,367.230000,297.681000,373.448000,307.063000,378.075000C314.252000,368.936000,343.864167,324.915876,392.605167,357.206876" transform="matrix(1 0 0 1 3.63400000000000 52.68100000000000)" fill="rgb(255,255,255)" stroke="none" stroke-width="1"/><polygon id="eJsCrl7MdD216" points="0,-43.507113 41.377724,-13.444437 25.572840,35.197994 -25.572840,35.197994 -41.377724,-13.444437 0,-43.507113" transform="matrix(1 0 0 1 473.07572374000068 407.85411343500016)" fill="rgb(136,192,208)" stroke="none" stroke-width="0"/><path id="eJsCrl7MdD217" d="M365.735000,445.679604L178.849000,445.679604C178.519425,445.701691,178.196368,445.580371,177.962800,445.346804C177.729233,445.113236,177.607913,444.790179,177.630000,444.460604C178.031369,433.385074,180.728304,422.513567,185.550000,412.534604C192.861000,397.181604,208.580000,377.440604,241.968000,370.373604C270.482000,365.373604,296.314000,370.860604,306.916000,375.735604C307.160000,375.369604,307.525000,375.004604,307.769000,374.635604C317.030000,362.328604,345.300000,324.797604,392.213000,355.748604C392.770422,356.124453,392.924409,356.877349,392.559320,357.441876C392.194230,358.006403,391.444424,358.174801,390.873000,357.820604C345.909000,328.088604,318.736000,364.278604,309.719000,376.098604C309.110000,376.829604,308.619000,377.560604,308.257000,378.048604C307.912228,378.492981,307.308181,378.643786,306.795000,378.413604C297.169000,373.539604,271.214000,367.690604,242.578000,372.808604C185.673000,384.871604,180.678000,434.831604,180.311000,443.239604L366.011000,443.239604C366.340408,443.217819,419.519661,443.006073,419.753000,443.239604C419.986339,443.473135,419.775055,445.017414,419.753000,445.346804C419.758000,446.080804,366.381000,445.679604,365.735000,445.679604Z" transform="matrix(1 0 0 1 3.41500000000000 52.44600000000000)" fill="rgb(0,0,0)" stroke="none" stroke-width="1"/><g id="eJsCrl7MdD218" transform="matrix(0.96177926837143 -0.27382592815678 0.27382592815678 0.96177926837143 -101.82630412630920 123.94025307755351)"><path id="eJsCrl7MdD219" d="M266.042000,449.707260L271.942871,464.965250Q249.017910,503.932336,241.485518,524.929755C237.404327,536.306548,236.726850,547.349369,243.129000,548.628150Q247.734289,549.548021,311.339000,471.209000L302.600113,440.013564" transform="matrix(0.96241187544514 0.27159414942552 -0.27159414942552 0.96241187544514 258.32967354642187 54.17497510084308)" fill="rgb(255,255,255)" stroke="none" stroke-width="1.368000"/><path id="eJsCrl7MdD220" d="M309.515000,580.826000C308.546763,580.881678,307.592056,580.577924,306.834000,579.973000C305.128000,578.633000,304.762000,575.952000,305.494000,571.073000C309.515000,550.114000,352.773000,512.462000,358.135000,507.709000L355.820000,486.872000C355.843225,486.535158,355.925830,486.205076,356.064000,485.897000C356.302443,485.664969,356.595974,485.497384,356.917000,485.410000L395.179000,483.095000C395.503169,483.086419,395.814853,483.220155,396.032000,483.461000C396.253552,483.691443,396.383651,483.994651,396.398000,484.314000L396.398000,523.800000C396.363652,524.174564,396.189836,524.522554,395.911000,524.775000C392.987000,526.847000,322.921000,576.319000,315.854000,578.999000C313.897478,580.058010,311.735029,580.681262,309.515000,580.826000ZM358.378000,487.974000L360.571000,508.202000C360.581141,508.600148,360.451661,508.989297,360.205000,509.302000C359.718000,509.668000,311.951000,550.610000,307.930000,571.569000C307.199000,576.078000,307.808000,577.662000,308.417000,578.149000C309.517000,579.002000,312.560000,578.027000,315.117000,577.049000C320.479000,574.977000,368.854000,541.349000,394.200000,523.555000L394.200000,485.900000Z" transform="matrix(1 0 0 1 35.30000000000015 67.96471000000001)" fill="rgb(0,0,0)" stroke="rgb(0,0,0)" stroke-width="1"/><path id="eJsCrl7MdD221" d="M398.589030,407.036384L407.900000,534L322.600000,531.685000L334.420000,405.200000C336.760197,388.991527,345.830802,374.522860,359.400000,365.354000L420.286515,353.982493" transform="matrix(0.99552060001882 0.09454488319398 -0.09454488319398 0.99552060001882 94.29961690086594 -1.29565879646231)" fill="rgb(136,192,208)" stroke="none" stroke-width="1"/></g><path id="eJsCrl7MdD222" d="M409.237000,228.089000C406.559345,228.083365,403.919374,227.457685,401.524000,226.261000C401.258841,226.076659,401.048424,225.824090,400.915000,225.530000L398.722000,216.391000C398.509135,215.948104,398.583011,215.420705,398.909373,215.053341C399.235735,214.685978,399.750761,214.550492,400.215647,214.709704C400.680534,214.868916,401.004369,215.291691,401.037000,215.782000L403.108000,224.434000C404.936000,225.287000,412.125000,228.090000,420.289000,221.144000C419.558000,213.711000,418.583000,198.723000,418.583000,198.601000C418.563426,198.213149,418.748153,197.843315,419.070000,197.626000C419.374824,197.369922,419.785488,197.278829,420.170000,197.382000C421.270000,197.626000,424.679000,198.113000,426.385000,196.651000C427.360000,195.920000,427.725000,194.579000,427.604000,192.751000C427.482000,189.827000,426.629000,187.877000,425.167000,186.902000C423.339000,185.683000,420.780000,186.293000,418.831000,187.024000C418.465960,187.161886,418.056955,187.116524,417.731000,186.902000C417.409153,186.684685,417.224426,186.314851,417.244000,185.927000C417.122000,184.099000,416.878000,181.540000,416.878000,181.540000C416.822235,181.098319,417.010480,180.661153,417.369681,180.398158C417.728882,180.135164,418.202487,180.087745,418.606699,180.274304C419.010910,180.460864,419.282091,180.852031,419.315000,181.296000C419.315000,181.418000,419.559000,182.758000,419.681000,184.342000C422.481000,183.611000,424.799000,183.733000,426.627000,184.951000C428.699000,186.291000,429.917000,188.851000,430.161000,192.628000C430.448342,194.856964,429.629718,197.085877,427.968000,198.599000C426.025523,199.975175,423.607192,200.502876,421.268000,200.061000C421.512000,204.204000,422.368000,215.780000,422.974000,221.629000C422.983066,221.989167,422.851832,222.338766,422.608000,222.604000C418.984237,226.025384,414.219533,227.979943,409.237000,228.089000Z" transform="matrix(1 0 0 1 51.70500000000000 16.47600000000000)" fill="rgb(0,0,0)" stroke="none" stroke-width="1"/><path id="eJsCrl7MdD223" d="M396.330000,221.393000C394.420967,221.376171,392.527577,221.046813,390.725000,220.418000C382.073000,217.250000,379.758000,207.380000,379.636000,207.018000C379.636000,206.896000,377.199000,196.539000,370.619000,195.198000C365.989000,194.345000,363.064000,192.761000,361.719000,190.568000C360.684118,188.848490,360.377141,186.787461,360.866000,184.841000C361.966000,179.723000,372.929000,177.652000,374.148000,177.408000C374.812181,177.292887,375.447072,177.728148,375.579167,178.389162C375.711261,179.050175,375.292411,179.696011,374.635000,179.845000C370.248000,180.698000,363.912000,182.891000,363.303000,185.450000C362.874705,186.757489,363.053333,188.187982,363.790000,189.350000C364.890000,190.934000,367.324000,192.150000,371.223000,192.884000C379.387000,194.468000,382.068000,206.044000,382.190000,206.532000C382.190000,206.654000,384.383000,215.549000,391.816000,218.232000C397.787000,220.425000,405.585000,218.110000,414.968000,211.286000C415.315484,211.011295,415.784636,210.946704,416.193426,211.117287C416.602215,211.287870,416.886300,211.666779,416.935454,212.106997C416.984609,212.547214,416.791096,212.979452,416.430000,213.236000C408.759000,218.591000,402.057000,221.393000,396.330000,221.393000Z" transform="matrix(1 0 0 1 43.41000000000000 15.86100000000000)" fill="rgb(0,0,0)" stroke="none" stroke-width="1"/><circle id="eJsCrl7MdD224" r="1.828000" transform="matrix(1 0 0 1 429.86999999999995 203.86699999999999)" fill="rgb(0,0,0)" stroke="none" stroke-width="1"/><circle id="eJsCrl7MdD225" r="1.828000" transform="matrix(1 0 0 1 437.54599999999999 204.23200000000000)" fill="rgb(0,0,0)" stroke="none" stroke-width="1"/><path id="eJsCrl7MdD226" d="M415.750000,169.370000C415.539495,169.388678,415.328066,169.346323,415.141000,169.248000C414.576453,168.879975,414.368812,168.152593,414.654000,167.542000C416.238000,164.742000,420.625000,160.109000,425.865000,162.302000C426.486379,162.549654,426.797301,163.247296,426.566029,163.874957C426.334757,164.502617,425.645510,164.831730,425.012000,164.617000C420.260000,162.789000,416.848000,168.760000,416.726000,168.882000C416.600000,169.248000,416.237000,169.370000,415.750000,169.370000Z" transform="matrix(1 0 0 1 55.18400000000000 12.44100000000000)" fill="rgb(0,0,0)" stroke="none" stroke-width="1"/><path id="eJsCrl7MdD227" d="M319.220000,299.566000C318.602963,299.537863,318.092150,299.076915,318.001000,298.466000C317.967005,298.142002,318.064220,297.817889,318.270924,297.566087C318.477627,297.314285,318.776588,297.155783,319.101000,297.126000L374.422000,290.426000C377.546327,273.952699,381.780306,257.709361,387.095000,241.807000C395.747000,216.462000,418.895000,213.907000,419.142000,213.907000C419.470026,213.850203,419.806530,213.938983,420.063843,214.150210C420.321156,214.361437,420.473797,214.674194,420.482000,215.007000C420.515718,215.330943,420.418400,215.654908,420.211750,215.906645C420.005099,216.158382,419.706304,216.316956,419.382000,216.347000C418.529000,216.469000,397.570000,218.906000,389.406000,242.667000C384.010945,258.711338,379.775706,275.122594,376.733000,291.774000C376.625556,292.308380,376.176414,292.706484,375.633000,292.749000L319.333000,299.573000Z" transform="matrix(1 0 0 1 34.08900000000000 23.83900000000000)" fill="rgb(0,0,0)" stroke="none" stroke-width="1"/><path id="eJsCrl7MdD228" d="M369.550000,328.542000L369.306000,328.542000C368.680397,328.419329,368.255230,327.834998,368.331000,327.202000L381.857000,243.245000C381.793931,242.731276,382.062151,242.233734,382.525980,242.004056C382.989809,241.774377,383.548109,241.862644,383.918464,242.224206C384.288818,242.585769,384.390470,243.141788,384.172000,243.611000L370.646000,327.568000C370.594533,328.130815,370.114964,328.557001,369.550000,328.542000Z" transform="matrix(1 0 0 1 45.08800000000000 29.95600000000000)" fill="rgb(0,0,0)" stroke="none" stroke-width="1"/><rect id="eJsCrl7MdD229" width="141.715000" height="6.946000" rx="0" ry="0" transform="matrix(1 0 0 1 289.73800000000000 357.27900000000000)" fill="rgb(255,255,255)" stroke="none" stroke-width="1"/><path id="eJsCrl7MdD230" d="M408.886000,320.483000L267.049000,320.483000C266.719425,320.505087,266.396368,320.383767,266.162800,320.150200C265.929233,319.916632,265.807913,319.593575,265.830000,319.264000L265.830000,312.318000C265.807913,311.988425,265.929233,311.665368,266.162800,311.431800C266.396368,311.198233,266.719425,311.076913,267.049000,311.099000L408.764000,311.099000C409.093575,311.076913,409.416632,311.198233,409.650200,311.431800C409.883767,311.665368,410.005087,311.988425,409.983000,312.318000L409.983000,319.264000C410.010263,319.574268,409.907212,319.881892,409.698550,320.113127C409.489888,320.344362,409.194429,320.478361,408.883000,320.483000ZM268.268000,318.046000L407.545000,318.046000L407.545000,313.537000L268.267000,313.537000Z" transform="matrix(1 0 0 1 22.69000000000000 45.08200000000000)" fill="rgb(0,0,0)" stroke="none" stroke-width="1"/><path id="eJsCrl7MdD231" d="M320.463000,264.500000L228.830000,264.500000L275.130000,322.380000L366.885000,322.380000Z" transform="matrix(1 0 0 1 14.60400000000000 34.89900000000000)" fill="rgb(255,255,255)" stroke="none" stroke-width="1"/><path id="eJsCrl7MdD232" d="M367.131000,323.839000L275.376000,323.839000C274.988149,323.858574,274.618315,323.673847,274.401000,323.352000L227.975000,265.472000C227.688360,265.082756,227.641368,264.566609,227.853000,264.132000C228.044464,263.693599,228.474661,263.407715,228.953000,263.401000L320.672000,263.401000C321.059851,263.381426,321.429685,263.566153,321.647000,263.888000L368.073000,321.888000C368.359640,322.277244,368.406632,322.793391,368.195000,323.228000C368.006227,323.637093,367.579475,323.882154,367.131000,323.839000ZM275.985000,321.400000L364.536000,321.400000L320.060000,265.959000L231.473000,265.959000Z" transform="matrix(1 0 0 1 14.36200000000000 34.65900000000000)" fill="rgb(0,0,0)" stroke="none" stroke-width="1"/><path id="eJsCrl7MdD233" d="M480.534000,331.630000C479.904626,331.633005,479.376434,331.156376,479.315000,330.530000C479.071000,326.509000,471.151000,292.630000,467.130000,275.330000C467.091213,274.747184,467.471296,274.218766,468.036182,274.070163C468.601068,273.921560,469.191974,274.194543,469.445000,274.721000C469.932000,276.793000,481.387000,325.046000,481.752000,330.286000C481.723168,330.968315,481.210474,331.532362,480.534000,331.626000Z" transform="matrix(1 0 0 1 66.68000000000001 36.98200000000000)" fill="rgb(0,0,0)" stroke="none" stroke-width="1"/><g id="eJsCrl7MdD234" transform="matrix(0.99999943936114 0.00105890387377 -0.00105890387377 0.99999943936114 0.68548149398060 17.70352181622019)"><path id="eJsCrl7MdD235" d="M356.562000,271.400000C356.562000,271.400000,341.574000,278.100000,341.330000,284.316000C341.330000,287.850000,345.473000,288.337000,347.666000,286.997000C349.859000,285.657000,361.070000,277.736000,356.562000,271.400000Z" transform="matrix(1 0 0 1 39.18900000000000 36.40700000000000)" fill="rgb(255,255,255)" stroke="none" stroke-width="1"/><path id="eJsCrl7MdD236" d="M345.306000,289.167000C344.323156,289.185850,343.354201,288.932883,342.506000,288.436000C341.124834,287.640775,340.320238,286.125602,340.435000,284.536000C340.679000,277.712000,354.814000,271.136000,356.398000,270.523000C356.907586,270.256195,357.536227,270.413570,357.860000,270.889000C358.950458,272.493800,359.347079,274.470777,358.960000,276.372000C357.620000,282.708000,348.724000,288.192000,348.602000,288.314000C347.596329,288.880428,346.460192,289.174459,345.306000,289.167000ZM356.273000,273.200000C350.790000,275.881000,342.873000,280.877000,342.747000,284.654000C342.691391,285.337155,343.020111,285.994594,343.600000,286.360000C344.775778,286.867121,346.116645,286.822376,347.256000,286.238000C348.962000,285.263000,355.542000,280.511000,356.517000,275.881000C356.684434,274.981931,356.599989,274.054071,356.273000,273.200000Z" transform="matrix(1 0 0 1 38.99000000000000 36.18700000000000)" fill="rgb(0,0,0)" stroke="none" stroke-width="1"/><path id="eJsCrl7MdD237" d="M390.721000,261.200000C390.721000,261.200000,366.716000,263.272000,356.480000,272.900000C348.072000,280.700000,342.467000,295.200000,349.047000,302.754000C350.997000,305.069000,355.747000,305.435000,355.871000,300.317000C358.917000,302.998000,361.842000,306.044000,364.888000,299.830000C367.081000,301.780000,370.371000,306.288000,374.388000,299.830000C376.094000,302.023000,379.628000,303.973000,381.699000,301.170000C383.770000,298.367000,379.749000,288.375000,379.749000,288.375000C379.749000,288.375000,383.649000,292.518000,392.787000,291.909000C392.269000,285.327000,390.721000,261.200000,390.721000,261.200000Z" transform="matrix(0.99988419887849 0.01521804301215 -0.01521804301215 0.99988419887849 44.45415946016055 28.28790545111724)" fill="rgb(255,255,255)" stroke="none" stroke-width="1"/><path id="eJsCrl7MdD238" d="M352.589000,305.773000C350.892930,305.758461,349.288592,305.000704,348.200000,303.700000C341.254000,295.780000,346.494000,280.670000,355.755000,272.140000C366.234000,262.392000,389.755000,260.198000,390.727000,260.198000C391.027457,260.205466,391.321045,260.289447,391.580000,260.442000C391.820845,260.659147,391.954581,260.970831,391.946000,261.295000L394.018000,291.880000C394.010534,292.180457,393.926553,292.474045,393.774000,292.733000C393.556853,292.973845,393.245169,293.107581,392.921000,293.099000C389.259067,293.474680,385.562540,292.886572,382.198000,291.393000C383.298000,294.805000,384.391000,299.801000,382.685000,301.872000C381.829343,303.031593,380.470069,303.711231,379.029000,303.700000L379.029000,303.700000C377.338117,303.623237,375.733984,302.929500,374.520000,301.750000C373.611623,303.143163,372.145751,304.076057,370.499000,304.309000C368.306000,304.553000,366.478000,303.090000,365.137000,301.750000C364.429288,303.109734,363.196698,304.121238,361.725000,304.550000C359.897000,304.916000,358.191000,303.819000,356.725000,302.600000C356.347010,303.892391,355.336391,304.903010,354.044000,305.281000C353.647522,305.638498,353.121077,305.816512,352.589000,305.773000ZM389.754000,262.759000C384.754000,263.368000,365.993000,266.049000,357.463000,273.969000C349.177000,281.646000,344.181000,295.415000,350.152000,302.117000C350.950567,303.079018,352.225408,303.505257,353.442000,303.217000C354.542000,302.851000,354.782000,301.511000,354.904000,300.417000C354.910715,299.938661,355.196599,299.508464,355.635000,299.317000C356.084882,299.082154,356.636775,299.182648,356.975000,299.561000L357.462000,299.927000C358.924000,301.267000,360.508000,302.608000,361.605000,302.364000C362.458000,302.242000,363.311000,301.145000,364.164000,299.440000C364.292143,299.077947,364.632956,298.834624,365.017000,298.831000C365.401512,298.727829,365.812176,298.818922,366.117000,299.075000L366.848000,299.806000C367.948000,300.906000,369.285000,302.243000,370.625000,302.121000C371.600000,301.999000,372.697000,301.146000,373.793000,299.440000C374.035629,299.127947,374.381138,298.912137,374.768000,298.831000C375.155851,298.811426,375.525685,298.996153,375.743000,299.318000C376.637029,300.548238,378.008366,301.344463,379.520000,301.511000C380.206765,301.460434,380.833842,301.102052,381.226000,300.536000C382.445000,298.952000,380.617000,292.736000,379.033000,288.960000C378.820891,288.404164,379.040997,287.776409,379.553769,287.474735C380.066542,287.173060,380.722178,287.285598,381.105000,287.741000C381.487822,288.196402,384.395000,291.031000,391.950000,290.909000Z" transform="matrix(1 0 0 1 39.99300000000000 33.96000000000000)" fill="rgb(0,0,0)" stroke="none" stroke-width="1"/><path id="eJsCrl7MdD239" d="M354.206000,295.342000C354.206000,295.342000,351.891000,287.665000,353.840000,283.400000" transform="matrix(1 0 0 1 41.75200000000000 39.02900000000000)" fill="rgb(255,255,255)" stroke="none" stroke-width="1"/><path id="eJsCrl7MdD240" d="M354.431000,296.744000C353.899554,296.703136,353.432460,296.376286,353.212000,295.891000C353.090000,295.525000,350.775000,287.727000,352.968000,283.096000C353.299083,282.607039,353.933018,282.425694,354.472599,282.665590C355.012181,282.905486,355.302226,283.497630,355.161000,284.071000C353.699000,287.239000,354.917000,293.210000,355.527000,295.160000C355.645344,295.467218,355.617655,295.811570,355.451745,296.095933C355.285834,296.380295,354.999683,296.573848,354.674000,296.622000C354.711000,296.744000,354.589000,296.744000,354.431000,296.744000Z" transform="matrix(1 0 0 1 41.52700000000000 38.84600000000000)" fill="rgb(0,0,0)" stroke="none" stroke-width="1"/><path id="eJsCrl7MdD241" d="M361.761000,295.007000C361.761000,295.007000,359.080000,286.843000,360.177000,282.700000" transform="matrix(1 0 0 1 43.25000000000000 38.87700000000000)" fill="rgb(255,255,255)" stroke="none" stroke-width="1"/><path id="eJsCrl7MdD242" d="M361.968000,296.416000C361.458973,296.389834,361.020070,296.049485,360.868000,295.563000C360.746000,295.197000,358.068000,287.033000,359.284000,282.525000C359.537026,281.998543,360.127932,281.725560,360.692818,281.874163C361.257704,282.022766,361.637787,282.551184,361.599000,283.134000C360.746000,286.302000,362.452000,292.634000,363.183000,294.834000C363.300235,295.140744,363.288752,295.481813,363.151152,295.779977C363.013552,296.078141,362.761475,296.308179,362.452000,296.418000Z" transform="matrix(1 0 0 1 43.04400000000000 38.68700000000000)" fill="rgb(0,0,0)" stroke="none" stroke-width="1"/><path id="eJsCrl7MdD243" d="M369.773000,295.291000C369.773000,295.291000,365.386000,287.005000,368.311000,281.400000" transform="matrix(1 0 0 1 44.86500000000000 38.59200000000000)" fill="rgb(255,255,255)" stroke="none" stroke-width="1"/><path id="eJsCrl7MdD244" d="M369.994000,296.735000C369.546025,296.738482,369.128830,296.507508,368.894000,296.126000C368.650000,295.760000,364.264000,287.226000,367.432000,281.016000C367.642682,280.610790,368.056860,280.352020,368.513418,280.340349C368.969977,280.328679,369.396834,280.565952,369.627943,280.959869C369.859052,281.353785,369.857925,281.842154,369.625000,282.235000C366.944000,287.235000,370.965000,294.908000,371.087000,295.030000C371.258760,295.318560,371.303873,295.665195,371.211694,295.988106C371.119515,296.311017,370.898209,296.581599,370.600000,296.736000Z" transform="matrix(1 0 0 1 44.64400000000000 38.36700000000000)" fill="rgb(0,0,0)" stroke="none" stroke-width="1"/></g><circle id="eJsCrl7MdD245" r="7.920000" transform="matrix(1 0 0 1 311.55000000000001 329.25300000000004)" fill="rgb(136,192,208)" stroke="none" stroke-width="1"/><path id="eJsCrl7MdD246" d="M415.530000,397.676000C415.530000,397.676000,423.085000,320.909000,494.730000,314.938000C494.730000,314.938000,558.703000,303.484000,570.644000,369.038000C628.644000,323.952000,656.794000,393.530000,655.088000,416.804000C666.299000,405.959000,682.139000,399.866000,703.951000,405.350000C722.838000,410.102000,746.843000,437.519000,746.843000,474.928000L560.900000,474.928000" transform="matrix(1 0 0 1 55.40400000000000 45.75400000000000)" fill="rgb(255,255,255)" stroke="none" stroke-width="1"/><path id="eJsCrl7MdD247" d="M747.112000,476.513000L561.164000,476.513000C560.720349,476.525711,560.304848,476.296286,560.079272,475.914051C559.853695,475.531816,559.853695,475.057184,560.079272,474.674949C560.304848,474.292714,560.720349,474.063289,561.164000,474.076000L745.893000,474.076000C745.406000,437.033000,721.279000,411.322000,703.854000,406.935000Q675.154000,399.807000,656.088000,418.024000C655.749775,418.402352,655.197882,418.502846,654.748000,418.268000C654.291148,418.035022,654.007332,417.561736,654.017000,417.049000C654.992000,403.767000,645.244000,371.598000,623.554000,359.900000C608.444000,351.736000,590.897000,355.270000,571.523000,370.258000C571.179007,370.542112,570.697475,370.590304,570.304000,370.380000C569.879201,370.241539,569.586832,369.851580,569.573000,369.405000C564.699000,342.719000,550.686000,325.660000,528.021000,318.714000C517.310728,315.572684,506.055389,314.742023,495,316.277000C465.633000,318.714000,443.578000,333.093000,429.443000,359.169000C423.011221,371.255953,418.723409,384.366380,416.770000,397.918000C416.657287,398.565862,416.087407,399.033674,415.430000,399.018000C415.105588,398.988217,414.806627,398.829715,414.599924,398.577913C414.393220,398.326111,414.296005,398.001998,414.330000,397.678000C416.237147,383.812738,420.611862,370.401053,427.247000,358.078000C437.239000,339.678000,457.101000,317.014000,494.632000,313.845000C505.976075,312.244899,517.532044,313.117865,528.507000,316.404000C544.470000,321.278000,564.697000,334.073000,571.399000,366.973000C595.770000,348.817000,613.682000,351.741000,624.527000,357.590000C645.851000,369.044000,655.965000,398.654000,656.327000,414.130000C669.243000,402.920000,685.327000,399.630000,704.215000,404.382000C722.615000,409.012000,748.082000,436.182000,748.082000,475.182000C748.209220,475.494468,748.165862,475.850500,747.967367,476.123303C747.768873,476.396105,747.443453,476.546906,747.107000,476.522000Z" transform="matrix(1 0 0 1 55.14100000000000 45.51100000000000)" fill="rgb(0,0,0)" stroke="none" stroke-width="1"/><path id="eJsCrl7MdD248" d="M500.521000,342.538000L500.277000,342.538000C499.651677,342.414890,499.226735,341.830866,499.302000,341.198000C499.424000,340.223000,514.412000,248.346000,546.215000,192.537000L436.548000,192.537000C435.888631,192.518109,435.363911,191.978140,435.363911,191.318500C435.363911,190.658860,435.888631,190.118891,436.548000,190.100000L548.248000,190.100000C548.696025,190.096320,549.113311,190.327345,549.348000,190.709000C549.591342,191.078901,549.591342,191.558099,549.348000,191.928000C517.057000,247.128000,501.825000,340.589000,501.703000,341.563000C501.588367,342.126160,501.095683,342.532562,500.521000,342.538000Z" transform="matrix(1 0 0 1 59.73100000000000 18.64100000000000)" fill="rgb(0,0,0)" stroke="none" stroke-width="1"/><path id="eJsCrl7MdD249" d="M606.141000,232.194000C605.811425,232.216087,605.488368,232.094767,605.254800,231.861200C605.021233,231.627632,604.899913,231.304575,604.922000,230.975000C604.915384,223.777054,599.081946,217.943616,591.884000,217.937000C587.208294,217.970041,582.898467,220.472570,580.552000,224.517000C580.205449,225.101485,579.456664,225.303998,578.862751,224.973865C578.268837,224.643733,578.045542,223.900880,578.359000,223.298000C581.143465,218.522718,586.231559,215.560991,591.759000,215.498000C600.287397,215.530454,607.187407,222.446551,607.200000,230.975000C607.246670,231.282477,607.155956,231.594936,606.951885,231.829617C606.747815,232.064298,606.450978,232.197522,606.140000,232.194000Z" transform="matrix(1 0 0 1 90.95200000000000 24.19100000000000)" fill="rgb(0,0,0)" stroke="none" stroke-width="1"/><path id="eJsCrl7MdD250" d="M601.349000,232.200000C601.019425,232.222087,600.696368,232.100767,600.462800,231.867200C600.229233,231.633632,600.107913,231.310575,600.130000,230.981000C600.112102,223.962504,604.826894,217.813639,611.609620,216.009687C618.392346,214.205736,625.538853,217.199939,629.010000,223.300000C629.242925,223.692846,629.244052,224.181215,629.012943,224.575131C628.781834,224.969048,628.354977,225.206321,627.898418,225.194651C627.441860,225.182980,627.027682,224.924210,626.817000,224.519000C624.470533,220.474570,620.160706,217.972041,615.485000,217.939000C612.021674,217.932364,608.697749,219.302693,606.245335,221.748167C603.792922,224.193641,602.413178,227.513669,602.410000,230.977000C602.456670,231.284477,602.365956,231.596936,602.161885,231.831617C601.957815,232.066298,601.660978,232.199522,601.350000,232.196000Z" transform="matrix(1 0 0 1 95.74400000000000 24.18900000000000)" fill="rgb(0,0,0)" stroke="none" stroke-width="1"/><path id="eJsCrl7MdD251" d="M243.541000,495.494000C243.211513,495.515751,242.888656,495.394323,242.655167,495.160833C242.421677,494.927344,242.300249,494.604487,242.322000,494.275000C242.315384,487.077054,236.481946,481.243616,229.284000,481.237000C224.608294,481.270041,220.298467,483.772570,217.952000,487.817000C217.741318,488.222210,217.327140,488.480980,216.870582,488.492651C216.414023,488.504321,215.987166,488.267048,215.756057,487.873131C215.524948,487.479215,215.526075,486.990846,215.759000,486.598000C218.543465,481.822718,223.631559,478.860991,229.159000,478.798000C237.699899,478.811765,244.620235,485.732101,244.634000,494.273000C244.686487,494.588291,244.592221,494.910299,244.377991,495.147509C244.163762,495.384720,243.852991,495.511198,243.534000,495.491000Z" transform="matrix(1 0 0 1 11.71300000000000 81.73000000000000)" fill="rgb(0,0,0)" stroke="none" stroke-width="1"/><path id="eJsCrl7MdD252" d="M238.749000,495.500000C238.419513,495.521751,238.096656,495.400323,237.863167,495.166833C237.629677,494.933344,237.508249,494.610487,237.530000,494.281000C237.512102,487.262504,242.226894,481.113639,249.009620,479.309687C255.792346,477.505736,262.938853,480.499939,266.410000,486.600000C266.642925,486.992846,266.644052,487.481215,266.412943,487.875131C266.181834,488.269048,265.754977,488.506321,265.298418,488.494651C264.841860,488.482980,264.427682,488.224210,264.217000,487.819000C261.870533,483.774570,257.560706,481.272041,252.885000,481.239000C245.687054,481.245616,239.853616,487.079054,239.847000,494.277000C239.899487,494.592291,239.805221,494.914299,239.590991,495.151509C239.376762,495.388720,239.065991,495.515198,238.747000,495.495000Z" transform="matrix(1 0 0 1 16.50500000000000 81.72799999999999)" fill="rgb(0,0,0)" stroke="none" stroke-width="1"/><path id="eJsCrl7MdD253" d="M622.174000,495.647000C589.274000,495.647000,568.681000,481.147000,550.524000,468.347000C535.414000,457.624000,521.157000,447.632000,502.148000,447.632000C501.488631,447.613109,500.963911,447.073140,500.963911,446.413500C500.963911,445.753860,501.488631,445.213891,502.148000,445.195000C521.888000,445.195000,536.511000,455.431000,551.986000,466.395000C569.898000,478.946000,590.126000,493.325000,622.173000,493.325000C622.502575,493.302913,622.825632,493.424233,623.059200,493.657800C623.292767,493.891368,623.414087,494.214425,623.392000,494.544000C623.402037,494.860218,623.272657,495.164882,623.038148,495.377250C622.803639,495.589618,622.487677,495.688247,622.174000,495.647000Z" transform="matrix(1 0 0 1 74.06600000000000 74.38800000000001)" fill="rgb(0,0,0)" stroke="none" stroke-width="1"/><path id="eJsCrl7MdD254" d="M43.745000,0C67.904696,0,87.490000,19.585304,87.490000,43.745000C87.490000,67.904696,67.904696,87.490000,43.745000,87.490000C19.585304,87.490000,0,67.904696,0,43.745000C0,19.585304,19.585304,0,43.745000,0Z" transform="matrix(1 0 0 1 590.22799999999995 104.80000000000000)" fill="rgb(208,135,112)" stroke="none" stroke-width="1"/><path id="eJsCrl7MdD255" d="M221.954000,274.286000C217.174635,274.368149,212.563265,272.523601,209.159000,269.168000C202.092000,261.979000,200.995000,248.209000,205.747000,228.104000C205.779631,227.613691,206.103466,227.190916,206.568353,227.031704C207.033239,226.872492,207.548265,227.007978,207.874627,227.375341C208.200989,227.742705,208.274865,228.270104,208.062000,228.713000C203.553000,247.722000,204.528000,261.126000,210.862000,267.584000C216.467000,273.311000,224.753000,271.727000,224.753000,271.727000C225.193506,271.627168,225.653500,271.774150,225.954500,272.110915C226.255501,272.447680,226.350131,272.921222,226.201675,273.347805C226.053219,273.774388,225.685042,274.086867,225.240000,274.164000C225.244000,273.920000,223.900000,274.286000,221.954000,274.286000Z" transform="matrix(1 0 0 1 8.92900000000000 26.69800000000000)" fill="rgb(0,0,0)" stroke="none" stroke-width="1"/><path id="eJsCrl7MdD256" d="M172.900000,239.914000L290.732000,246.860000L288.417000,160.100000L163.030000,169.117000L164.614000,238.939000" transform="matrix(1 0 0 1 0.22500000000000 12.08500000000000)" fill="rgb(255,255,255)" stroke="none" stroke-width="1"/><path id="eJsCrl7MdD257" d="M290.957000,248.275000L290.957000,248.275000L173.125000,241.329000C172.681031,241.296091,172.289864,241.024910,172.103304,240.620699C171.916745,240.216487,171.964164,239.742882,172.227158,239.383681C172.490153,239.024480,172.927319,238.836235,173.369000,238.892000L289.860000,245.838000L287.667000,161.638000L164.437000,170.411000L166.021000,239.136000C166.043087,239.465575,165.921767,239.788632,165.688200,240.022200C165.454632,240.255767,165.131575,240.377087,164.802000,240.355000C164.128765,240.355000,163.583000,239.809235,163.583000,239.136000L162,169.314000C161.996995,168.684626,162.473624,168.156434,163.100000,168.095000L288.487000,159.195000C289.160235,159.195000,289.706000,159.740765,289.706000,160.414000L292.021000,247.173000C292.055663,247.501638,291.917056,247.824677,291.655000,248.026000C291.460994,248.192224,291.212410,248.280903,290.957000,248.275000Z" transform="matrix(1 0 0 1 0 11.88800000000000)" fill="rgb(0,0,0)" stroke="none" stroke-width="1"/><path id="eJsCrl7MdD258" d="M199.287000,208.200000C199.028087,208.174663,198.778221,208.091261,198.556000,207.956000L185.518000,198.573000C185.196153,198.355685,185.011426,197.985851,185.031000,197.598000C185.065348,197.223436,185.239164,196.875446,185.518000,196.623000L198.556000,187.240000C199.094907,186.857122,199.840781,186.973568,200.237337,187.502491C200.633893,188.031413,200.536591,188.780025,200.018000,189.190000L188.442000,197.476000L200.018000,205.762000C200.556272,206.165842,200.665489,206.929463,200.262000,207.468000C200.140000,208.081000,199.774000,208.200000,199.287000,208.200000Z" transform="matrix(1 0 0 1 5.03300000000000 17.96300000000000)" fill="rgb(0,0,0)" stroke="none" stroke-width="1"/><path id="eJsCrl7MdD259" d="M234.349000,208.159000C233.961149,208.178574,233.591315,207.993847,233.374000,207.672000C233.019895,207.121754,233.123850,206.394924,233.618000,205.966000L245.194000,197.680000L233.618000,189.394000C233.099409,188.984025,233.002107,188.235413,233.398663,187.706491C233.795219,187.177568,234.541093,187.061122,235.080000,187.444000L248.118000,196.827000C248.439847,197.044315,248.624574,197.414149,248.605000,197.802000C248.570652,198.176564,248.396836,198.524554,248.118000,198.777000L235.080000,208.160000C234.836000,208.037000,234.592000,208.159000,234.349000,208.159000Z" transform="matrix(1 0 0 1 15.54400000000000 18.00700000000000)" fill="rgb(0,0,0)" stroke="none" stroke-width="1"/><path id="eJsCrl7MdD260" d="M203.042000,219.677000C202.783087,219.651663,202.533221,219.568261,202.311000,219.433000C201.816850,219.004076,201.712895,218.277246,202.067000,217.727000L232.774000,179.587000C233.183975,179.068409,233.932587,178.971107,234.461509,179.367663C234.990432,179.764219,235.106878,180.510093,234.724000,181.049000L204.017000,219.189000C203.799685,219.510847,203.429851,219.695574,203.042000,219.676000Z" transform="matrix(1 0 0 1 8.71000000000000 16.23700000000000)" fill="rgb(0,0,0)" stroke="none" stroke-width="1"/><path id="eJsCrl7MdD261" d="M727.793000,447.637000L698.549000,447.637000C697.889631,447.618109,697.364911,447.078140,697.364911,446.418500C697.364911,445.758860,697.889631,445.218891,698.549000,445.200000L727.794000,445.200000C728.123390,445.177945,728.446270,445.299133,728.679801,445.532472C728.913332,445.765812,729.034785,446.088592,729.013000,446.418000C729.013000,446.741299,728.884570,447.051356,728.655963,447.279963C728.427356,447.508570,728.117299,447.637000,727.794000,447.637000Z" transform="matrix(1 0 0 1 116.98600000000000 74.38700000000000)" fill="rgb(0,0,0)" stroke="none" stroke-width="1"/><path id="eJsCrl7MdD262" d="M723.875000,447.637000L698.392000,447.637000C697.783277,447.553171,697.329803,447.032968,697.329803,446.418500C697.329803,445.804032,697.783277,445.283829,698.392000,445.200000L723.875000,445.200000C724.170683,445.181705,724.457393,445.305377,724.647000,445.533000C724.854764,445.779630,724.958727,446.097254,724.937000,446.419000C724.977082,447.047593,724.503195,447.591091,723.875000,447.637000Z" transform="matrix(0 -1 1 0 -173.25999999999999 926.97699999999998)" fill="rgb(0,0,0)" stroke="none" stroke-width="1"/></g><path id="eJsCrl7MdD263" d="M311.373000,129.408000Q332.656931,128.860630,342,135.386000C349.995993,140.970548,357.818112,148.410477,363.258207,158.947343C370.552820,173.076204,372.970530,183.346160,373.583207,188.307343C374.345603,194.480888,373.130969,199.959949,371.597389,204.753343Q368.124488,215.608330,342,221.528000L269.082116,238.479099L262.481207,204.147343L331.976118,188.307343" transform="matrix(1 0 0 1 1.11879307499993 2.75865723000027)" fill="rgb(255,255,255)" stroke="rgb(0,0,0)" stroke-width="3"/><script><![CDATA[!function(t,n){"object"==typeof exports&&"undefined"!=typeof module?module.exports=n():"function"==typeof define&&define.amd?define(n):(t="undefined"!=typeof globalThis?globalThis:t||self).__SVGATOR_PLAYER__=n()}(this,(function(){"use strict";function t(n){return(t="function"==typeof Symbol&&"symbol"==typeof Symbol.iterator?function(t){return typeof t}:function(t){return t&&"function"==typeof Symbol&&t.constructor===Symbol&&t!==Symbol.prototype?"symbol":typeof t})(n)}function n(t,n){if(!(t instanceof n))throw new TypeError("Cannot call a class as a function")}function r(t,n){for(var r=0;r<n.length;r++){var e=n[r];e.enumerable=e.enumerable||!1,e.configurable=!0,"value"in e&&(e.writable=!0),Object.defineProperty(t,e.key,e)}}function e(t,n,e){return n&&r(t.prototype,n),e&&r(t,e),t}function i(t){return(i=Object.setPrototypeOf?Object.getPrototypeOf:function(t){return t.__proto__||Object.getPrototypeOf(t)})(t)}function o(t,n){return(o=Object.setPrototypeOf||function(t,n){return t.__proto__=n,t})(t,n)}function u(t,n){return!n||"object"!=typeof n&&"function"!=typeof n?function(t){if(void 0===t)throw new ReferenceError("this hasn't been initialised - super() hasn't been called");return t}(t):n}function a(t){var n=function(){if("undefined"==typeof Reflect||!Reflect.construct)return!1;if(Reflect.construct.sham)return!1;if("function"==typeof Proxy)return!0;try{return Boolean.prototype.valueOf.call(Reflect.construct(Boolean,[],(function(){}))),!0}catch(t){return!1}}();return function(){var r,e=i(t);if(n){var o=i(this).constructor;r=Reflect.construct(e,arguments,o)}else r=e.apply(this,arguments);return u(this,r)}}function l(t,n,r){return(l="undefined"!=typeof Reflect&&Reflect.get?Reflect.get:function(t,n,r){var e=function(t,n){for(;!Object.prototype.hasOwnProperty.call(t,n)&&null!==(t=i(t)););return t}(t,n);if(e){var o=Object.getOwnPropertyDescriptor(e,n);return o.get?o.get.call(r):o.value}})(t,n,r||t)}var f=Math.abs;function s(t){return t}function c(t,n,r){var e=1-r;return 3*r*e*(t*e+n*r)+r*r*r}function h(){var t=arguments.length>0&&void 0!==arguments[0]?arguments[0]:0,n=arguments.length>1&&void 0!==arguments[1]?arguments[1]:0,r=arguments.length>2&&void 0!==arguments[2]?arguments[2]:1,e=arguments.length>3&&void 0!==arguments[3]?arguments[3]:1;return t<0||t>1||r<0||r>1?null:f(t-n)<=1e-5&&f(r-e)<=1e-5?s:function(i){if(i<=0)return t>0?i*n/t:0===n&&r>0?i*e/r:0;if(i>=1)return r<1?1+(i-1)*(e-1)/(r-1):1===r&&t<1?1+(i-1)*(n-1)/(t-1):1;for(var o,u=0,a=1;u<a;){var l=c(t,r,o=(u+a)/2);if(f(i-l)<1e-5)break;l<i?u=o:a=o}return c(n,e,o)}}function v(){return 1}function y(t){return 1===t?1:0}function d(){var t=arguments.length>0&&void 0!==arguments[0]?arguments[0]:1,n=arguments.length>1&&void 0!==arguments[1]?arguments[1]:0;if(1===t){if(0===n)return y;if(1===n)return v}var r=1/t;return function(t){return t>=1?1:(t+=n*r)-t%r}}function g(t){var n=arguments.length>1&&void 0!==arguments[1]?arguments[1]:2;if(Number.isInteger(t))return t;var r=Math.pow(10,n);return Math.round(t*r)/r}var p=Math.PI/180;function m(t,n,r){return t>=.5?r:n}function b(t,n,r){return 0===t||n===r?n:t*(r-n)+n}function w(t,n,r){var e=b(t,n,r);return e<=0?0:e}function x(t,n,r){return 0===t?n:1===t?r:{x:b(t,n.x,r.x),y:b(t,n.y,r.y)}}function k(t,n,r){var e=function(t,n,r){return Math.round(b(t,n,r))}(t,n,r);return e<=0?0:e>=255?255:e}function A(t,n,r){return 0===t?n:1===t?r:{r:k(t,n.r,r.r),g:k(t,n.g,r.g),b:k(t,n.b,r.b),a:b(t,null==n.a?1:n.a,null==r.a?1:r.a)}}function _(t,n,r){if(0===t)return n;if(1===t)return r;var e=n.length;if(e!==r.length)return m(t,n,r);for(var i=[],o=0;o<e;o++)i.push(A(t,n[o],r[o]));return i}function S(t,n){for(var r=[],e=0;e<t;e++)r.push(n);return r}function O(t,n){if(--n<=0)return t;var r=(t=Object.assign([],t)).length;do{for(var e=0;e<r;e++)t.push(t[e])}while(--n>0);return t}var M,j=function(){function t(r){n(this,t),this.list=r,this.length=r.length}return e(t,[{key:"setAttribute",value:function(t,n){for(var r=this.list,e=0;e<this.length;e++)r[e].setAttribute(t,n)}},{key:"removeAttribute",value:function(t){for(var n=this.list,r=0;r<this.length;r++)n[r].removeAttribute(t)}},{key:"style",value:function(t,n){for(var r=this.list,e=0;e<this.length;e++)r[e].style[t]=n}}]),t}(),F=/-./g,P=function(t,n){return n.toUpperCase()};function B(t){return"function"==typeof t?t:m}function I(t){return t?"function"==typeof t?t:Array.isArray(t)?function(t){var n=arguments.length>1&&void 0!==arguments[1]?arguments[1]:s;if(!Array.isArray(t))return n;switch(t.length){case 1:return d(t[0])||n;case 2:return d(t[0],t[1])||n;case 4:return h(t[0],t[1],t[2],t[3])||n}return n}(t,null):function(t,n){var r=arguments.length>2&&void 0!==arguments[2]?arguments[2]:s;switch(t){case"linear":return s;case"steps":return d(n.steps||1,n.jump||0)||r;case"bezier":case"cubic-bezier":return h(n.x1||0,n.y1||0,n.x2||0,n.y2||0)||r}return r}(t.type,t.value,null):null}function R(t,n,r){var e=arguments.length>3&&void 0!==arguments[3]&&arguments[3],i=n.length-1;if(t<=n[0].t)return e?[0,0,n[0].v]:n[0].v;if(t>=n[i].t)return e?[i,1,n[i].v]:n[i].v;var o,u=n[0],a=null;for(o=1;o<=i;o++){if(!(t>n[o].t)){a=n[o];break}u=n[o]}return null==a?e?[i,1,n[i].v]:n[i].v:u.t===a.t?e?[o,1,a.v]:a.v:(t=(t-u.t)/(a.t-u.t),u.e&&(t=u.e(t)),e?[o,t,r(t,u.v,a.v)]:r(t,u.v,a.v))}function q(t,n){var r=arguments.length>2&&void 0!==arguments[2]?arguments[2]:null;return t&&t.length?"function"!=typeof n?null:("function"!=typeof r&&(r=null),function(e){var i=R(e,t,n);return null!=i&&r&&(i=r(i)),i}):null}function E(t,n){return t.t-n.t}function T(n,r,e,i,o){var u,a="@"===e[0],l="#"===e[0],f=M[e],s=m;switch(a?(u=e.substr(1),e=u.replace(F,P)):l&&(e=e.substr(1)),t(f)){case"function":if(s=f(i,o,R,I,e,a,r,n),l)return s;break;case"string":s=q(i,B(f));break;case"object":if((s=q(i,B(f.i),f.f))&&"function"==typeof f.u)return f.u(r,s,e,a,n)}return s?function(t,n,r){var e=arguments.length>3&&void 0!==arguments[3]&&arguments[3];if(e)return t instanceof j?function(e){return t.style(n,r(e))}:function(e){return t.style[n]=r(e)};if(Array.isArray(n)){var i=n.length;return function(e){var o=r(e);if(null==o)for(var u=0;u<i;u++)t[u].removeAttribute(n);else for(var a=0;a<i;a++)t[a].setAttribute(n,o)}}return function(e){var i=r(e);null==i?t.removeAttribute(n):t.setAttribute(n,i)}}(r,e,s,a):null}function N(n,r,e,i){if(!i||"object"!==t(i))return null;var o=null,u=null;return Array.isArray(i)?u=function(t){if(!t||!t.length)return null;for(var n=0;n<t.length;n++)t[n].e&&(t[n].e=I(t[n].e));return t.sort(E)}(i):(u=i.keys,o=i.data||null),u?T(n,r,e,u,o):null}function C(t,n,r){if(!r)return null;var e=[];for(var i in r)if(r.hasOwnProperty(i)){var o=N(t,n,i,r[i]);o&&e.push(o)}return e.length?e:null}function z(t,n){if(!n.duration||n.duration<0)return null;var r=function(t,n){if(!n)return null;var r=[];if(Array.isArray(n))for(var e=n.length,i=0;i<e;i++){var o=n[i];if(2===o.length){var u=null;if("string"==typeof o[0])u=t.getElementById(o[0]);else if(Array.isArray(o[0])){u=[];for(var a=0;a<o[0].length;a++)if("string"==typeof o[0][a]){var l=t.getElementById(o[0][a]);l&&u.push(l)}u=u.length?1===u.length?u[0]:new j(u):null}if(u){var f=C(t,u,o[1]);f&&(r=r.concat(f))}}}else for(var s in n)if(n.hasOwnProperty(s)){var c=t.getElementById(s);if(c){var h=C(t,c,n[s]);h&&(r=r.concat(h))}}return r.length?r:null}(t,n.elements);return r?function(t,n){var r=arguments.length>2&&void 0!==arguments[2]?arguments[2]:1/0,e=arguments.length>3&&void 0!==arguments[3]?arguments[3]:1,i=arguments.length>4&&void 0!==arguments[4]&&arguments[4],o=arguments.length>5&&void 0!==arguments[5]?arguments[5]:1,u=t.length,a=e>0?n:0;i&&r%2==0&&(a=n-a);var l=null;return function(f,s){var c=f%n,h=1+(f-c)/n;s*=e,i&&h%2==0&&(s=-s);var v=!1;if(h>r)c=a,v=!0,-1===o&&(c=e>0?0:n);else if(s<0&&(c=n-c),c===l)return!1;l=c;for(var y=0;y<u;y++)t[y](c);return v}}(r,n.duration,n.iterations||1/0,n.direction||1,!!n.alternate,n.fill||1):null}var L=function(){function t(r,e){var i=arguments.length>2&&void 0!==arguments[2]?arguments[2]:{};n(this,t),this._id=0,this._running=!1,this._rollingBack=!1,this._animations=r,this.duration=e.duration,this.alternate=e.alternate,this.fill=e.fill,this.iterations=e.iterations,this.direction=i.direction||1,this.speed=i.speed||1,this.fps=i.fps||100,this.offset=i.offset||0,this.rollbackStartOffset=0}return e(t,[{key:"_rollback",value:function(){var t=this,n=1/0,r=null;this.rollbackStartOffset=this.offset,this._rollingBack||(this._rollingBack=!0,this._running=!0);this._id=window.requestAnimationFrame((function e(i){if(t._rollingBack){null==r&&(r=i);var o=i-r,u=t.rollbackStartOffset-o,a=Math.round(u*t.speed);if(a>t.duration&&n!=1/0){var l=!!t.alternate&&a/t.duration%2>1,f=a%t.duration;a=(f+=l?t.duration:0)||t.duration}var s=t.fps?1e3/t.fps:0,c=Math.max(0,a);if(c<n-s){t.offset=c,n=c;for(var h=t._animations,v=h.length,y=0;y<v;y++)h[y](c,t.direction)}var d=!1;if(t.iterations>0&&-1===t.fill){var g=t.iterations*t.duration,p=g==a;a=p?0:a,t.offset=p?0:t.offset,d=a>g}a>0&&t.offset>=a&&!d?t._id=window.requestAnimationFrame(e):t.stop()}}))}},{key:"_start",value:function(){var t=this,n=arguments.length>0&&void 0!==arguments[0]?arguments[0]:0,r=-1/0,e=null,i={},o=function o(u){t._running=!0,null==e&&(e=u);var a=Math.round((u-e+n)*t.speed),l=t.fps?1e3/t.fps:0;if(a>r+l&&!t._rollingBack){t.offset=a,r=a;for(var f=t._animations,s=f.length,c=0,h=0;h<s;h++)i[h]?c++:(i[h]=f[h](a,t.direction),i[h]&&c++);if(c===s)return void t._stop()}t._id=window.requestAnimationFrame(o)};this._id=window.requestAnimationFrame(o)}},{key:"_stop",value:function(){this._id&&window.cancelAnimationFrame(this._id),this._running=!1,this._rollingBack=!1}},{key:"play",value:function(){!this._rollingBack&&this._running||(this._rollingBack=!1,this.rollbackStartOffset>this.duration&&(this.offset=this.rollbackStartOffset-(this.rollbackStartOffset-this.offset)%this.duration,this.rollbackStartOffset=0),this._start(this.offset))}},{key:"stop",value:function(){this._stop(),this.offset=0,this.rollbackStartOffset=0;var t=this.direction,n=this._animations;window.requestAnimationFrame((function(){for(var r=0;r<n.length;r++)n[r](0,t)}))}},{key:"reachedToEnd",value:function(){return this.iterations>0&&this.offset>=this.iterations*this.duration}},{key:"restart",value:function(){this._stop(),this.offset=0,this._start()}},{key:"pause",value:function(){this._stop()}},{key:"reverse",value:function(){this.direction=-this.direction}}],[{key:"build",value:function(n,r){return(n=function(t,n){if(M=n,!t||!t.root||!Array.isArray(t.animations))return null;for(var r=document.getElementsByTagName("svg"),e=!1,i=0;i<r.length;i++)if(r[i].id===t.root&&!r[i].svgatorAnimation){(e=r[i]).svgatorAnimation=!0;break}if(!e)return null;var o=t.animations.map((function(t){return z(e,t)})).filter((function(t){return!!t}));return o.length?{element:e,animations:o,animationSettings:t.animationSettings,options:t.options||void 0}:null}(n,r))?{el:n.element,options:n.options||{},player:new t(n.animations,n.animationSettings,n.options)}:null}}]),t}();!function(){for(var t=0,n=["ms","moz","webkit","o"],r=0;r<n.length&&!window.requestAnimationFrame;++r)window.requestAnimationFrame=window[n[r]+"RequestAnimationFrame"],window.cancelAnimationFrame=window[n[r]+"CancelAnimationFrame"]||window[n[r]+"CancelRequestAnimationFrame"];window.requestAnimationFrame||(window.requestAnimationFrame=function(n){var r=Date.now(),e=Math.max(0,16-(r-t)),i=window.setTimeout((function(){n(r+e)}),e);return t=r+e,i},window.cancelAnimationFrame=window.clearTimeout)}();var D=/\.0+$/g;function Q(t){return Number.isInteger(t)?t+"":t.toFixed(6).replace(D,"")}function U(t){var n=arguments.length>1&&void 0!==arguments[1]?arguments[1]:" ";return t&&t.length?t.map(Q).join(n):""}function V(t){return t?null==t.a||t.a>=1?"rgb("+t.r+","+t.g+","+t.b+")":"rgba("+t.r+","+t.g+","+t.b+","+t.a+")":"transparent"}var $={f:null,i:function(t,n,r){return 0===t?n:1===t?r:{x:w(t,n.x,r.x),y:w(t,n.y,r.y)}},u:function(t,n){return function(r){var e=n(r);t.setAttribute("rx",Q(e.x)),t.setAttribute("ry",Q(e.y))}}},G={f:null,i:function(t,n,r){return 0===t?n:1===t?r:{width:w(t,n.width,r.width),height:w(t,n.height,r.height)}},u:function(t,n){return function(r){var e=n(r);t.setAttribute("width",Q(e.width)),t.setAttribute("height",Q(e.height))}}},H=Math.sin,Y=Math.cos,Z=Math.acos,J=Math.asin,K=Math.tan,W=Math.atan2,X=Math.PI/180,tt=180/Math.PI,nt=Math.sqrt,rt=function(){function t(){var r=arguments.length>0&&void 0!==arguments[0]?arguments[0]:1,e=arguments.length>1&&void 0!==arguments[1]?arguments[1]:0,i=arguments.length>2&&void 0!==arguments[2]?arguments[2]:0,o=arguments.length>3&&void 0!==arguments[3]?arguments[3]:1,u=arguments.length>4&&void 0!==arguments[4]?arguments[4]:0,a=arguments.length>5&&void 0!==arguments[5]?arguments[5]:0;n(this,t),this.m=[r,e,i,o,u,a],this.i=null,this.w=null,this.s=null}return e(t,[{key:"determinant",get:function(){var t=this.m;return t[0]*t[3]-t[1]*t[2]}},{key:"isIdentity",get:function(){if(null===this.i){var t=this.m;this.i=1===t[0]&&0===t[1]&&0===t[2]&&1===t[3]&&0===t[4]&&0===t[5]}return this.i}},{key:"point",value:function(t,n){var r=this.m;return{x:r[0]*t+r[2]*n+r[4],y:r[1]*t+r[3]*n+r[5]}}},{key:"translateSelf",value:function(){var t=arguments.length>0&&void 0!==arguments[0]?arguments[0]:0,n=arguments.length>1&&void 0!==arguments[1]?arguments[1]:0;if(!t&&!n)return this;var r=this.m;return r[4]+=r[0]*t+r[2]*n,r[5]+=r[1]*t+r[3]*n,this.w=this.s=this.i=null,this}},{key:"rotateSelf",value:function(){var t=arguments.length>0&&void 0!==arguments[0]?arguments[0]:0;if(t%=360){var n=H(t*=X),r=Y(t),e=this.m,i=e[0],o=e[1];e[0]=i*r+e[2]*n,e[1]=o*r+e[3]*n,e[2]=e[2]*r-i*n,e[3]=e[3]*r-o*n,this.w=this.s=this.i=null}return this}},{key:"scaleSelf",value:function(){var t=arguments.length>0&&void 0!==arguments[0]?arguments[0]:1,n=arguments.length>1&&void 0!==arguments[1]?arguments[1]:1;if(1!==t||1!==n){var r=this.m;r[0]*=t,r[1]*=t,r[2]*=n,r[3]*=n,this.w=this.s=this.i=null}return this}},{key:"skewSelf",value:function(t,n){if(n%=360,(t%=360)||n){var r=this.m,e=r[0],i=r[1],o=r[2],u=r[3];t&&(t=K(t*X),r[2]+=e*t,r[3]+=i*t),n&&(n=K(n*X),r[0]+=o*n,r[1]+=u*n),this.w=this.s=this.i=null}return this}},{key:"resetSelf",value:function(){var t=arguments.length>0&&void 0!==arguments[0]?arguments[0]:1,n=arguments.length>1&&void 0!==arguments[1]?arguments[1]:0,r=arguments.length>2&&void 0!==arguments[2]?arguments[2]:0,e=arguments.length>3&&void 0!==arguments[3]?arguments[3]:1,i=arguments.length>4&&void 0!==arguments[4]?arguments[4]:0,o=arguments.length>5&&void 0!==arguments[5]?arguments[5]:0,u=this.m;return u[0]=t,u[1]=n,u[2]=r,u[3]=e,u[4]=i,u[5]=o,this.w=this.s=this.i=null,this}},{key:"recomposeSelf",value:function(){var t=arguments.length>0&&void 0!==arguments[0]?arguments[0]:null,n=arguments.length>1&&void 0!==arguments[1]?arguments[1]:null,r=arguments.length>2&&void 0!==arguments[2]?arguments[2]:null,e=arguments.length>3&&void 0!==arguments[3]?arguments[3]:null,i=arguments.length>4&&void 0!==arguments[4]?arguments[4]:null;return this.isIdentity||this.resetSelf(),t&&(t.x||t.y)&&this.translateSelf(t.x,t.y),n&&this.rotateSelf(n),r&&(r.x&&this.skewSelf(r.x,0),r.y&&this.skewSelf(0,r.y)),!e||1===e.x&&1===e.y||this.scaleSelf(e.x,e.y),i&&(i.x||i.y)&&this.translateSelf(i.x,i.y),this}},{key:"decompose",value:function(){var t=arguments.length>0&&void 0!==arguments[0]?arguments[0]:0,n=arguments.length>1&&void 0!==arguments[1]?arguments[1]:0,r=this.m,e=r[0]*r[0]+r[1]*r[1],i=[[r[0],r[1]],[r[2],r[3]]],o=nt(e);if(0===o)return{origin:{x:r[4],y:r[5]},translate:{x:t,y:n},scale:{x:0,y:0},skew:{x:0,y:0},rotate:0};i[0][0]/=o,i[0][1]/=o;var u=r[0]*r[3]-r[1]*r[2]<0;u&&(o=-o);var a=i[0][0]*i[1][0]+i[0][1]*i[1][1];i[1][0]-=i[0][0]*a,i[1][1]-=i[0][1]*a;var l=nt(i[1][0]*i[1][0]+i[1][1]*i[1][1]);if(0===l)return{origin:{x:r[4],y:r[5]},translate:{x:t,y:n},scale:{x:o,y:0},skew:{x:0,y:0},rotate:0};i[1][0]/=l,i[1][1]/=l,a/=l;var f=0;return i[1][1]<0?(f=Z(i[1][1])*tt,i[0][1]<0&&(f=360-f)):f=J(i[0][1])*tt,u&&(f=-f),a=W(a,nt(i[0][0]*i[0][0]+i[0][1]*i[0][1]))*tt,u&&(a=-a),{origin:{x:r[4],y:r[5]},translate:{x:t,y:n},scale:{x:o,y:l},skew:{x:a,y:0},rotate:f}}},{key:"toString",value:function(){return null===this.s&&(this.s="matrix("+this.m.map(it).join(" ")+")"),this.s}}]),t}(),et=/\.0+$/;function it(t){return Number.isInteger(t)?t:t.toFixed(14).replace(et,"")}function ot(t,n,r){return t+(n-t)*r}function ut(t,n,r){var e=arguments.length>3&&void 0!==arguments[3]&&arguments[3],i={x:ot(t.x,n.x,r),y:ot(t.y,n.y,r)};return e&&(i.a=at(t,n)),i}function at(t,n){return Math.atan2(n.y-t.y,n.x-t.x)}Object.freeze({M:2,L:2,Z:0,H:1,V:1,C:6,Q:4,T:2,S:4,A:7});var lt={},ft=null;function st(n){var r=function(){if(ft)return ft;if("object"!==("undefined"==typeof document?"undefined":t(document)))return{};var n=document.createElementNS("http://www.w3.org/2000/svg","svg");return n.style.position="absolute",n.style.opacity="0.01",n.style.zIndex="-9999",n.style.left="-9999px",n.style.width="1px",n.style.height="1px",ft={svg:n}}().svg;if(!r)return function(t){return null};var e=document.createElementNS(r.namespaceURI,"path");e.setAttributeNS(null,"d",n),e.setAttributeNS(null,"fill","none"),e.setAttributeNS(null,"stroke","none"),r.appendChild(e);var i=e.getTotalLength();return function(t){var n=e.getPointAtLength(i*t);return{x:n.x,y:n.y}}}function ct(t){return lt[t]?lt[t]:lt[t]=st(t)}function ht(t,n,r,e){if(!t||!e)return!1;var i=["M",t.x,t.y];if(n&&r&&(i.push("C"),i.push(n.x),i.push(n.y),i.push(r.x),i.push(r.y)),n?!r:r){var o=n||r;i.push("Q"),i.push(o.x),i.push(o.y)}return n||r||i.push("L"),i.push(e.x),i.push(e.y),i.join(" ")}function vt(t,n,r,e){var i=arguments.length>4&&void 0!==arguments[4]?arguments[4]:1,o=ht(t,n,r,e),u=ct(o);try{return u(i)}catch(t){return null}}function yt(t,n,r,e){var i=1-e;return i*i*t+2*i*e*n+e*e*r}function dt(t,n,r,e){return 2*(1-e)*(n-t)+2*e*(r-n)}function gt(t,n,r,e){var i=arguments.length>4&&void 0!==arguments[4]&&arguments[4],o=vt(t,n,null,r,e);return o||(o={x:yt(t.x,n.x,r.x,e),y:yt(t.y,n.y,r.y,e)}),i&&(o.a=pt(t,n,r,e)),o}function pt(t,n,r,e){return Math.atan2(dt(t.y,n.y,r.y,e),dt(t.x,n.x,r.x,e))}function mt(t,n,r,e,i){var o=i*i;return i*o*(e-t+3*(n-r))+3*o*(t+r-2*n)+3*i*(n-t)+t}function bt(t,n,r,e,i){var o=1-i;return 3*(o*o*(n-t)+2*o*i*(r-n)+i*i*(e-r))}function wt(t,n,r,e,i){var o=arguments.length>5&&void 0!==arguments[5]&&arguments[5],u=vt(t,n,r,e,i);return u||(u={x:mt(t.x,n.x,r.x,e.x,i),y:mt(t.y,n.y,r.y,e.y,i)}),o&&(u.a=xt(t,n,r,e,i)),u}function xt(t,n,r,e,i){return Math.atan2(bt(t.y,n.y,r.y,e.y,i),bt(t.x,n.x,r.x,e.x,i))}function kt(t,n,r){var e=arguments.length>3&&void 0!==arguments[3]&&arguments[3];if(_t(n)){if(St(r))return gt(n,r.start,r,t,e)}else if(_t(r)){if(n.end)return gt(n,n.end,r,t,e)}else{if(n.end)return r.start?wt(n,n.end,r.start,r,t,e):gt(n,n.end,r,t,e);if(r.start)return gt(n,r.start,r,t,e)}return ut(n,r,t,e)}function At(t,n,r){var e=kt(t,n,r,!0);return e.a=function(t){var n=arguments.length>1&&void 0!==arguments[1]&&arguments[1];return n?t+Math.PI:t}(e.a)/p,e}function _t(t){return!t.type||"corner"===t.type}function St(t){return null!=t.start&&!_t(t)}var Ot=new rt;var Mt={f:Q,i:b},jt={f:Q,i:function(t,n,r){var e=b(t,n,r);return e<=0?0:e>=1?1:e}};function Ft(t,n,r,e,i,o,u,a){return n=function(t,n,r){for(var e,i,o,u=t.length-1,a={},l=0;l<=u;l++)(e=t[l]).e&&(e.e=n(e.e)),e.v&&"g"===(i=e.v).t&&i.r&&(o=r.getElementById(i.r))&&(a[i.r]=o.querySelectorAll("stop"));return a}(t,e,a),function(e){var i,o=r(e,t,Pt);return o?"c"===o.t?V(o.v):"g"===o.t?(n[o.r]&&function(t,n){for(var r=0,e=t.length;r<e;r++)t[r].setAttribute("stop-color",V(n[r]))}(n[o.r],o.v),(i=o.r)?"url(#"+i+")":"none"):"none":"none"}}function Pt(t,n,r){if(0===t)return n;if(1===t)return r;if(n&&r){var e=n.t;if(e===r.t)switch(n.t){case"c":return{t:e,v:A(t,n.v,r.v)};case"g":if(n.r===r.r)return{t:e,v:_(t,n.v,r.v),r:n.r}}}return m(t,n,r)}var Bt={fill:Ft,"fill-opacity":jt,stroke:Ft,"stroke-opacity":jt,"stroke-width":Mt,"stroke-dashoffset":{f:Q,i:b},"stroke-dasharray":{f:function(t){var n=arguments.length>1&&void 0!==arguments[1]?arguments[1]:" ";return t&&t.length>0&&(t=t.map((function(t){return Math.floor(1e4*t)/1e4}))),U(t,n)},i:function(t,n,r){var e,i,o,u=n.length,a=r.length;if(u!==a)if(0===u)n=S(u=a,0);else if(0===a)a=u,r=S(u,0);else{var l=(o=(e=u)*(i=a)/function(t,n){for(var r;n;)r=n,n=t%n,t=r;return t||1}(e,i))<0?-o:o;n=O(n,Math.floor(l/u)),r=O(r,Math.floor(l/a)),u=a=l}for(var f=[],s=0;s<u;s++)f.push(g(w(t,n[s],r[s]),6));return f}},opacity:jt,transform:function(n,r,e,i){if(!(n=function(n,r){if(!n||"object"!==t(n))return null;var e=!1;for(var i in n)n.hasOwnProperty(i)&&(n[i]&&n[i].length?(n[i].forEach((function(t){t.e&&(t.e=r(t.e))})),e=!0):delete n[i]);return e?n:null}(n,i)))return null;var o=function(t,i,o){var u=arguments.length>3&&void 0!==arguments[3]?arguments[3]:null;return n[t]?e(i,n[t],o):r&&r[t]?r[t]:u};return r&&r.a&&n.o?function(t){var r=e(t,n.o,At);return Ot.recomposeSelf(r,o("r",t,b,0)+r.a,o("k",t,x),o("s",t,x),o("t",t,x)).toString()}:function(t){return Ot.recomposeSelf(o("o",t,kt,null),o("r",t,b,0),o("k",t,x),o("s",t,x),o("t",t,x)).toString()}},r:Mt,"#size":G,"#radius":$,_:function(t,n){if(Array.isArray(t))for(var r=0;r<t.length;r++)this[t[r]]=n;else this[t]=n}};return function(t){!function(t,n){if("function"!=typeof n&&null!==n)throw new TypeError("Super expression must either be null or a function");t.prototype=Object.create(n&&n.prototype,{constructor:{value:t,writable:!0,configurable:!0}}),n&&o(t,n)}(u,t);var r=a(u);function u(){return n(this,u),r.apply(this,arguments)}return e(u,null,[{key:"build",value:function(t){var n=l(i(u),"build",this).call(this,t,Bt);n.el,n.options;var r=n.player;return function(t,n,r){t.play()}(r),r}}]),u}(L)}));
__SVGATOR_PLAYER__.build({"root":"eJsCrl7MdD21","animations":[{"duration":10000,"direction":1,"iterations":0,"fill":1,"alternate":false,"speed":1,"elements":{"eJsCrl7MdD218":{"transform":{"data":{"o":{"x":424.02731323500007,"y":432.03003025500004,"type":"corner"},"t":{"x":-421.392138185,"y":-440.30671533500004}},"keys":{"r":[{"t":0,"v":-15.892059367373006,"e":[0.42,0,0.58,1]},{"t":900,"v":6.6637507393637785,"e":[0.42,0,0.58,1]},{"t":1500,"v":-15.892059367373006,"e":[0.42,0,0.58,1]},{"t":2300,"v":6.6637507393637785,"e":[0.42,0,0.58,1]},{"t":3300,"v":-15.892059367373006,"e":[0.42,0,0.58,1]},{"t":5000,"v":6.6637507393637785,"e":[0.42,0,0.58,1]},{"t":6300,"v":-15.892059367373006,"e":[0.42,0,0.58,1]},{"t":7300,"v":6.6637507393637785,"e":[0.42,0,0.58,1]},{"t":8000,"v":-15.892059367373006,"e":[0.42,0,0.58,1]},{"t":9000,"v":6.6637507393637785,"e":[0.42,0,0.58,1]},{"t":10000,"v":-15.892059367373006,"e":[0.42,0,0.58,1]}]}}},"eJsCrl7MdD234":{"transform":{"data":{"o":{"x":427.98818864000003,"y":325.06048807,"type":"corner"},"t":{"x":-427.6279290657111,"y":-306.90432144565045}},"keys":{"r":[{"t":0,"v":0.06067073421514507,"e":[0.47,0,0.745,0.715]},{"t":300,"v":3.945630456108749,"e":[0.47,0,0.745,0.715]},{"t":500,"v":0.06067073421514507,"e":[0.47,0,0.745,0.715]},{"t":600,"v":0.06067073421514507,"e":[0.47,0,0.745,0.715]},{"t":700,"v":3.945630456108749,"e":[0.47,0,0.745,0.715]},{"t":900,"v":0.06067073421514507,"e":[0.47,0,0.745,0.715]},{"t":1300,"v":3.945630456108749,"e":[0.47,0,0.745,0.715]},{"t":1600,"v":0.06067073421514507,"e":[0.47,0,0.745,0.715]},{"t":1800,"v":0.06067073421514507,"e":[0.47,0,0.745,0.715]},{"t":1900,"v":3.945630456108749,"e":[0.47,0,0.745,0.715]},{"t":2300,"v":0.06067073421514507,"e":[0.47,0,0.745,0.715]},{"t":2500,"v":3.945630456108749,"e":[0.47,0,0.745,0.715]},{"t":2700,"v":0.06067073421514507,"e":[0.47,0,0.745,0.715]},{"t":3100,"v":3.945630456108749,"e":[0.47,0,0.745,0.715]},{"t":3200,"v":0.06067073421514507,"e":[0.47,0,0.745,0.715]},{"t":3300,"v":0.06067073421514507,"e":[0.47,0,0.745,0.715]},{"t":3700,"v":3.945630456108749,"e":[0.47,0,0.745,0.715]},{"t":3800,"v":0.06067073421514507,"e":[0.47,0,0.745,0.715]},{"t":4000,"v":3.945630456108749,"e":[0.47,0,0.745,0.715]},{"t":4200,"v":0.06067073421514507,"e":[0.47,0,0.745,0.715]},{"t":4300,"v":0.06067073421514507,"e":[0.47,0,0.745,0.715]},{"t":4400,"v":3.945630456108749,"e":[0.47,0,0.745,0.715]},{"t":4700,"v":0.06067073421514507,"e":[0.47,0,0.745,0.715]},{"t":5000,"v":3.945630456108749,"e":[0.47,0,0.745,0.715]},{"t":5100,"v":3.945630456108749,"e":[0.47,0,0.745,0.715]},{"t":5300,"v":0.06067073421514507,"e":[0.47,0,0.745,0.715]},{"t":5400,"v":0.06067073421514507,"e":[0.47,0,0.745,0.715]},{"t":5500,"v":3.945630456108749,"e":[0.47,0,0.745,0.715]},{"t":6200,"v":0.06067073421514507,"e":[0.47,0,0.745,0.715]},{"t":6500,"v":3.945630456108749,"e":[0.47,0,0.745,0.715]},{"t":6600,"v":0.06067073421514507,"e":[0.47,0,0.745,0.715]},{"t":6700,"v":3.945630456108749,"e":[0.47,0,0.745,0.715]},{"t":6800,"v":3.945630456108749,"e":[0.47,0,0.745,0.715]},{"t":7000,"v":0.06067073421514507,"e":[0.47,0,0.745,0.715]},{"t":7100,"v":0.06067073421514507,"e":[0.47,0,0.745,0.715]},{"t":7200,"v":3.945630456108749,"e":[0.47,0,0.745,0.715]},{"t":7300,"v":0.06067073421514507,"e":[0.47,0,0.745,0.715]},{"t":7400,"v":3.945630456108749,"e":[0.47,0,0.745,0.715]},{"t":7500,"v":3.945630456108749,"e":[0.47,0,0.745,0.715]},{"t":7700,"v":3.945630456108749,"e":[0.47,0,0.745,0.715]},{"t":7800,"v":0.06067073421514507,"e":[0.47,0,0.745,0.715]},{"t":7900,"v":3.945630456108749,"e":[0.47,0,0.745,0.715]},{"t":8000,"v":3.945630456108749,"e":[0.47,0,0.745,0.715]},{"t":8200,"v":0.06067073421514507,"e":[0.47,0,0.745,0.715]},{"t":8300,"v":0.06067073421514507,"e":[0.47,0,0.745,0.715]},{"t":8400,"v":3.945630456108749,"e":[0.47,0,0.745,0.715]},{"t":8500,"v":0.06067073421514507,"e":[0.47,0,0.745,0.715]},{"t":8600,"v":3.945630456108749,"e":[0.47,0,0.745,0.715]},{"t":8700,"v":3.945630456108749,"e":[0.47,0,0.745,0.715]},{"t":9100,"v":0.06067073421514507,"e":[0.47,0,0.745,0.715]},{"t":9200,"v":0.06067073421514507,"e":[0.47,0,0.745,0.715]},{"t":9300,"v":3.945630456108749,"e":[0.47,0,0.745,0.715]},{"t":9400,"v":0.06067073421514507,"e":[0.47,0,0.745,0.715]},{"t":9500,"v":3.945630456108749,"e":[0.47,0,0.745,0.715]},{"t":9600,"v":3.945630456108749,"e":[0.47,0,0.745,0.715]},{"t":9700,"v":3.945630456108749,"e":[0.47,0,0.745,0.715]},{"t":9800,"v":0.06067073421514507,"e":[0.47,0,0.745,0.715]},{"t":9900,"v":3.945630456108749,"e":[0.47,0,0.745,0.715]},{"t":10000,"v":3.945630456108749}]}}}}}],"options":{"start":"load","hover":"restart","click":"freeze","scroll":25,"font":"embed","exportedIds":"unique","svgFormat":"animated","title":"Splash Guy"},"animationSettings":{"duration":10000,"direction":1,"iterations":0,"fill":1,"alternate":false,"speed":1}})]]></script></svg>