<svg xmlns="http://www.w3.org/2000/svg" width="81.085" height="83.48" viewBox="0 0 81.085 83.48">
  <path id="white-laravel" d="M88.375,18.884a.934.934,0,0,0-.046-.111,1.39,1.39,0,0,0-.086-.2.978.978,0,0,0-.088-.116,1.526,1.526,0,0,0-.117-.153c-.037-.036-.085-.065-.126-.1a1.441,1.441,0,0,0-.147-.111L72.071,9.056a1.3,1.3,0,0,0-1.3,0L55.068,18.1h0a1.316,1.316,0,0,0-.143.113,1.252,1.252,0,0,0-.127.1,1.342,1.342,0,0,0-.117.152c-.028.039-.064.073-.088.116a1.581,1.581,0,0,0-.085.2c-.013.038-.034.072-.046.111a1.317,1.317,0,0,0-.046.339V36.387l-13.08,7.531V10.342A1.272,1.272,0,0,0,41.291,10c-.01-.039-.033-.073-.046-.111a1.36,1.36,0,0,0-.085-.2,1.467,1.467,0,0,0-.088-.117,1.526,1.526,0,0,0-.117-.153,1.543,1.543,0,0,0-.127-.1,1.6,1.6,0,0,0-.143-.111h0L24.985.173a1.3,1.3,0,0,0-1.3,0L7.984,9.209h0a1.063,1.063,0,0,0-.143.113,1.273,1.273,0,0,0-.129.1,1.329,1.329,0,0,0-.116.152c-.029.041-.065.075-.09.117a1.285,1.285,0,0,0-.083.2A1.053,1.053,0,0,0,7.376,10a1.334,1.334,0,0,0-.046.342V64.1a1.3,1.3,0,0,0,.652,1.133L39.369,83.3a1.437,1.437,0,0,0,.217.088c.034.013.067.033.1.042a1.291,1.291,0,0,0,.668,0c.033-.008.06-.026.09-.036a1.4,1.4,0,0,0,.228-.095l31.4-18.072a1.3,1.3,0,0,0,.652-1.133V46.936l15.039-8.659a1.3,1.3,0,0,0,.652-1.141V19.225A1.407,1.407,0,0,0,88.375,18.884ZM24.331,2.816h0l13.075,7.525L24.329,17.87,11.256,10.342ZM38.72,12.6V45.423l-7.587,4.368L25.64,52.954V20.135l7.587-4.368Zm0,67.3L9.945,63.342V12.605l5.493,3.16,7.585,4.37V55.219a1.132,1.132,0,0,0,.02.147,1.3,1.3,0,0,0,.026.192h0a.965.965,0,0,0,.062.147,1.04,1.04,0,0,0,.068.163h0a1.394,1.394,0,0,0,.1.127,1.243,1.243,0,0,0,.108.137h0c.038.036.085.062.126.095a1.457,1.457,0,0,0,.14.108h0L38.7,64.842Zm1.3-17.311L26.971,55.2l13.711-7.893,15.043-8.659L68.789,46.17,59.2,51.642Zm30.085.745L41.333,79.909V64.858L62.647,52.7l7.463-4.264Zm0-19.424L64.616,40.76,57.03,36.392V21.486l5.493,3.163,7.587,4.371Zm1.3-17.166L58.337,19.218l13.076-7.526,13.073,7.525Zm1.3,17.166V29.021l7.6-4.371,5.491-3.163v14.9h0Z" transform="translate(-7.33 0.002)" fill="#fff"/>
</svg>
