<svg xmlns="http://www.w3.org/2000/svg" width="80.718" height="83" viewBox="0 0 80.718 83">
  <path id="white-wordpress" d="M48.359,8C26.113,8,8,26.608,8,49.5,8,72.375,26.113,91,48.359,91S88.718,72.375,88.718,49.5C88.718,26.608,70.6,8,48.359,8ZM12.068,49.5a37.947,37.947,0,0,1,3.141-15.178L32.524,83.085A37.445,37.445,0,0,1,12.068,49.5Zm36.29,37.317a35.226,35.226,0,0,1-10.252-1.523L48.993,52.763,60.141,84.189a5.1,5.1,0,0,0,.26.519A35.431,35.431,0,0,1,48.359,86.817Zm5-54.8c2.181-.117,4.15-.351,4.15-.351a1.546,1.546,0,0,0-.228-3.079s-5.875.469-9.667.469c-3.564,0-9.553-.469-9.553-.469-1.953-.117-2.181,2.962-.228,3.079,0,0,1.855.234,3.808.351l5.647,15.931L39.343,72.425,26.129,32.013c2.181-.117,4.15-.351,4.15-.351a1.546,1.546,0,0,0-.228-3.079s-5.875.469-9.667.469c-.683,0-1.481-.017-2.343-.05a35.668,35.668,0,0,1,54.826-7.028,4.473,4.473,0,0,0-.472-.033c-3.564,0-6.086,3.2-6.086,6.627,0,3.079,1.725,5.673,3.564,8.752a19.975,19.975,0,0,1,2.994,10.291c0,3.2-1.188,6.894-2.767,12.065L66.488,72.107,53.355,32.013ZM66.6,81.746,77.684,48.8a36.156,36.156,0,0,0,2.767-13.37,28.229,28.229,0,0,0-.244-3.832A37.992,37.992,0,0,1,84.649,49.5,37.469,37.469,0,0,1,66.6,81.746Z" transform="translate(-8 -8)" fill="#fff"/>
</svg>
