<svg xmlns="http://www.w3.org/2000/svg" width="104.779" height="83.81" viewBox="0 0 104.779 83.81">
  <path id="white-code" d="M45.636,83.766l-9.986-2.9a1.967,1.967,0,0,1-1.342-2.439L56.653,1.455A1.967,1.967,0,0,1,59.093.113l9.986,2.9A1.967,1.967,0,0,1,70.421,5.45L48.075,82.423A1.962,1.962,0,0,1,45.636,83.766ZM26.974,65.4l7.121-7.6a1.964,1.964,0,0,0-.131-2.816L19.132,41.939,33.964,28.892a1.951,1.951,0,0,0,.131-2.816l-7.121-7.6a1.966,1.966,0,0,0-2.783-.082L.6,40.5a1.951,1.951,0,0,0,0,2.865L24.191,65.48a1.952,1.952,0,0,0,2.783-.082Zm53.564.1,23.59-22.116a1.951,1.951,0,0,0,0-2.865L80.538,18.382a1.982,1.982,0,0,0-2.783.082l-7.121,7.6a1.964,1.964,0,0,0,.131,2.816L85.6,41.939,70.765,54.986a1.951,1.951,0,0,0-.131,2.816l7.121,7.6A1.967,1.967,0,0,0,80.538,65.5Z" transform="translate(0.025 -0.037)" fill="#fff"/>
</svg>
