<svg xmlns="http://www.w3.org/2000/svg" width="51.875" height="83" viewBox="0 0 51.875 83">
  <path id="white-mobile" d="M44.094,0H7.781A7.783,7.783,0,0,0,0,7.781V75.219A7.783,7.783,0,0,0,7.781,83H44.094a7.783,7.783,0,0,0,7.781-7.781V7.781A7.783,7.783,0,0,0,44.094,0ZM25.937,77.812a5.187,5.187,0,1,1,5.188-5.187A5.182,5.182,0,0,1,25.937,77.812ZM44.094,60.3a1.951,1.951,0,0,1-1.945,1.945H9.727A1.951,1.951,0,0,1,7.781,60.3V9.727A1.951,1.951,0,0,1,9.727,7.781H42.148a1.951,1.951,0,0,1,1.945,1.945Z" fill="#fff"/>
</svg>
