<svg xmlns="http://www.w3.org/2000/svg" width="124" height="124" viewBox="0 0 124 124">
  <path id="wordpress-simple-brands_1_" data-name="wordpress-simple-brands (1)" d="M70,8a62,62,0,1,0,62,62A62.069,62.069,0,0,0,70,8ZM14.25,70a55.36,55.36,0,0,1,4.825-22.675l26.6,72.85A55.792,55.792,0,0,1,14.25,70ZM70,125.75a55.531,55.531,0,0,1-15.75-2.275l16.725-48.6L88.1,121.825a7.534,7.534,0,0,0,.4.775A55.811,55.811,0,0,1,70,125.75Zm7.675-81.875c3.35-.175,6.375-.525,6.375-.525a2.307,2.307,0,0,0-.35-4.6s-9.025.7-14.85.7c-5.475,0-14.675-.7-14.675-.7-3-.175-3.35,4.425-.35,4.6,0,0,2.85.35,5.85.525l8.675,23.8L56.15,104.25,35.85,43.875c3.35-.175,6.375-.525,6.375-.525a2.307,2.307,0,0,0-.35-4.6s-9.025.7-14.85.7c-1.05,0-2.275-.025-3.6-.075a55.749,55.749,0,0,1,84.225-10.5,7.063,7.063,0,0,0-.725-.05c-5.475,0-9.35,4.775-9.35,9.9,0,4.6,2.65,8.475,5.475,13.075,2.125,3.7,4.6,8.475,4.6,15.375,0,4.775-1.825,10.3-4.25,18.025l-5.55,18.575-20.175-59.9Zm20.35,74.3L115.05,68.95c3.175-7.95,4.25-14.3,4.25-19.975a41.031,41.031,0,0,0-.375-5.725,55.753,55.753,0,0,1-20.9,74.925Z" transform="translate(-8 -8)" fill="#88c0d0"/>
</svg>
