<svg xmlns="http://www.w3.org/2000/svg" width="91" height="91" viewBox="0 0 91 91">
  <g id="Group_48" data-name="Group 48" transform="translate(7519 -5974)">
    <circle id="Ellipse_87" data-name="Ellipse 87" cx="45.5" cy="45.5" r="45.5" transform="translate(-7519 5974)" fill="#fff"/>
    <path id="php-brands" d="M37,89.642c19.818,0,35.057,8.348,35.057,17.517S56.806,124.677,37,124.677,1.942,116.329,1.942,107.16,17.193,89.642,37,89.642M37,87.7c-20.431,0-37,8.707-37,19.46s16.569,19.46,37,19.46,37-8.707,37-19.46S57.431,87.7,37,87.7ZM25.229,105.6c-.913,4.683-4.139,4.2-8.105,4.2l1.584-8.163c4.394,0,7.377-.474,6.521,3.966ZM11.262,118.063h4.243l1.006-5.18c4.752,0,7.7.347,10.429-2.208,3.018-2.775,3.8-7.712,1.653-10.187-1.122-1.295-2.925-1.931-5.377-1.931H15.043Zm21.471-24.7h4.22l-1.006,5.18c3.642,0,7.018-.266,8.649,1.237,1.711,1.573.89,3.584-.96,13.077H39.359c1.781-9.181,2.116-9.944,1.468-10.637-.624-.671-2.047-.532-5.481-.532L33.173,112.86h-4.22l3.781-19.494ZM58.39,105.6c-.925,4.752-4.243,4.2-8.105,4.2l1.584-8.163C56.286,101.633,59.246,101.159,58.39,105.6ZM44.423,118.063h4.255l1.006-5.18c4.995,0,7.758.289,10.429-2.208,3.018-2.775,3.8-7.712,1.653-10.187-1.122-1.295-2.925-1.931-5.377-1.931H48.215Z" transform="translate(-7510 5912.3)" fill="#b48ead"/>
  </g>
</svg>
