<svg xmlns="http://www.w3.org/2000/svg" width="2042.474" height="324.627" viewBox="0 0 2042.474 324.627">
  <g id="Group_7" data-name="Group 7" transform="translate(15.762 -4340.099)">
    <path id="Path_1180" data-name="Path 1180" d="M-16.464-36.008s156.2-96.2,421.749,11.186c232.074,98.434,336.953,131.548,566.8,35.794C1226.469-74.484,1429.618-35.371,1561.191.23c207.528,56.153,377.12-99.1,377.12-99.1" transform="translate(0.964 4439.34)" fill="none" stroke="#d8dee9" stroke-width="1"/>
    <path id="Path_1181" data-name="Path 1181" d="M-28,192.179S70.206,88.672,322.417,11.614s379.432-26.56,383.9-24.551c124,31.383,281.278,121.062,446.392,124.766,106.051,2.379,214.446-26.453,332.562-86.823,301.314-154,524.509,249.979,524.509,249.979" transform="translate(16.5 4389.5)" fill="none" stroke="#d8dee9" stroke-width="1"/>
  </g>
</svg>
