<svg xmlns="http://www.w3.org/2000/svg" width="91" height="91" viewBox="0 0 91 91">
  <g id="Group_46" data-name="Group 46" transform="translate(7235 -5827)">
    <circle id="Ellipse_79" data-name="Ellipse 79" cx="45.5" cy="45.5" r="45.5" transform="translate(-7235 5827)" fill="#fff"/>
    <path id="code-solid" d="M27.761,50.987l-6.077-1.763a1.2,1.2,0,0,1-.817-1.484L34.465.9A1.2,1.2,0,0,1,35.949.083l6.077,1.763a1.2,1.2,0,0,1,.817,1.484l-13.6,46.84A1.194,1.194,0,0,1,27.761,50.987ZM16.4,39.81l4.333-4.622a1.2,1.2,0,0,0-.08-1.713l-9.025-7.939L20.658,17.6a1.187,1.187,0,0,0,.08-1.713L16.4,11.26a1.2,1.2,0,0,0-1.693-.05L.356,24.659a1.187,1.187,0,0,0,0,1.743L14.711,39.86a1.188,1.188,0,0,0,1.693-.05ZM49,39.87,63.354,26.412a1.188,1.188,0,0,0,0-1.743L49,11.2a1.206,1.206,0,0,0-1.693.05l-4.333,4.622a1.2,1.2,0,0,0,.08,1.713l9.025,7.949-9.025,7.939a1.187,1.187,0,0,0-.08,1.713l4.333,4.622A1.2,1.2,0,0,0,49,39.87Z" transform="translate(-7220.975 5846.963)" fill="#a3be8c"/>
  </g>
</svg>
