<svg xmlns="http://www.w3.org/2000/svg" width="139" height="139" viewBox="0 0 139 139">
  <g id="Group_41" data-name="Group 41" transform="translate(7681 -5853)">
    <circle id="Ellipse_89" data-name="Ellipse 89" cx="69.5" cy="69.5" r="69.5" transform="translate(-7681 5853)" fill="#fff"/>
    <path id="node-brands" d="M57.746,131.578a2.412,2.412,0,0,1-1.114-.292L53.127,129.2c-.529-.292-.274-.4-.091-.456a6.393,6.393,0,0,0,1.588-.73.314.314,0,0,1,.256.018l2.7,1.607a.349.349,0,0,0,.329,0l10.552-6.1a.346.346,0,0,0,.164-.292V111.076a.31.31,0,0,0-.164-.292L57.91,104.7a.349.349,0,0,0-.329,0l-10.552,6.079a.329.329,0,0,0-.164.292v12.177a.339.339,0,0,0,.164.274l2.885,1.661c1.57.785,2.538-.146,2.538-1.059V112.1a.308.308,0,0,1,.31-.31h1.333a.308.308,0,0,1,.31.31v12.031c0,2.1-1.132,3.286-3.122,3.286a4.525,4.525,0,0,1-2.428-.657L46.08,125.17a2.255,2.255,0,0,1-1.114-1.917V111.076a2.194,2.194,0,0,1,1.114-1.917l10.552-6.1a2.265,2.265,0,0,1,2.209,0l10.552,6.1a2.255,2.255,0,0,1,1.114,1.917v12.177a2.194,2.194,0,0,1-1.114,1.917l-10.552,6.1a2.021,2.021,0,0,1-1.1.31Zm8.526-12.013c0-2.282-1.534-2.885-4.783-3.323-3.286-.438-3.615-.657-3.615-1.424,0-.639.274-1.479,2.7-1.479,2.173,0,2.976.475,3.3,1.935a.293.293,0,0,0,.292.237h1.369a.3.3,0,0,0,.219-.091.288.288,0,0,0,.073-.237c-.219-2.519-1.88-3.688-5.258-3.688-3.012,0-4.8,1.278-4.8,3.4,0,2.319,1.789,2.939,4.674,3.231,3.451.347,3.724.84,3.724,1.515,0,1.187-.949,1.68-3.177,1.68-2.793,0-3.414-.694-3.615-2.081a.3.3,0,0,0-.31-.256H55.7a.308.308,0,0,0-.31.31c0,1.771.968,3.889,5.587,3.889C64.355,123.18,66.272,121.866,66.272,119.565Zm9.95-9.147a2.026,2.026,0,1,1-2.026-2.026A2.01,2.01,0,0,1,76.222,110.419Zm-.329,0a1.707,1.707,0,1,0-1.716,1.716A1.738,1.738,0,0,0,75.893,110.419Zm-.822,1.132H74.6c-.018-.11-.091-.694-.091-.712-.037-.128-.073-.2-.237-.2h-.4v.913h-.438v-2.282h.785c.274,0,.8,0,.8.6a.535.535,0,0,1-.438.566c.31.018.329.219.383.511A2.544,2.544,0,0,0,75.072,111.551Zm-.511-1.607c0-.31-.219-.31-.329-.31h-.365v.639h.347A.308.308,0,0,0,74.56,109.944ZM25.066,83.928a1.328,1.328,0,0,0-.675-1.168L13.2,76.315a1.444,1.444,0,0,0-.621-.183h-.11a1.286,1.286,0,0,0-.621.183L.675,82.76A1.349,1.349,0,0,0,0,83.928l.018,17.344a.7.7,0,0,0,.329.584.643.643,0,0,0,.675,0l6.645-3.816a1.372,1.372,0,0,0,.675-1.168V88.766A1.349,1.349,0,0,1,9.019,87.6l2.83-1.625a1.3,1.3,0,0,1,.675-.183,1.253,1.253,0,0,1,.675.183l2.83,1.625a1.349,1.349,0,0,1,.675,1.168v8.106a1.349,1.349,0,0,0,.675,1.168l6.645,3.816a.643.643,0,0,0,.675,0,.675.675,0,0,0,.329-.584l.037-17.344ZM86.263,65V97.2a1.349,1.349,0,0,1-.675,1.168L74.4,104.832a1.371,1.371,0,0,1-1.351,0L61.854,98.369a1.349,1.349,0,0,1-.676-1.168V84.275a1.349,1.349,0,0,1,.676-1.168l11.191-6.463a1.371,1.371,0,0,1,1.351,0l2.793,1.607a.478.478,0,0,0,.712-.4V60.687a.671.671,0,0,1,1-.584l6.664,3.724A1.323,1.323,0,0,1,86.263,65Zm-8.4,23.533a.346.346,0,0,0-.164-.292l-3.834-2.227a.387.387,0,0,0-.347,0l-3.834,2.227a.31.31,0,0,0-.164.292v4.436a.346.346,0,0,0,.164.292l3.834,2.209a.349.349,0,0,0,.329,0l3.834-2.209a.31.31,0,0,0,.164-.292V88.529Zm38.3-.128a1.349,1.349,0,0,0,.675-1.168V84.111a1.349,1.349,0,0,0-.675-1.168l-11.118-6.463a1.371,1.371,0,0,0-1.351,0L92.507,82.942a1.349,1.349,0,0,0-.675,1.168V97.036a1.328,1.328,0,0,0,.675,1.168l11.118,6.335a1.336,1.336,0,0,0,1.333,0l6.718-3.743a.67.67,0,0,0,0-1.168l-11.264-6.463a.675.675,0,0,1-.347-.584V88.529a.675.675,0,0,1,.347-.584l3.505-2.026a.643.643,0,0,1,.675,0l3.505,2.026a.716.716,0,0,1,.347.584v3.177a.685.685,0,0,0,1.022.584l6.7-3.889Zm-14.112.639a.278.278,0,0,0-.128.219v2.483a.253.253,0,0,0,.128.219l2.154,1.241a.219.219,0,0,0,.256,0l2.154-1.241a.278.278,0,0,0,.128-.219V89.259a.253.253,0,0,0-.128-.219L104.465,87.8a.219.219,0,0,0-.256,0ZM55.646,96.982V84.129a1.385,1.385,0,0,0-.712-1.168L43.78,76.534a1.37,1.37,0,0,0-1.351,0L31.274,82.961a1.362,1.362,0,0,0-.712,1.168V96.982a1.408,1.408,0,0,0,.73,1.168l11.173,6.426a1.326,1.326,0,0,0,1.351,0L54.953,98.15a1.357,1.357,0,0,0,.657-.858,1.608,1.608,0,0,0,.037-.31Zm-13.565-22.8-.146.091h.2Zm13.912,23.77-.073-.128v.164l.073-.037Z" transform="translate(-7670 5826.985)" fill="#a3be8c"/>
  </g>
</svg>
