<svg xmlns="http://www.w3.org/2000/svg" width="91" height="91" viewBox="0 0 91 91">
  <g id="Group_49" data-name="Group 49" transform="translate(7280 -6029)">
    <circle id="Ellipse_84" data-name="Ellipse 84" cx="45.5" cy="45.5" r="45.5" transform="translate(-7280 6029)" fill="#fff"/>
    <path id="mobile-alt-solid_1_" data-name="mobile-alt-solid (1)" d="M32.194,0H5.681A5.683,5.683,0,0,0,0,5.681V54.919A5.683,5.683,0,0,0,5.681,60.6H32.194a5.683,5.683,0,0,0,5.681-5.681V5.681A5.683,5.683,0,0,0,32.194,0ZM18.937,56.812a3.787,3.787,0,1,1,3.788-3.787A3.783,3.783,0,0,1,18.937,56.812ZM32.194,44.03a1.424,1.424,0,0,1-1.42,1.42H7.1a1.424,1.424,0,0,1-1.42-1.42V7.1A1.424,1.424,0,0,1,7.1,5.681H30.773a1.424,1.424,0,0,1,1.42,1.42Z" transform="translate(-7253 6044.4)" fill="#4c566a"/>
  </g>
</svg>
