<svg xmlns="http://www.w3.org/2000/svg" width="91" height="91" viewBox="0 0 91 91">
  <g id="Group_58" data-name="Group 58" transform="translate(6097 -5826)">
    <circle id="Ellipse_93" data-name="Ellipse 93" cx="45.5" cy="45.5" r="45.5" transform="translate(-6097 5826)" fill="#fff"/>
    <path id="less-brands" d="M62.424,129.264c0-2.086.326-3.317.326-5.555,0-3.479-1.282-4.6-4.12-4.6H56.544v2.462h.641c1.445,0,1.76.478,1.76,2.248,0,1.658-.163,3.317-.163,5.239,0,2.462.8,3.418,2.4,3.795v.163c-1.607.376-2.4,1.333-2.4,3.795,0,1.923.163,3.479.163,5.239,0,1.821-.376,2.3-1.76,2.3v.051h-.641v2.564h2.086c2.828,0,4.12-1.119,4.12-4.6,0-2.3-.326-3.479-.326-5.555,0-1.119.692-2.3,2.777-2.4v-2.777C63.116,131.563,62.424,130.383,62.424,129.264Zm-10.743,3.256c-1.607-.641-3.1-1.017-3.1-2.086,0-.8.641-1.282,1.821-1.282a5.739,5.739,0,0,1,3.418,1.333l2.136-2.828a9.069,9.069,0,0,0-5.616-2.086c-3.632,0-6.094,2.086-6.094,5.026,0,2.615,2.3,3.958,4.222,4.7,1.658.641,3.266,1.18,3.266,2.248,0,.8-.641,1.333-2.086,1.333a6.738,6.738,0,0,1-4.12-1.658l-2.136,3.1a10.32,10.32,0,0,0,6.094,2.248c4.273,0,6.572-2.248,6.572-5.189S53.766,133.211,51.681,132.519Zm-36.513,6.043c-.376,0-.855-.326-.855-1.333V119.1H6.723c-2.889,0-4.171,1.119-4.171,4.6,0,2.3.326,3.581.326,5.555,0,1.119-.692,2.3-2.777,2.4v2.777c2.086.051,2.777,1.231,2.777,2.35,0,1.974-.326,3.154-.326,5.453,0,3.479,1.282,4.6,4.12,4.6H8.758v-2.462H8.117c-1.333,0-1.76-.539-1.76-2.3s.163-3.266.163-5.239c0-2.462-.8-3.418-2.4-3.795v-.163c1.607-.376,2.4-1.333,2.4-3.795,0-1.923-.163-3.479-.163-5.239s.376-2.248,1.76-2.248H9.551v15.342c0,3.266,1.119,5.4,4.385,5.4a7.008,7.008,0,0,0,2.4-.376l-.539-3.479a2.136,2.136,0,0,1-.631.081Zm23.573-6.043c-1.658-.641-3.154-1.017-3.154-2.086,0-.8.641-1.282,1.821-1.282a5.739,5.739,0,0,1,3.418,1.333l2.136-2.828a9.069,9.069,0,0,0-5.616-2.086c-3.632,0-6.094,2.086-6.094,5.026,0,2.615,2.3,3.958,4.222,4.7,1.658.641,3.266,1.18,3.266,2.248,0,.8-.641,1.333-2.086,1.333a6.738,6.738,0,0,1-4.12-1.658l-2.086,3.1a10.32,10.32,0,0,0,6.094,2.248c4.273,0,6.572-2.248,6.572-5.189S40.825,133.211,38.74,132.519Zm-15.769-7c-3.907,0-7.64,3.266-7.539,8.393,0,5.29,3.479,8.393,8.068,8.393a10.6,10.6,0,0,0,5.718-1.821l-1.607-2.828a6.711,6.711,0,0,1-3.479,1.017,3.9,3.9,0,0,1-4.222-3.479h9.685a14.079,14.079,0,0,0,.163-1.974C29.817,128.887,27.457,125.52,22.971,125.52Zm-3.052,6.735c.326-2.136,1.607-3.154,3.1-3.154,1.923,0,2.676,1.333,2.676,3.154Z" transform="translate(-6084.099 5738.9)" fill="#a3be8c"/>
  </g>
</svg>
