<svg id="Group_11" data-name="Group 11" xmlns="http://www.w3.org/2000/svg" width="55.76" height="16.707" viewBox="0 0 55.76 16.707">
  <path id="Path_1197" data-name="Path 1197" d="M606.141,232.194a1.145,1.145,0,0,1-1.219-1.219,13.05,13.05,0,0,0-13.038-13.038,13.209,13.209,0,0,0-11.332,6.58,1.255,1.255,0,0,1-2.193-1.219,15.719,15.719,0,0,1,13.4-7.8A15.5,15.5,0,0,1,607.2,230.975a1.06,1.06,0,0,1-1.06,1.219Z" transform="translate(-578.2 -215.489)" fill="#d8dee9"/>
  <path id="Path_1196" data-name="Path 1196" d="M601.349,232.2a1.145,1.145,0,0,1-1.219-1.219A15.451,15.451,0,0,1,629.01,223.3a1.255,1.255,0,1,1-2.193,1.219,13.209,13.209,0,0,0-11.332-6.58,13.05,13.05,0,0,0-13.075,13.038,1.06,1.06,0,0,1-1.06,1.219Z" transform="translate(-573.408 -215.491)" fill="#d8dee9"/>
</svg>
