<svg xmlns="http://www.w3.org/2000/svg" width="91" height="91" viewBox="0 0 91 91">
  <g id="Group_52" data-name="Group 52" transform="translate(6636 -6045)">
    <circle id="Ellipse_83" data-name="Ellipse 83" cx="45.5" cy="45.5" r="45.5" transform="translate(-6636 6045)" fill="#fff"/>
    <path id="store-solid" d="M55.548,10.933,49.565,1.383A2.951,2.951,0,0,0,47.067,0H9.823a2.951,2.951,0,0,0-2.5,1.383L1.342,10.933c-3.088,4.932-.35,11.791,5.421,12.574a9.58,9.58,0,0,0,1.263.083,9.1,9.1,0,0,0,6.8-3.051,9.11,9.11,0,0,0,13.607,0,9.11,9.11,0,0,0,13.607,0,9.133,9.133,0,0,0,6.8,3.051,9.478,9.478,0,0,0,1.263-.083C55.9,22.734,58.646,15.875,55.548,10.933ZM48.865,26.55a11.7,11.7,0,0,1-2.72-.35v9.2h-35.4V26.2a12.213,12.213,0,0,1-2.72.35,12.439,12.439,0,0,1-1.659-.111,11.594,11.594,0,0,1-1.512-.332V44.25A2.947,2.947,0,0,0,7.8,47.2H49.1a2.947,2.947,0,0,0,2.95-2.95V26.108a9.412,9.412,0,0,1-1.512.332,12.82,12.82,0,0,1-1.678.111Z" transform="translate(-6619.056 6067)" fill="#b48ead"/>
  </g>
</svg>
