<svg xmlns="http://www.w3.org/2000/svg" width="91" height="91" viewBox="0 0 91 91">
  <g id="Group_39" data-name="Group 39" transform="translate(7776 -5813)">
    <circle id="Ellipse_88" data-name="Ellipse 88" cx="45.5" cy="45.5" r="45.5" transform="translate(-7776 5813)" fill="#fff"/>
    <path id="yoast-brands" d="M8.078,24.955H24.535l-.619,1.672H8.078a6.3,6.3,0,0,0-6.362,6.22V51.021c0,3.132,2.2,6.22,7.432,6.22v1.69H8.078A8.025,8.025,0,0,1,0,51.012V32.847A7.975,7.975,0,0,1,8.078,24.955ZM28.349,20h5.884C21.509,53.454,21.341,55.294,17.89,58.869a9.947,9.947,0,0,1-6.928,2.893V57.241a6.663,6.663,0,0,0,5.716-6.662c0-1.778.053-1.115-7.264-19.749h5.433l4.459,13.856L28.349,20Zm11.29,12.52V58.931H20.7a14.71,14.71,0,0,0,1.071-1.716H37.922V32.52c0-2.876-1.513-4.592-4.265-5.565L34.25,25.4C37.94,26.6,39.639,29.211,39.639,32.52Z" transform="translate(-7750 5818)" fill="#88c0d0"/>
  </g>
</svg>
