<svg xmlns="http://www.w3.org/2000/svg" width="91" height="91" viewBox="0 0 91 91">
  <g id="Group_59" data-name="Group 59" transform="translate(7350 -5787)">
    <g id="Group_44" data-name="Group 44">
      <circle id="Ellipse_86" data-name="Ellipse 86" cx="45.5" cy="45.5" r="45.5" transform="translate(-7350 5787)" fill="#fff"/>
    </g>
    <path id="js-brands" d="M0,32V79H47V32ZM25.577,68.656c0,4.574-2.686,6.662-6.6,6.662a6.861,6.861,0,0,1-6.63-4.039l3.6-2.172c.692,1.227,1.322,2.266,2.843,2.266,1.448,0,2.371-.567,2.371-2.78V53.58h4.417Zm10.449,6.662c-4.1,0-6.756-1.951-8.047-4.511l3.6-2.077a4.82,4.82,0,0,0,4.354,2.686c1.825,0,3-.913,3-2.182,0-1.511-1.2-2.046-3.221-2.938l-1.1-.472c-3.189-1.353-5.3-3.063-5.3-6.662,0-3.315,2.528-5.833,6.463-5.833a6.5,6.5,0,0,1,6.274,3.536l-3.441,2.2a3,3,0,0,0-2.843-1.888,1.917,1.917,0,0,0-2.109,1.888c0,1.322.818,1.857,2.717,2.686l1.1.472c3.756,1.605,5.865,3.252,5.865,6.945,0,3.966-3.126,6.148-7.312,6.148Z" transform="translate(-7328 5777)" fill="#d08770"/>
  </g>
</svg>
