<svg xmlns="http://www.w3.org/2000/svg" width="139" height="139" viewBox="0 0 139 139">
  <g id="Group_57" data-name="Group 57" transform="translate(6221 -5893)">
    <circle id="Ellipse_94" data-name="Ellipse 94" cx="69.5" cy="69.5" r="69.5" transform="translate(-6221 5893)" fill="#fff"/>
    <path id="gulp-brands" d="M51.455,77.564l-2.8,4.877-.912,15.9c0,1.764-5.611,3.192-12.51,3.192s-12.51-1.427-12.51-3.192L21.578,82.6l-2.954-5.036C26.792,80.994,43.6,80.875,51.455,77.564ZM12.6,27.346l2.7,24.881c1.17-3.965,4.124-9.318,7.93-10.944a3.907,3.907,0,0,1,3.707.178,4.9,4.9,0,0,1,2,2.339c.238,1.289-.4,1.8-.892,1.8-.595,0-1.051-.912-1.348-1.447-.813-1.447-2.042-1.507-3.351-.555a13.565,13.565,0,0,0-3.39,4.1A23.5,23.5,0,0,0,17.574,53.3a7.052,7.052,0,0,0-.119,3.945,1.035,1.035,0,0,0,.971.714c.991,0,2.439-1.308,3.132-2a15.058,15.058,0,0,0,2.478-3.172l1.031-3.073c.515-1.348,1.963-1.11,1.963,0,0,2.022-.734,2.7-1.983,6.879C23.9,60.454,23.541,61.7,23.541,61.7c-.139.555-.674,1.487-1.249,1.487a.566.566,0,0,1-.515-.238,2.589,2.589,0,0,1-.159-1.249c.04-.634,1.249-4.4,1.447-5-.4.436-.813.872-1.269,1.308-1.071,1.011-2.8,2.339-4.262,2.339a2.419,2.419,0,0,1-1.527-.476L17.514,75.66c.4.991,7.772,3.39,17.486,3.39,9.734,0,17.109-2.419,17.486-3.39l2.161-18.755a15.665,15.665,0,0,1-3.886,2.934c-1.071.456-3.45.753-3.45-1.13,0-1.031,1.8-2.934,2.855-4.262a4.017,4.017,0,0,0,.932-1.606c0-.575-1.19-.436-2.32.5a11.387,11.387,0,0,0-1.725,1.923,15.894,15.894,0,0,0-1.685,3.073,46.606,46.606,0,0,0-1.8,4.362c-.991,2.637-.833,2.339-1.031,2.776a1.932,1.932,0,0,1-.793.892,1.2,1.2,0,0,1-1.209-.059.843.843,0,0,1-.258-.734,2.461,2.461,0,0,1,.059-.535c.3-1.209,1.546-3.588,2.974-6.8.317-.734.2-.515.159-.456a10.332,10.332,0,0,1-2.855,2.082c-1.15.515-2.577.515-2.875-.813-.02-.079-.02-.159-.04-.238-2.339,1.824-4.818,2.32-3.965-1.606a5.288,5.288,0,0,1-4.441,2.954,1.632,1.632,0,0,1-1.7-1.011c-.456-1.09.258-2.954.912-4.718.337-.892.793-1.963,1.408-3.212.317-.674.833-1.071,1.507-.892a1.535,1.535,0,0,1,.317.139c.515.357.317.892.059,1.427a21.726,21.726,0,0,0-1.844,4.124c-.178.654-.4,1.784.3,1.784a2.293,2.293,0,0,0,1.368-.476,8.477,8.477,0,0,0,2.2-2.676,13.537,13.537,0,0,0,1.11-2.439,6.752,6.752,0,0,1,.357-.952c.218-.5.515-1.011,1.031-1.011a.78.78,0,0,1,.634.3,1.308,1.308,0,0,1,.079,1.368c-.4,1.11-.932,2.1-1.368,3.311a7.313,7.313,0,0,0-.535,2.32c0,.674.734.515,1.348.238a6.12,6.12,0,0,0,1.348-.892c.238-.971.178-.753,5.234-13.521a1.3,1.3,0,0,1,1.209-.932,1.068,1.068,0,0,1,.634.218,1.135,1.135,0,0,1,.2,1.229c-.139.377-.119.258-.892,2.082-1.031,2.4-1.7,4.124-2.617,6.324-.377.912-1.527,3.747-1.725,4.421-.119.436-.258,1.15.2,1.15,1.071,0,3.826-2.6,4.58-3.37a.4.4,0,0,1,.178-.119c.119-.377.238-.734.337-1.09a7.491,7.491,0,0,1,1.051-2.24.708.708,0,0,1,.535-.317c.555,0,.833.238.833.793a6.667,6.667,0,0,1-.218,1.229q.416-.446.892-.892c2.974-2.756,5.1-1.348,5.1.04,0,1.467-1.764,3.509-2.736,4.639a6.808,6.808,0,0,0-.991,1.269c0,.258.178.357.436.357.4,0,1.269-.694,1.586-.932.991-.773,2.339-1.963,3.291-2.8l2.934-27.121c-6.047,3.39-39.175,3.41-45.262.04Zm45.539-1.685c0,4.163-45.837,4.163-45.837,0,0-1.745,10.27-3.152,22.918-3.152,1.784,0,3.529.02,5.214.079l2.5-9.655L55.083.145c.278-.278,1.15-.04,1.963.694S58.355,2.405,58.1,2.683l-.02.02L46.717,14.7l-1.983,8.069C52.645,23.281,58.137,24.372,58.137,25.661Zm-13.759.912c0-.159-.178-.3-.5-.416l-.04.159c0,.258-.991.476-2.2.476s-2.2-.218-2.2-.476a.073.073,0,0,1,.02-.059l.04-.139c-.357.119-.595.278-.595.456,0,.416,1.229.734,2.716.734,1.527.02,2.756-.317,2.756-.734Z" transform="translate(-6186.3 5911.967)" fill="#ebcb8b"/>
  </g>
</svg>
