<svg xmlns="http://www.w3.org/2000/svg" width="139" height="139" viewBox="0 0 139 139">
  <g id="Group_53" data-name="Group 53" transform="translate(6383 -5954)">
    <circle id="Ellipse_91" data-name="Ellipse 91" cx="69.5" cy="69.5" r="69.5" transform="translate(-6383 5954)" fill="#fff"/>
    <path id="bootstrap-brands" d="M43.851,74c0,6.362-5.959,6.215-6.589,6.215H25.127V67.956H37.262C43.647,67.956,43.851,72.741,43.851,74ZM36.328,63.024c.1,0,5.767.15,5.767-5.447,0-2.328-.527-5.381-5.767-5.381h-11.2V63.024ZM67.209,43.2V88.007a11.235,11.235,0,0,1-11.2,11.2H11.2A11.235,11.235,0,0,1,0,88.007V43.2A11.235,11.235,0,0,1,11.2,32H56.007A11.235,11.235,0,0,1,67.209,43.2ZM50.715,74.885c0-3.236-1-8.745-7.359-10.1v-.11a8.6,8.6,0,0,0,5.6-8.347c0-1.05.3-9.718-11.642-9.718H18.264V85.811c19.237,0,20.983.252,24.543-.857C44.939,84.291,50.715,82.257,50.715,74.885Z" transform="translate(-6347 5958)" fill="#bf616a"/>
  </g>
</svg>
