<svg xmlns="http://www.w3.org/2000/svg" width="247" height="247" viewBox="0 0 247 247">
  <g id="Group_50" data-name="Group 50" transform="translate(6714 -5567)">
    <circle id="Ellipse_75" data-name="Ellipse 75" cx="123.5" cy="123.5" r="123.5" transform="translate(-6714 5567)" fill="#fff"/>
    <path id="laravel-brands" d="M177.392,39.628a1.96,1.96,0,0,0-.1-.233,2.915,2.915,0,0,0-.181-.428,2.05,2.05,0,0,0-.185-.243,3.2,3.2,0,0,0-.246-.322c-.079-.075-.178-.137-.263-.205a3.023,3.023,0,0,0-.308-.233L143.179,19a2.737,2.737,0,0,0-2.737,0L107.5,37.975h0a2.76,2.76,0,0,0-.3.236,2.628,2.628,0,0,0-.267.205,2.815,2.815,0,0,0-.246.318c-.058.082-.133.154-.185.243a3.317,3.317,0,0,0-.178.428c-.027.079-.072.151-.1.233a2.764,2.764,0,0,0-.1.712V76.355l-27.446,15.8V21.7a2.669,2.669,0,0,0-.1-.715c-.021-.082-.068-.154-.1-.233a2.856,2.856,0,0,0-.178-.424c-.048-.089-.127-.161-.185-.246a3.2,3.2,0,0,0-.246-.322,3.236,3.236,0,0,0-.267-.205,3.354,3.354,0,0,0-.3-.233h0L44.376.365a2.737,2.737,0,0,0-2.737,0L8.7,19.326h0a2.231,2.231,0,0,0-.3.236,2.672,2.672,0,0,0-.27.205,2.788,2.788,0,0,0-.243.318c-.062.086-.137.157-.188.246a2.7,2.7,0,0,0-.174.424,2.21,2.21,0,0,0-.1.229,2.8,2.8,0,0,0-.1.718V134.5A2.737,2.737,0,0,0,8.7,136.881L74.558,174.8a3.019,3.019,0,0,0,.455.185c.072.027.14.068.216.089a2.71,2.71,0,0,0,1.4,0c.068-.017.127-.055.188-.075a2.943,2.943,0,0,0,.479-.2l65.88-37.922a2.737,2.737,0,0,0,1.369-2.378V98.491l31.558-18.17a2.737,2.737,0,0,0,1.369-2.395V40.343A2.954,2.954,0,0,0,177.392,39.628ZM43,5.911h0L70.439,21.7,43,37.5,15.568,21.7ZM73.2,26.439V95.316l-15.919,9.166-11.526,6.637V42.252L61.67,33.086Zm0,141.224L12.818,132.916V26.452l11.526,6.63L40.26,42.252v73.619a2.374,2.374,0,0,0,.041.308,2.736,2.736,0,0,0,.055.4h0a2.025,2.025,0,0,0,.13.308,2.183,2.183,0,0,0,.144.342h0a2.923,2.923,0,0,0,.205.267,2.607,2.607,0,0,0,.226.287h0c.079.075.178.13.263.2a3.055,3.055,0,0,0,.294.226h0l31.541,17.852Zm2.737-36.324L48.543,115.833l28.77-16.562L108.877,81.1l27.415,15.782-20.117,11.482Zm63.13,1.564L78.681,167.68V136.1L123.4,110.575l15.659-8.947Zm0-40.758-11.526-6.613-15.919-9.166V45.088l11.526,6.637L139.063,60.9ZM141.8,56.125l-27.439-15.8L141.8,24.536l27.432,15.789Zm2.737,36.019V60.9l15.953-9.172,11.523-6.637V76.355h0Z" transform="translate(-6683.33 5603.002)" fill="#bf616a"/>
  </g>
</svg>
