<svg xmlns="http://www.w3.org/2000/svg" width="194.155" height="194.155" viewBox="0 0 194.155 194.155">
  <g id="Group_47" data-name="Group 47" transform="translate(7432 -5871)">
    <circle id="Ellipse_77" data-name="Ellipse 77" cx="69.5" cy="69.5" r="69.5" transform="matrix(0.588, 0.809, -0.809, 0.588, -7319.547, 5871)" fill="#fff"/>
    <path id="google-brands" d="M91.5,55.588C91.5,82.119,73.331,101,46.5,101a46.5,46.5,0,0,1,0-93A44.717,44.717,0,0,1,77.681,20.169L65.025,32.338C48.469,16.362,17.681,28.362,17.681,54.5c0,16.219,12.956,29.362,28.819,29.362,18.412,0,25.313-13.2,26.4-20.044H46.5V47.825H90.769a40.765,40.765,0,0,1,.731,7.763Z" transform="translate(-7380 5914)" fill="#bf616a"/>
  </g>
</svg>
