<svg xmlns="http://www.w3.org/2000/svg" width="139" height="139" viewBox="0 0 139 139">
  <g id="Group_40" data-name="Group 40" transform="translate(7659 -5680)">
    <circle id="Ellipse_85" data-name="Ellipse 85" cx="69.5" cy="69.5" r="69.5" transform="translate(-7659 5680)" fill="#fff"/>
    <path id="css3-alt-brands" d="M0,32,5.921,99.145,32.571,108l26.651-8.855L65.143,32ZM53.115,45.571,52.3,53.6l-19.56,8.363-.051.017H51.605l-2.171,24.87L32.775,91.714,16.014,86.761,14.929,74.224h8.3l.543,6.5,8.923,2.256,9.279-2.613.628-10.45L14.386,69.83v-.017l-.034.017-.611-7.854,19.017-7.922,1.1-.458H13.012l-.984-8.024Z" transform="translate(-7622 5680)" fill="#d08770"/>
  </g>
</svg>
