<svg xmlns="http://www.w3.org/2000/svg" width="1920" height="344.325" viewBox="0 0 1920 344.325">
  <g id="Group_38" data-name="Group 38" transform="translate(15526 -7062.165)">
    <path id="Path_1245" data-name="Path 1245" d="M0-4.518S59.157,42.963,316.4,42.963s277.181-72.82,614.833-84.691S1396.809,33.661,1644,42.963,1920-4.518,1920-4.518V301.49H0Z" transform="translate(-15526 7105)" fill="#f4f6f9"/>
    <path id="Path_1246" data-name="Path 1246" d="M0-7.99C857-194,966,17.208,1338.608,35.963S1920-7.99,1920-7.99V178.156H0Z" transform="translate(-15526 7228)" fill="#f7f9fb"/>
    <path id="Path_1247" data-name="Path 1247" d="M0-.039C312,192,701.5,7.22,897.287-.039c217.886-8.078,381.787,116.34,637.465,116.34S1920-.039,1920-.039V165.49H0Z" transform="translate(-15526 7241)" fill="#fbfbfc"/>
  </g>
</svg>
