<svg xmlns="http://www.w3.org/2000/svg" width="139" height="139" viewBox="0 0 139 139">
  <g id="Group_54" data-name="Group 54" transform="translate(6383 -5784)">
    <circle id="Ellipse_78" data-name="Ellipse 78" cx="69.5" cy="69.5" r="69.5" transform="translate(-6383 5784)" fill="#fff"/>
    <path id="stripe-brands" d="M25.01,127.127l-6.541,1.39-.03,21.511c0,3.973,2.991,6.541,6.964,6.541a10.433,10.433,0,0,0,4.713-.891v-5.106c-.861.347-5.091,1.586-5.091-2.372v-9.547h5.091v-5.71H25.026Zm13.46,7.795-.408-1.979h-5.8v23.143h6.692V140.511c1.586-2.085,4.26-1.677,5.121-1.4v-6.163c-.906-.317-4.033-.906-5.6,1.979ZM52.413,124l-6.737,1.435V130.9l6.737-1.435ZM6.868,139.756c0-1.042.876-1.45,2.281-1.465a15.03,15.03,0,0,1,6.677,1.722V133.7a17.9,17.9,0,0,0-6.662-1.224c-5.438,0-9.064,2.84-9.064,7.583,0,7.432,10.2,6.224,10.2,9.426,0,1.239-1.073,1.647-2.568,1.647a16.921,16.921,0,0,1-7.342-2.145v6.043a18.59,18.59,0,0,0,7.327,1.526c5.574,0,9.411-2.387,9.411-7.221C17.125,141.342,6.868,142.777,6.868,139.756Zm89.9,5.03c0-6.873-3.323-12.3-9.7-12.3S76.81,137.913,76.81,144.741c0,8.082,4.577,11.813,11.1,11.813a15.028,15.028,0,0,0,7.432-1.737v-5.046a14.189,14.189,0,0,1-6.586,1.48c-2.613,0-4.91-.921-5.212-4.064H96.675c.03-.347.091-1.752.091-2.4Zm-13.279-2.538c0-3.021,1.858-4.29,3.535-4.29,1.647,0,3.4,1.269,3.4,4.29ZM66.432,132.49a7.561,7.561,0,0,0-5.257,2.1l-.347-1.662H54.921v30.938l6.707-1.42.015-7.583a7.515,7.515,0,0,0,4.743,1.692c4.8,0,9.185-3.5,9.185-12.025C75.587,136.735,71.145,132.49,66.432,132.49ZM64.831,151a4.029,4.029,0,0,1-3.157-1.269l-.045-9.97a4.025,4.025,0,0,1,3.2-1.329c2.447,0,4.139,2.749,4.139,6.254.015,3.61-1.647,6.314-4.139,6.314Zm-19.14,5.091h6.737V132.943H45.691Z" transform="translate(-6362.1 5710)" fill="#88c0d0"/>
  </g>
</svg>
