<svg xmlns="http://www.w3.org/2000/svg" width="139" height="139" viewBox="0 0 139 139">
  <g id="Group_43" data-name="Group 43" transform="translate(7482 -5664)">
    <circle id="Ellipse_74" data-name="Ellipse 74" cx="69.5" cy="69.5" r="69.5" transform="translate(-7482 5664)" fill="#fff"/>
    <path id="github" d="M25.8,62.272c-17,5.1-17-8.5-23.8-10.2m47.606,20.4V59.314a11.459,11.459,0,0,0-3.2-8.875c10.677-1.19,21.9-5.237,21.9-23.8a18.5,18.5,0,0,0-5.1-12.749A17.24,17.24,0,0,0,62.9,1.064S58.889-.126,49.606,6.1a45.5,45.5,0,0,0-23.8,0c-9.283-6.223-13.3-5.033-13.3-5.033a17.24,17.24,0,0,0-.306,12.82A18.5,18.5,0,0,0,7.1,26.737c0,18.43,11.221,22.477,21.9,23.8a11.459,11.459,0,0,0-3.2,8.773v13.16" transform="translate(-7448 5697.027)" fill="#b48ead"/>
  </g>
</svg>
