<svg id="Layer_32" data-name="Layer 32" xmlns="http://www.w3.org/2000/svg" width="591.372" height="447.888" viewBox="0 0 591.372 447.888">
  <rect id="Rectangle_74" data-name="Rectangle 74" width="106.9" height="447.3" transform="translate(52.372 0)" fill="#d8dee9"/>
  <rect id="Rectangle_75" data-name="Rectangle 75" width="106.9" height="301.5" transform="translate(225.472 145.8)" fill="#d8dee9"/>
  <rect id="Rectangle_76" data-name="Rectangle 76" width="106.9" height="216" transform="translate(398.572 231.3)" fill="#d8dee9"/>
  <path id="Path_256" data-name="Path 256" d="M508.572,522.35h190.8a1,1,0,0,0,0-2h-190.9a.94.94,0,0,0-1,1,1,1,0,0,0,1.1,1Z" transform="translate(-507.47 -74.47)"/>
  <path id="Path_257" data-name="Path 257" d="M110.132,522.35H488.4a1,1,0,0,0,0-2H110a.94.94,0,0,0-1,1,1,1,0,0,0,1.13,1Z" transform="translate(101.97 -74.47)"/>
  <path id="Path_258" data-name="Path 258" d="M195.76,339.29H335.39c22.4,0,97.33-6.82,116.4,139.17-30-17.14-70.59-44.43-70.59-44.43l-56.41,77.7s-24-93.73-28.84-107.92C289.55,385.56,280.09,339.29,195.76,339.29Z" transform="translate(52.822 -74.47)" fill="#fff"/>
  <path id="Path_259" data-name="Path 259" d="M324.63,512.65a1.1,1.1,0,0,0,.74-.37l55.85-77c5.62,3.78,42.49,28.3,70,44a1,1,0,0,0,1,0,.88.88,0,0,0,.37-.92c-7.84-60.18-26.18-101.56-54.47-122.85-23.14-17.51-47.1-17.24-59.91-17.05H195.7a.92.92,0,0,0,0,1.84c78.61,0,91.79,40.74,98.06,60.28.46,1.29.83,2.58,1.2,3.68,4.79,14,28.57,106.91,28.84,107.83a.79.79,0,0,0,.74.65Zm56.41-79.54a.85.85,0,0,0-.74.37l-55.21,76.13c-3.41-13.37-24-93.18-28.38-106.08-.37-1.11-.74-2.31-1.2-3.6-5.62-17.51-16.68-51.42-72.72-59.72H338.18c12.63-.18,36.13-.37,58.8,16.68,27.56,20.83,45.53,61.11,53.41,119.82-29.4-17-68.48-43.23-68.94-43.5a1,1,0,0,0-.41-.1Z" transform="translate(52.983 -74.47)"/>
  <path id="Path_260" data-name="Path 260" d="M432.9,165.38h34l19.63,96.95s11.06,77,97.7,77c65.8,0,107-.09,107-.09s-57.14,4.61-72.35-74.75c-4.79-29-18.43-99.07-18.43-99.07h33.68L525.65,83.12l-92.72,82.3" transform="translate(-423.758 -74.47)" fill="#fff"/>
  <path id="Path_261" data-name="Path 261" d="M689.321,340.21c1.11,0,1.85-.09,1.94-.09a.91.91,0,0,0,.83-.92,1,1,0,0,0-.92-.92h-3.41a61.7,61.7,0,0,1-26.64-7.56c-14.56-7.93-33.55-25.9-41.29-66.45-4.42-26.73-16.49-88.94-18.25-98h32.54a.89.89,0,0,0,.83-.64,1,1,0,0,0-.28-1l-108.48-82.3a1,1,0,0,0-1.19,0l-92.72,82.3a1.05,1.05,0,0,0-.28,1,.82.82,0,0,0,.83.55h33.23L485.6,262.4a99.628,99.628,0,0,0,16.5,38.8c12.53,17.69,37,38.89,82,38.89h103a19.032,19.032,0,0,0,2.22.12Zm-14-1.84h-91.15c-44.33,0-68.21-20.65-80.56-38.06a97,97,0,0,1-16.22-38.16l-19.72-97a.89.89,0,0,0-.92-.73h-31.61l90.41-80.15,105.71,80.19h-30.87a.83.83,0,0,0-.74.37.7.7,0,0,0-.19.73c.1.74,13.74,70.32,18.44,99.08,7.92,41.38,27.37,59.72,42.3,67.83A72.35,72.35,0,0,0,675.321,338.37Z" transform="translate(-423.689 -74.47)"/>
  <path id="Path_262" data-name="Path 262" d="M345.2,190.17l-.46-.09s-8.2-13.27,2.21-16.59c6.09-2,9.77,4.61,9.77,4.61s2.49-8.94,11.34-6.73c9.86,2.4,7.83,12.07,7.83,12.07s4-4.79,11-1.75,5.35,10.69,3.5,13.73c4.43.19,8.21,4.89,7.28,9.31-1.29,6.45-9,5.44-11.61,4.79,4.06,2.59,6.64,8.94,3.14,13.18-5.17,6.27-16,.74-16,.74l.37-3.5,2.85-24.33Z" transform="translate(-39.104 -74.47)" fill="#ebcb8b"/>
  <path id="Path_263" data-name="Path 263" d="M357.961,194.32a5.84,5.84,0,0,1,6.27-4.61l4.42.37.09.18v-.09l31.28,5.44-.46,4.15.09-.28-.37,2.58-.65,5.25c1.29-.27,7.93-1.38,6.27,6.64a4.73,4.73,0,0,1-7.46,3l-.37,2.86h0l-.19.18c-.46,6.27-1.1,14.66-1.1,14.66s-7.93,2.76-13.18-.56c.09-2,.27-4.24.27-4.24l.1-.27a49.2,49.2,0,0,1-5.63-1.2c-14.56-5.35-11.7-25.53-11.7-25.53l-4.61-2.12A6,6,0,0,1,357.961,194.32Z" transform="translate(-62.648 -74.47)" fill="#fff"/>
  <path id="Path_264" data-name="Path 264" d="M616.28,395.88l-21.84,28.94-68.2-44s-18.71-12.17,4.7-9.31c23.13,2.8,46.91,18.49,46.91,18.49l10.32-11Z" transform="translate(-435.068 -74.47)" fill="#fff"/>
  <path id="Path_265" data-name="Path 265" d="M594.5,425.74a.84.84,0,0,0,.74-.37l21.84-28.94a.927.927,0,0,0-.28-1.38l-28.2-17a.85.85,0,0,0-1.1.19l-9.77,10.41c-4-2.49-25.72-15.58-46.64-18.16-7.92-.92-11.89-.36-12.72,1.94-1.2,3.23,5.35,7.74,7.38,9.12l68.2,44a1.319,1.319,0,0,0,.55.19Zm20.55-29.68-20.73,27.47L526.854,380c-3.59-2.31-7.09-5.63-6.63-6.92.09-.27,1.19-1.84,10.69-.73,22.67,2.76,46.26,18.06,46.54,18.25a.89.89,0,0,0,1.2-.19l9.77-10.41Z" transform="translate(-435.132 -74.47)"/>
  <path id="Path_266" data-name="Path 266" d="M552.373,410.16,544.813,449s-82.58-19.82-87.37-20.65c-12.44-2.12-17.24-8.66,1.93-11.24s57,2.58,57,2.58l2.53-20.22Z" transform="translate(-298.531 -74.47)" fill="#fff"/>
  <path id="Path_267" data-name="Path 267" d="M544.944,449.79a.72.72,0,0,0,.46-.18.78.78,0,0,0,.37-.64l7.56-38.81a.85.85,0,0,0-.65-1l-33.36-10.69a.71.71,0,0,0-.74.09,1.06,1.06,0,0,0-.46.65l-2.49,19.26c-5.9-.74-39-4.79-56.31-2.49-8.94,1.2-13.55,3.32-13.64,6.36-.09,3.5,6,5.71,11.7,6.73,4.7.83,86.45,20.37,87.28,20.64C544.854,449.79,544.854,449.79,544.944,449.79Zm6.45-39-7.19,37.05c-9.58-2.3-81.93-19.63-86.45-20.37-6.36-1.1-10.13-3.32-10.13-4.88,0-1.39,3.22-3.32,12-4.52,18.8-2.58,56.4,2.58,56.77,2.58a.77.77,0,0,0,.64-.18.93.93,0,0,0,.37-.65l2.49-19.08Z" transform="translate(-298.662 -74.47)"/>
  <path id="Path_268" data-name="Path 268" d="M498.14,322.61,406.06,292a17.44,17.44,0,0,0-22.12,10.51L346.07,405.18l62.94,17.43,11.43-81,41,15c19.73,7.55,28.48-6.91,32.17-18.9Z" transform="translate(-143.838 -74.47)" fill="#88c0d0"/>
  <path id="Path_269" data-name="Path 269" d="M564.41,311.37l-13.36-2.68a42.21,42.21,0,0,0-39.08,12.63L457.5,374l51.06,30.69,35.48-54.66Z" transform="translate(-321.538 -74.47)" fill="#88c0d0"/>
  <path id="Path_270" data-name="Path 270" d="M327.15,291.09l31.06-46.17A26.45,26.45,0,0,1,379.13,233l11.52-.56h13.27v.65c1.2,0,18.25.55,21.85,14.47,2.21,8.66,18,86.82,18,86.82l-34.47,2.85-1.94-20.36Z" transform="translate(-70.548 -74.47)" fill="#fff"/>
  <path id="Path_271" data-name="Path 271" d="M333.233,338.09h0l34.56-2.85a.952.952,0,0,0,.83-1.11c-.18-.74-15.76-78.25-18-86.91-3.83-14.93-22.64-15.12-22.83-15.12a.93.93,0,0,0,0,1.85c.19,0,17.61.18,21.11,13.73,2,8,15.94,76.59,17.79,85.8l-32.54,2.68-6.17-64.79a1,1,0,0,0-1-.83.91.91,0,0,0-.82,1l6.26,65.71a.83.83,0,0,0,.81.84Z" transform="translate(5.579 -74.47)"/>
  <path id="Path_272" data-name="Path 272" d="M361.2,353.12s5.25-.37,5.07-4.8a2.641,2.641,0,0,0-.09-.83v-.09s2.76-2,1.56-4.61-3-3.31-6.36-3.13c-1.29,0-4.14,0-6.82-.09l.28-.09c1.2-.37,5.62-2,6.08-4.89.56-3.32-1.93-4.52-3.22-4.24s-8.21,5-14,4.24a58.911,58.911,0,0,0-11.89-.28l-27.56,2.31s-.46,13.36-4.61,16.68-9.21,4.42-8.66,6.82c1.84,7.83,20,1.29,22.49-9.49,2,1.1,26.17,6.26,39.08,6,5.43-.09,7.74-1.57,8.47-3.32Z" transform="translate(41.393 -74.47)" fill="#fff"/>
  <path id="Path_273" data-name="Path 273" d="M296.035,364.45h0c6.64,0,15.39-5.53,17.7-12.72,5.25,1.57,26.54,5.9,38.43,5.72,4.88-.1,7.92-1.29,9.12-3.51,2.21-.36,5.53-1.84,5.44-5.71v-.55c1.11-1,2.49-3.14,1.47-5.35-1.56-3.41-4.42-3.78-7.18-3.68h-2.68a6.59,6.59,0,0,0,3.23-4,5,5,0,0,0-1.2-4.33,3.45,3.45,0,0,0-3.13-.92,17.731,17.731,0,0,0-1.85.83c-2.67,1.38-7.55,3.87-11.79,3.32a61.22,61.22,0,0,0-12.08-.25l-27.46,2.3a.92.92,0,0,0-.83.93c-.09,3.59-1.11,13.45-4.24,15.94a38.736,38.736,0,0,1-4.61,2.95c-2.58,1.47-4.88,2.67-4.33,4.88C290.415,363,292.715,364.45,296.035,364.45Zm17.14-14.74a.58.58,0,0,0-.37.09,1,1,0,0,0-.55.64c-1.57,6.73-10.14,12.26-16.22,12.26h0c-1.75,0-4-.46-4.42-2.76-.19-.83,1.56-1.76,3.41-2.77a27.411,27.411,0,0,0,4.88-3.13c3.87-3,4.79-13.46,5-16.5l26.72-2.21a57,57,0,0,1,11.71.27c4.88.65,10.14-2,12.9-3.5l1.48-.74a1.55,1.55,0,0,1,1.38.47,2.77,2.77,0,0,1,.64,2.67c-.27,1.84-3.13,3.41-5.52,4.15l-.28.09a.85.85,0,0,0-.65,1,1,1,0,0,0,.93.83c2.67.09,5.52.09,6.91.09,3-.09,4.51.56,5.43,2.68.83,1.84-1.29,3.41-1.29,3.41a.86.86,0,0,0-.36.92,2.58,2.58,0,0,1,.09.83c.09,3.5-4.06,3.87-4.24,3.87a.8.8,0,0,0-.74.55l-.09.19c-.74,1.75-3.41,2.67-7.65,2.76-12.9.28-37-5.07-38.62-5.9a.5.5,0,0,0-.48-.26Z" transform="translate(41.857 -74.47)"/>
  <path id="Path_274" data-name="Path 274" d="M297.483,344.73c11.8,4.42,25.34,3.59,25.34,3.59s1.48,2.4.74,4.61" transform="translate(79.119 -74.47)" fill="#fff"/>
  <path id="Path_275" data-name="Path 275" d="M323.536,353.76a1.11,1.11,0,0,0,.92-.64c.83-2.59-.83-5.26-.83-5.35a1.08,1.08,0,0,0-.83-.46c-.09,0-13.54.83-25-3.5a.933.933,0,1,0-.65,1.75c10.6,4,22.4,3.78,25.16,3.68a4.83,4.83,0,0,1,.46,3.32,1,1,0,0,0,.56,1.2Z" transform="translate(79.146 -74.47)"/>
  <path id="Path_276" data-name="Path 276" d="M304.79,338.55c1.38.56,5.35.83,9.12,1" transform="translate(81.672 -74.47)" fill="#fff"/>
  <path id="Path_277" data-name="Path 277" d="M313.941,340.49a.93.93,0,0,0,.93-.92.87.87,0,0,0-.93-.92,45.289,45.289,0,0,1-8.84-.93.938.938,0,0,0-.65,1.76c1.66.55,6,.82,9.49,1Z" transform="translate(81.641 -74.47)"/>
  <path id="Path_278" data-name="Path 278" d="M364.512,236.71a22.29,22.29,0,0,0,6.91-1.1,1,1,0,0,0,.64-.83s.74-10,1.2-16.32a5.33,5.33,0,0,0,4,.19,6,6,0,0,0,3.78-4.42c.65-3,.19-5.26-1.29-6.64a6.33,6.33,0,0,0-5.07-1.29l1-6.64a.89.89,0,1,0-1.75-.27l-1.29,7.92a.91.91,0,0,0,.27.83.94.94,0,0,0,.83.19s3.14-.83,4.7.64c.92.92,1.2,2.58.74,4.89a4.39,4.39,0,0,1-2.67,3.13,3.78,3.78,0,0,1-3.6-.74.86.86,0,0,0-.92-.09.9.9,0,0,0-.55.74c-.37,5.25-1.11,14.65-1.29,17.14-1.75.46-7.38,1.84-11.34-.37l.19-3.68a1,1,0,0,0-.83-1,1.1,1.1,0,0,0-1,.83s-.18,2.21-.27,4.24a1,1,0,0,0,.46.83,12.93,12.93,0,0,0,7.15,1.82Z" transform="translate(-37.86 -74.47)"/>
  <path id="Path_279" data-name="Path 279" d="M404.126,230.91a4.19,4.19,0,0,0,1.2-.1,1.08,1.08,0,0,0,.83-1c0-.46-.56-.83-1-.83a30.14,30.14,0,0,1-10-1.38c-13.64-5-11.06-24.33-11.06-24.52a.82.82,0,0,0-.56-.92l-4.61-2.12a5,5,0,0,1-2.76-5.53,4.83,4.83,0,0,1,5.25-3.87l4.43.37a.924.924,0,0,0,.18-1.84l-4.42-.37a6.91,6.91,0,0,0-7.28,5.34,6.8,6.8,0,0,0,3.78,7.56l4,1.84c-.37,3.69-1.2,20.93,12.35,25.81a37.419,37.419,0,0,0,9.67,1.56Z" transform="translate(-79.964 -74.47)"/>
  <ellipse id="Ellipse_16" data-name="Ellipse 16" cx="1.38" cy="1.38" rx="1.38" ry="1.38" transform="translate(318.542 124.46)"/>
  <ellipse id="Ellipse_17" data-name="Ellipse 17" cx="1.38" cy="1.38" rx="1.38" ry="1.38" transform="translate(312.552 122.98)"/>
  <path id="Path_280" data-name="Path 280" d="M380.242,292a1.12,1.12,0,0,0,.74-.37l31.03-46.16a25.78,25.78,0,0,1,20.3-11.47l11.52-.55a.881.881,0,0,0-.09-1.76l-11.52.56a27.77,27.77,0,0,0-21.66,12.35L379.5,290.77a.91.91,0,0,0,.28,1.29.78.78,0,0,1,.46-.06Z" transform="translate(-123.64 -74.47)"/>
  <path id="Path_281" data-name="Path 281" d="M412.86,302.52a1.1,1.1,0,0,0,.92-.65l5.69-21.38a.9.9,0,1,0-1.75-.46L412,301.41a1,1,0,0,0,.65,1.11Z" transform="translate(-131.098 -74.47)"/>
  <path id="Path_282" data-name="Path 282" d="M407.541,275.51a1.12,1.12,0,0,0,.93-.64l3.68-13.87a.94.94,0,0,0-.64-1.1,1,1,0,0,0-1.11.64l-3.69,13.83a1,1,0,0,0,.65,1.1Z" transform="translate(-118.499 -74.47)"/>
  <line id="Line_5" data-name="Line 5" y1="71.7" x2="26.45" transform="translate(213.652 228.05)" fill="none"/>
  <path id="Path_283" data-name="Path 283" d="M460.347,375.14a.88.88,0,0,0,.83-.64l26.45-71.71a.94.94,0,0,0-.55-1.19,1,1,0,0,0-1.2.55l-26.45,71.7a1,1,0,0,0,.56,1.2C460.067,375.14,460.167,375.14,460.347,375.14Z" transform="translate(-246.695 -74.47)"/>
  <line id="Line_6" data-name="Line 6" x1="33.27" y1="12.16" transform="translate(260.752 261.32)" fill="none"/>
  <path id="Path_284" data-name="Path 284" d="M439.75,348.88a.89.89,0,0,0,.83-.65,1,1,0,0,0-.55-1.2l-33.37-12.26a.94.94,0,0,0-.64,1.76l33.36,12.25a.67.67,0,0,0,.37.1Z" transform="translate(-145.728 -74.47)"/>
  <path id="Path_285" data-name="Path 285" d="M317.162,347.86h.18a.86.86,0,0,0,.64-1.1c-.92-3.41-4-3.87-5.71-4.06l-.37-.09c-.55-.09-1.84-.19-3.68-.28-4.52-.27-12-.64-15.12-1.56a.82.82,0,0,0-1.11.64.83.83,0,0,0,.65,1.11c3.32,1,10.69,1.38,15.58,1.66,1.65.09,3.13.18,3.5.27l.46.09c2,.28,3.69.65,4.15,2.68C316.332,347.59,316.692,347.86,317.162,347.86Z" transform="translate(90.41 -74.47)"/>
  <path id="Path_286" data-name="Path 286" d="M341.773,196.35a1.13,1.13,0,0,0,.92-.65c.09-.18,1.1-3.13,6.36-3.13a.93.93,0,0,0,0-1.85c-6.73,0-8.11,4.24-8.11,4.43a.81.81,0,0,0,.64,1.1C341.563,196.35,341.653,196.35,341.773,196.35Z" transform="translate(9.599 -74.47)"/>
</svg>
