<svg xmlns="http://www.w3.org/2000/svg" width="684" height="558.703" viewBox="0 0 684 558.703">
  <g id="Layer_10" data-name="Layer 10" transform="translate(-162 -104.8)">
    <path id="Path_692" data-name="Path 692" d="M513.415,341.1s14.988-93.949,47.766-150H425.071s-35.825,57.271-48.741,154.388C390.1,344.757,513.415,341.1,513.415,341.1Z" transform="translate(46.838 18.859)" fill="#fff"/>
    <path id="Path_693" data-name="Path 693" d="M372.43,461.956H588.354L426.9,374.1,372.43,391.647Z" transform="translate(45.985 58.85)" fill="#fff"/>
    <path id="Path_694" data-name="Path 694" d="M177.43,186.374H380.924s-.487-50.935-30.707-50.935c-19.5,0-24.614,14.988-24.614,14.988s-.853-40.577-39.115-40.577c-19.5,0-37.531,17.425-42.77,43.5C211.305,127.762,179.136,151.889,177.43,186.374Z" transform="translate(3.372 1.104)" fill="#e5e9f0"/>
    <path id="Path_695" data-name="Path 695" d="M747.241,382.978H512.43c0-37.287,30.829-73.234,78.839-41.917,27.661-65.07,137.816-58.733,154.022,19.862Z" transform="translate(76.579 41.929)" fill="#eceff4"/>
    <path id="Path_696" data-name="Path 696" d="M373.87,183.555l42.161-3.777s2.315,13.769,10.479,11.82c.487,4.874,2.193,19.618,2.193,19.618s17.912,0,15.353-19.618c-1.462-11.089-9.017-22.908-16.938-21.812-3.046-8.53-12.063-17.912-27.173-14.988s-23.639,13.038-33.875,7.677C362.538,166.618,359.248,183.068,373.87,183.555Z" transform="translate(43.936 10.807)" fill="#88c0d0"/>
    <path id="Path_697" data-name="Path 697" d="M426.686,187.02c-8.042,1.706-10.479-11.82-10.479-11.82l-44.476,3.9c-3.412.975-9.383,3.534-9.992,6.336-.975,4.387,1.34,7.433,8.773,8.9s9.992,12.795,9.992,12.795,5.118,21.69,27.539,9.992h0l2.193,9.139s9.139,5.605,19.5-3.656c-.731-7.189-1.828-23.152-1.828-23.152s9.5,2.437,9.017-5.849S431.352,185.314,426.686,187.02Z" transform="translate(43.603 15.385)" fill="#fff"/>
    <path id="Path_698" data-name="Path 698" d="M319,299.123l56.3-6.824a366,366,0,0,1,12.795-49.351c8.53-24.858,30.951-27.173,30.951-27.173l19.862-4.63s25.711-5.971,40.333,14.5c3.412,4.874,14.135,17.181,23.152,38.018a26.881,26.881,0,0,1-1.706,24.98l.853,3.9s11.089,46.3,11.454,51.422H319Z" transform="translate(34.309 23.063)" fill="#fff"/>
    <path id="Path_699" data-name="Path 699" d="M230.448,351.444,211.4,354.368s-24.371-48.01-41.064-55.809c-5.727-2.315-7.067,8.042-4.63,13.891s25.224,74.818,25.711,85.663l45.573-9.87Z" transform="translate(0.557 42.27)" fill="#fff"/>
    <path id="Path_700" data-name="Path 700" d="M191.663,399.432a1.73,1.73,0,0,1-.731-.244,1.547,1.547,0,0,1-.487-.853c-.487-10.723-23.4-79.936-25.589-85.175-1.828-4.509-1.828-11.7,1.1-14.622a4.387,4.387,0,0,1,5.118-.853c15.841,7.555,37.9,49.107,41.308,55.687l18.156-2.681a1.219,1.219,0,0,1,1.34.975l6.58,36.556a1.292,1.292,0,0,1-.975,1.462c-.366.122-39.358,8.652-45.573,9.87a.378.378,0,0,0-.244-.122ZM169,299.512a1.986,1.986,0,0,0-1.34.609c-1.95,1.95-2.315,8.042-.609,11.942,2.193,5.118,23.639,69.822,25.589,84.688,8.164-1.706,36.921-8.042,43.014-9.383l-6.093-34.241-17.791,2.681a1.218,1.218,0,0,1-1.219-.609c-.244-.487-24.371-47.645-40.455-55.321a1.962,1.962,0,0,0-1.133-.366Z" transform="translate(0.349 42.048)"/>
    <path id="Path_701" data-name="Path 701" d="M421.32,318.565s88.1-2.437,111.617-4.265c1.219,9.992-28.757,43.745-28.757,43.745l-141.228,7.92L223.187,407.883,208.93,333.065l133.429-14.5Z" transform="translate(10.256 45.782)" fill="#88c0d0"/>
    <path id="Path_702" data-name="Path 702" d="M365.516,445.216H178.63s-.244-59.464,63.364-72.868c29.488-5.118,55.687,1.1,65.069,5.727,7.189-9.139,35.459-52.762,84.2-20.471" transform="translate(3.634 52.681)" fill="#fff"/>
    <path id="Path_703" data-name="Path 703" d="M365.735,446.67H178.849a1.145,1.145,0,0,1-1.219-1.219,80.046,80.046,0,0,1,7.92-31.926c7.311-15.353,23.03-35.094,56.418-42.161,28.514-5,54.346.487,64.948,5.362.244-.366.609-.731.853-1.1,9.261-12.307,37.531-49.838,84.444-18.887a1.234,1.234,0,0,1-1.34,2.072c-44.964-29.732-72.137,6.458-81.154,18.278-.609.731-1.1,1.462-1.462,1.95a1.219,1.219,0,0,1-1.462.365c-9.626-4.874-35.581-10.723-64.217-5.605-56.905,12.063-61.9,62.023-62.267,70.431h185.7a1.145,1.145,0,0,1,1.218,1.219C367.234,446.183,366.381,446.67,365.735,446.67Z" transform="translate(3.415 52.446)"/>
    <path id="Path_704" data-name="Path 704" d="M356.818,486.571l2.437,21.568s-48.619,41.308-52.762,63c-1.462,9.5,1.706,9.5,8.773,6.824S395.08,523.98,395.08,523.98V484.5Z" transform="translate(31.5 82.976)" fill="#fff"/>
    <path id="Path_705" data-name="Path 705" d="M309.515,580.826a3.936,3.936,0,0,1-2.681-.853c-1.706-1.34-2.072-4.021-1.34-8.9,4.021-20.959,47.279-58.611,52.641-63.364l-2.315-20.837a2.864,2.864,0,0,1,.244-.975,1.962,1.962,0,0,1,.853-.487l38.262-2.315a1.109,1.109,0,0,1,.853.366,1.316,1.316,0,0,1,.366.853V523.8a1.5,1.5,0,0,1-.487.975c-2.924,2.072-72.99,51.544-80.057,54.224A15.425,15.425,0,0,1,309.515,580.826Zm48.863-92.852,2.193,20.228a1.706,1.706,0,0,1-.366,1.1c-.487.366-48.254,41.308-52.275,62.267-.731,4.509-.122,6.093.487,6.58,1.1.853,4.143-.122,6.7-1.1,5.362-2.072,53.737-35.7,79.083-53.494V485.9Z" transform="translate(31.28 82.67)"/>
    <path id="Path_706" data-name="Path 706" d="M409.237,228.089a17.34,17.34,0,0,1-7.713-1.828,1.792,1.792,0,0,1-.609-.731l-2.193-9.139a1.219,1.219,0,1,1,2.315-.609l2.071,8.652c1.828.853,9.017,3.656,17.181-3.29-.731-7.433-1.706-22.421-1.706-22.543a1.109,1.109,0,0,1,.487-.975,1.219,1.219,0,0,1,1.1-.244c1.1.244,4.509.731,6.215-.731.975-.731,1.34-2.072,1.219-3.9-.122-2.924-.975-4.874-2.437-5.849-1.828-1.219-4.387-.609-6.336.122a1.218,1.218,0,0,1-1.1-.122,1.109,1.109,0,0,1-.487-.975c-.122-1.828-.366-4.387-.366-4.387a1.225,1.225,0,1,1,2.437-.244c0,.122.244,1.462.366,3.046,2.8-.731,5.118-.609,6.946.609,2.072,1.34,3.29,3.9,3.534,7.677a6.885,6.885,0,0,1-2.193,5.971,8.773,8.773,0,0,1-6.7,1.462c.244,4.143,1.1,15.719,1.706,21.568a1.389,1.389,0,0,1-.366.975A20.118,20.118,0,0,1,409.237,228.089Z" transform="translate(51.705 16.476)"/>
    <path id="Path_707" data-name="Path 707" d="M396.33,221.393a17.485,17.485,0,0,1-5.605-.975c-8.652-3.168-10.967-13.038-11.089-13.4,0-.122-2.437-10.479-9.017-11.82-4.63-.853-7.555-2.437-8.9-4.63a7.543,7.543,0,0,1-.853-5.727c1.1-5.118,12.063-7.189,13.282-7.433a1.243,1.243,0,0,1,.487,2.437c-4.387.853-10.723,3.046-11.332,5.605a4.606,4.606,0,0,0,.487,3.9c1.1,1.584,3.534,2.8,7.433,3.534,8.164,1.584,10.845,13.16,10.967,13.648,0,.122,2.193,9.017,9.626,11.7,5.971,2.193,13.769-.122,23.152-6.946a1.219,1.219,0,1,1,1.462,1.95C408.759,218.591,402.057,221.393,396.33,221.393Z" transform="translate(43.41 15.861)"/>
    <circle id="Ellipse_41" data-name="Ellipse 41" cx="1.828" cy="1.828" r="1.828" transform="translate(428.042 202.039)"/>
    <circle id="Ellipse_42" data-name="Ellipse 42" cx="1.828" cy="1.828" r="1.828" transform="translate(435.718 202.404)"/>
    <path id="Path_708" data-name="Path 708" d="M415.75,169.37a1.1,1.1,0,0,1-.609-.122,1.353,1.353,0,0,1-.487-1.706c1.584-2.8,5.971-7.433,11.211-5.24a1.234,1.234,0,0,1-.853,2.315c-4.752-1.828-8.164,4.143-8.286,4.265C416.6,169.248,416.237,169.37,415.75,169.37Z" transform="translate(55.184 12.441)"/>
    <path id="Path_709" data-name="Path 709" d="M385.529,312.707a1.3,1.3,0,0,1-.731-.244,1.962,1.962,0,0,1-.487-.853l-2.681-38.993a1.426,1.426,0,0,1,1.1-1.34l67.75-5.24a1.426,1.426,0,0,1,1.34,1.1c.122.609-.487,1.219-1.1,1.34l-66.532,5.118,2.437,36.556,79.814-9.261A26.186,26.186,0,0,0,487.4,264.453a159.788,159.788,0,0,0-20.837-34.85q-1.279-1.828-2.193-2.924c-14.013-19.618-38.749-14.135-38.993-14.013a1.219,1.219,0,1,1-.609-2.315c.244-.122,26.686-5.971,41.552,14.988q.731,1.1,2.193,2.924a160.845,160.845,0,0,1,21.2,35.337,28.635,28.635,0,0,1-22.908,39.846l-81.154,9.383A.122.122,0,0,0,385.529,312.707Z" transform="translate(47.996 22.882)"/>
    <path id="Path_710" data-name="Path 710" d="M319.22,299.566a1.292,1.292,0,0,1-1.219-1.1,1.218,1.218,0,0,1,1.1-1.34l55.321-6.7a372.172,372.172,0,0,1,12.673-48.619c8.652-25.345,31.8-27.9,32.047-27.9a1.145,1.145,0,0,1,1.34,1.1,1.219,1.219,0,0,1-1.1,1.34c-.853.122-21.812,2.559-29.976,26.32a353.366,353.366,0,0,0-12.673,49.107,1.219,1.219,0,0,1-1.1.975l-56.3,6.824Z" transform="translate(34.089 23.839)"/>
    <path id="Path_711" data-name="Path 711" d="M369.55,328.542h-.244a1.218,1.218,0,0,1-.975-1.34l13.526-83.957a1.219,1.219,0,1,1,2.315.366l-13.526,83.957A1.072,1.072,0,0,1,369.55,328.542Z" transform="translate(45.088 29.956)"/>
    <rect id="Rectangle_95" data-name="Rectangle 95" width="141.715" height="6.946" transform="translate(289.738 357.279)" fill="#fff"/>
    <path id="Path_712" data-name="Path 712" d="M408.886,320.483H267.049a1.145,1.145,0,0,1-1.219-1.219v-6.946a1.145,1.145,0,0,1,1.219-1.219H408.764a1.145,1.145,0,0,1,1.219,1.219v6.946a1.121,1.121,0,0,1-1.1,1.219Zm-140.618-2.437H407.545v-4.509H268.267Z" transform="translate(22.69 45.082)"/>
    <path id="Path_713" data-name="Path 713" d="M320.463,264.5H228.83l46.3,57.88h91.755Z" transform="translate(14.604 34.899)" fill="#fff"/>
    <path id="Path_714" data-name="Path 714" d="M367.131,323.839H275.376a1.109,1.109,0,0,1-.975-.487l-46.426-57.88a1.3,1.3,0,0,1-.122-1.34,1.219,1.219,0,0,1,1.1-.731h91.719a1.109,1.109,0,0,1,.975.487l46.426,58a1.3,1.3,0,0,1,.122,1.34A1.06,1.06,0,0,1,367.131,323.839ZM275.985,321.4h88.551L320.06,265.959H231.473Z" transform="translate(14.362 34.659)"/>
    <path id="Path_715" data-name="Path 715" d="M480.534,331.63a1.219,1.219,0,0,1-1.219-1.1c-.244-4.021-8.164-37.9-12.185-55.2a1.219,1.219,0,0,1,2.315-.609c.487,2.072,11.942,50.325,12.307,55.565a1.413,1.413,0,0,1-1.218,1.34Z" transform="translate(66.68 36.982)"/>
    <path id="Path_716" data-name="Path 716" d="M356.562,271.4s-14.988,6.7-15.232,12.916c0,3.534,4.143,4.021,6.336,2.681S361.07,277.736,356.562,271.4Z" transform="translate(39.189 36.407)" fill="#fff"/>
    <path id="Path_717" data-name="Path 717" d="M345.306,289.167a5.337,5.337,0,0,1-2.8-.731,4.155,4.155,0,0,1-2.071-3.9c.244-6.824,14.379-13.4,15.963-14.013a1.133,1.133,0,0,1,1.462.366,7.2,7.2,0,0,1,1.1,5.483c-1.34,6.336-10.236,11.82-10.358,11.942A6.629,6.629,0,0,1,345.306,289.167ZM356.273,273.2c-5.483,2.681-13.4,7.677-13.526,11.454a1.84,1.84,0,0,0,.853,1.706,4.289,4.289,0,0,0,3.656-.122c1.706-.975,8.286-5.727,9.261-10.357a4.959,4.959,0,0,0-.244-2.681Z" transform="translate(38.99 36.187)"/>
    <path id="Path_718" data-name="Path 718" d="M390.721,261.2s-24.005,2.072-34.241,11.7c-8.408,7.8-14.013,22.3-7.433,29.854,1.95,2.315,6.7,2.681,6.824-2.437,3.046,2.681,5.971,5.727,9.017-.487,2.193,1.95,5.483,6.458,9.5,0,1.706,2.193,5.24,4.143,7.311,1.34s-1.95-12.795-1.95-12.795,3.9,4.143,13.038,3.534C392.269,285.327,390.721,261.2,390.721,261.2Z" transform="translate(40.245 34.178)" fill="#fff"/>
    <path id="Path_719" data-name="Path 719" d="M352.589,305.773A5.788,5.788,0,0,1,348.2,303.7c-6.946-7.92-1.706-23.03,7.555-31.56,10.479-9.748,34-11.942,34.972-11.942a1.767,1.767,0,0,1,.853.244,1.109,1.109,0,0,1,.366.853l2.072,30.585a1.767,1.767,0,0,1-.244.853,1.109,1.109,0,0,1-.853.366,21.117,21.117,0,0,1-10.723-1.706c1.1,3.412,2.193,8.408.487,10.479a4.5,4.5,0,0,1-3.656,1.828h0a6.921,6.921,0,0,1-4.509-1.95,5.764,5.764,0,0,1-4.021,2.559c-2.193.244-4.021-1.219-5.362-2.559a5.618,5.618,0,0,1-3.412,2.8c-1.828.366-3.534-.731-5-1.95a3.948,3.948,0,0,1-2.681,2.681A1.937,1.937,0,0,1,352.589,305.773Zm37.165-43.014c-5,.609-23.761,3.29-32.291,11.21-8.286,7.677-13.282,21.446-7.311,28.148a3.29,3.29,0,0,0,3.29,1.1c1.1-.366,1.34-1.706,1.462-2.8a1.219,1.219,0,0,1,.731-1.1,1.109,1.109,0,0,1,1.34.244l.487.366c1.462,1.34,3.046,2.681,4.143,2.437.853-.122,1.706-1.219,2.559-2.924a.914.914,0,0,1,.853-.609,1.219,1.219,0,0,1,1.1.244l.731.731c1.1,1.1,2.437,2.437,3.777,2.315.975-.122,2.072-.975,3.168-2.681a1.669,1.669,0,0,1,.975-.609,1.109,1.109,0,0,1,.975.487,5.4,5.4,0,0,0,3.777,2.193,2.279,2.279,0,0,0,1.706-.975c1.219-1.584-.609-7.8-2.193-11.576a1.219,1.219,0,0,1,2.072-1.219s3.29,3.29,10.845,3.168Z" transform="translate(39.993 33.96)"/>
    <path id="Path_720" data-name="Path 720" d="M354.206,295.342s-2.315-7.677-.366-11.942" transform="translate(41.752 39.029)" fill="#fff"/>
    <path id="Path_721" data-name="Path 721" d="M354.431,296.744a1.462,1.462,0,0,1-1.219-.853c-.122-.366-2.437-8.164-.244-12.795a1.219,1.219,0,0,1,2.193.975c-1.462,3.168-.244,9.139.366,11.089a1.084,1.084,0,0,1-.853,1.462C354.711,296.744,354.589,296.744,354.431,296.744Z" transform="translate(41.527 38.846)"/>
    <path id="Path_722" data-name="Path 722" d="M361.761,295.007s-2.681-8.164-1.584-12.307" transform="translate(43.25 38.877)" fill="#fff"/>
    <path id="Path_723" data-name="Path 723" d="M361.968,296.416a1.218,1.218,0,0,1-1.1-.853c-.122-.366-2.8-8.53-1.584-13.038a1.219,1.219,0,0,1,2.315.609c-.853,3.168.853,9.5,1.584,11.7a1.219,1.219,0,0,1-.731,1.584Z" transform="translate(43.044 38.687)"/>
    <path id="Path_724" data-name="Path 724" d="M369.773,295.291s-4.387-8.286-1.462-13.891" transform="translate(44.865 38.592)" fill="#fff"/>
    <path id="Path_725" data-name="Path 725" d="M369.994,296.735a1.28,1.28,0,0,1-1.1-.609c-.244-.366-4.63-8.9-1.462-15.11a1.255,1.255,0,1,1,2.193,1.219c-2.681,5,1.34,12.673,1.462,12.795a1.219,1.219,0,0,1-.487,1.706Z" transform="translate(44.644 38.367)"/>
    <path id="Path_726" data-name="Path 726" d="M508.1,314.3l-2.23,29.854a41.723,41.723,0,0,1-27.417,36.19l-76.646,27.9L407.9,534l-85.3-2.315L334.42,405.2a58.112,58.112,0,0,1,24.98-39.846l61.414-41.308C420.972,323.926,495.3,322.952,508.1,314.3Z" transform="translate(35.096 45.782)" fill="#88c0d0"/>
    <path id="Path_727" data-name="Path 727" d="M325.449,494.762h0a1.328,1.328,0,0,1-1.219-1.34l8.652-91.877a59.33,59.33,0,0,1,25.589-40.821l43.867-29.488a1.234,1.234,0,1,1,1.34,2.072L359.811,362.8a56.455,56.455,0,0,0-24.492,39.115l-8.652,91.755a1.219,1.219,0,0,1-1.219,1.1Z" transform="translate(35.452 49.44)"/>
    <path id="Path_728" data-name="Path 728" d="M377.941,398.483a1.259,1.259,0,0,1-.366-2.437l31.194-11.332a1.234,1.234,0,1,1,.853,2.315l-31.194,11.332a.927.927,0,0,1-.488.122Z" transform="translate(46.932 61.153)"/>
    <circle id="Ellipse_43" data-name="Ellipse 43" cx="7.92" cy="7.92" r="7.92" transform="translate(303.63 321.333)" fill="#88c0d0"/>
    <path id="Path_729" data-name="Path 729" d="M525.859,447.637H393.648a1.219,1.219,0,1,1,0-2.437H525.859a1.219,1.219,0,1,1,0,2.437Z" transform="translate(50.356 74.388)"/>
    <path id="Path_730" data-name="Path 730" d="M415.53,397.676s7.555-76.767,79.2-82.738c0,0,63.973-11.454,75.914,54.1,58-45.086,86.15,24.492,84.444,47.766,11.211-10.845,27.051-16.938,48.863-11.454,18.887,4.752,42.892,32.169,42.892,69.578H560.9" transform="translate(55.404 45.754)" fill="#fff"/>
    <path id="Path_731" data-name="Path 731" d="M747.112,476.513H561.164a1.219,1.219,0,1,1,0-2.437H745.893c-.487-37.043-24.614-62.754-42.039-67.141q-28.7-7.128-47.766,11.089a1.109,1.109,0,0,1-1.34.244,1.34,1.34,0,0,1-.731-1.219c.975-13.282-8.773-45.451-30.463-57.149-15.11-8.164-32.657-4.63-52.031,10.358a1.1,1.1,0,0,1-1.219.122,1.06,1.06,0,0,1-.731-.975c-4.874-26.686-18.887-43.745-41.552-50.691A78.815,78.815,0,0,0,495,316.277c-29.367,2.437-51.422,16.816-65.557,42.892a118.467,118.467,0,0,0-12.673,38.749,1.328,1.328,0,0,1-1.34,1.1,1.218,1.218,0,0,1-1.1-1.34,117.224,117.224,0,0,1,12.917-39.6c9.992-18.4,29.854-41.064,67.385-44.233a79.424,79.424,0,0,1,33.875,2.559c15.963,4.874,36.19,17.669,42.892,50.569,24.371-18.156,42.283-15.232,53.128-9.383,21.324,11.454,31.438,41.064,31.8,56.54,12.916-11.21,29-14.5,47.888-9.748,18.4,4.63,43.867,31.8,43.867,70.8a.975.975,0,0,1-.975,1.34Z" transform="translate(55.141 45.511)"/>
    <path id="Path_732" data-name="Path 732" d="M500.521,342.538h-.244a1.219,1.219,0,0,1-.975-1.34c.122-.975,15.11-92.852,46.913-148.661H436.548a1.219,1.219,0,0,1,0-2.437h111.7a1.279,1.279,0,0,1,1.1.609,1.109,1.109,0,0,1,0,1.219c-32.291,55.2-47.523,148.661-47.645,149.635A1.218,1.218,0,0,1,500.521,342.538Z" transform="translate(59.731 18.641)"/>
    <path id="Path_733" data-name="Path 733" d="M606.141,232.194a1.145,1.145,0,0,1-1.219-1.219,13.05,13.05,0,0,0-13.038-13.038,13.209,13.209,0,0,0-11.332,6.58,1.255,1.255,0,0,1-2.193-1.219,15.719,15.719,0,0,1,13.4-7.8A15.5,15.5,0,0,1,607.2,230.975a1.06,1.06,0,0,1-1.06,1.219Z" transform="translate(90.952 24.191)"/>
    <path id="Path_734" data-name="Path 734" d="M601.349,232.2a1.145,1.145,0,0,1-1.219-1.219A15.451,15.451,0,0,1,629.01,223.3a1.255,1.255,0,1,1-2.193,1.219,13.209,13.209,0,0,0-11.332-6.58,13.05,13.05,0,0,0-13.075,13.038,1.06,1.06,0,0,1-1.06,1.219Z" transform="translate(95.744 24.189)"/>
    <path id="Path_735" data-name="Path 735" d="M243.541,495.494a1.146,1.146,0,0,1-1.219-1.219,13.05,13.05,0,0,0-13.038-13.038,13.209,13.209,0,0,0-11.332,6.58,1.255,1.255,0,1,1-2.193-1.219,15.719,15.719,0,0,1,13.4-7.8,15.5,15.5,0,0,1,15.475,15.475,1.048,1.048,0,0,1-1.1,1.218Z" transform="translate(11.713 81.73)"/>
    <path id="Path_736" data-name="Path 736" d="M238.749,495.5a1.146,1.146,0,0,1-1.219-1.219A15.451,15.451,0,0,1,266.41,486.6a1.255,1.255,0,1,1-2.193,1.219,13.209,13.209,0,0,0-11.332-6.58,13.05,13.05,0,0,0-13.038,13.038,1.048,1.048,0,0,1-1.1,1.218Z" transform="translate(16.505 81.728)"/>
    <path id="Path_737" data-name="Path 737" d="M622.174,495.647c-32.9,0-53.493-14.5-71.65-27.3-15.11-10.723-29.367-20.715-48.376-20.715a1.219,1.219,0,0,1,0-2.437c19.74,0,34.363,10.236,49.838,21.2,17.912,12.551,38.14,26.93,70.187,26.93a1.145,1.145,0,0,1,1.219,1.219A1.078,1.078,0,0,1,622.174,495.647Z" transform="translate(74.066 74.388)"/>
    <path id="Path_1241" data-name="Path 1241" d="M43.745,0A43.745,43.745,0,1,1,0,43.745,43.745,43.745,0,0,1,43.745,0Z" transform="translate(590.228 104.8)" fill="#d08770"/>
    <path id="Path_738" data-name="Path 738" d="M221.954,274.286a17.791,17.791,0,0,1-12.795-5.118c-7.067-7.189-8.164-20.959-3.412-41.064a1.219,1.219,0,1,1,2.315.609c-4.509,19.009-3.534,32.413,2.8,38.871,5.605,5.727,13.891,4.143,13.891,4.143a1.243,1.243,0,1,1,.487,2.437C225.244,273.92,223.9,274.286,221.954,274.286Z" transform="translate(8.929 26.698)"/>
    <path id="Path_739" data-name="Path 739" d="M172.9,239.914l117.832,6.946L288.417,160.1,163.03,169.117l1.584,69.822" transform="translate(0.225 12.085)" fill="#fff"/>
    <path id="Path_740" data-name="Path 740" d="M290.957,248.275h0l-117.832-6.946a1.225,1.225,0,1,1,.244-2.437l116.491,6.946-2.193-84.2-123.23,8.773,1.584,68.725a1.145,1.145,0,0,1-1.219,1.219,1.219,1.219,0,0,1-1.219-1.219L162,169.314a1.219,1.219,0,0,1,1.1-1.219l125.387-8.9a1.219,1.219,0,0,1,1.219,1.219l2.315,86.759a.95.95,0,0,1-.366.853A1.036,1.036,0,0,1,290.957,248.275Z" transform="translate(0 11.888)"/>
    <path id="Path_741" data-name="Path 741" d="M199.287,208.2a1.73,1.73,0,0,1-.731-.244l-13.038-9.383a1.109,1.109,0,0,1-.487-.975,1.5,1.5,0,0,1,.487-.975l13.038-9.383a1.219,1.219,0,0,1,1.462,1.95l-11.576,8.286,11.576,8.286a1.219,1.219,0,0,1,.244,1.706C200.14,208.081,199.774,208.2,199.287,208.2Z" transform="translate(5.033 17.963)"/>
    <path id="Path_742" data-name="Path 742" d="M234.349,208.159a1.109,1.109,0,0,1-.975-.487,1.316,1.316,0,0,1,.244-1.706l11.576-8.286-11.576-8.286a1.219,1.219,0,0,1,1.462-1.95l13.038,9.383a1.109,1.109,0,0,1,.487.975,1.5,1.5,0,0,1-.487.975l-13.038,9.383C234.836,208.037,234.592,208.159,234.349,208.159Z" transform="translate(15.544 18.007)"/>
    <path id="Path_743" data-name="Path 743" d="M203.042,219.677a1.73,1.73,0,0,1-.731-.244,1.316,1.316,0,0,1-.244-1.706l30.707-38.14a1.219,1.219,0,0,1,1.95,1.462l-30.707,38.14a1.109,1.109,0,0,1-.975.487Z" transform="translate(8.71 16.237)"/>
    <path id="Path_744" data-name="Path 744" d="M727.793,447.637H698.549a1.219,1.219,0,0,1,0-2.437h29.245a1.145,1.145,0,0,1,1.219,1.218,1.219,1.219,0,0,1-1.219,1.219Z" transform="translate(116.986 74.387)"/>
  </g>
</svg>
