<svg xmlns="http://www.w3.org/2000/svg" width="363.787" height="122.234" viewBox="0 0 363.787 122.234">
  <g id="logo-w-brett-wilson" transform="translate(-633.104 -1782.589)">
    <g id="Group_19" data-name="Group 19" transform="translate(633.104 1782.589)">
      <path id="Path_1227" data-name="Path 1227" d="M711.358,1782.59l-14.779,52.782H679.887l-7.457-28.2-7.852,28.2H647.885L633.1,1782.59h16.041l8.05,30.01,8.512-30.01h14.317l8.05,30.387,8.512-30.387Z" transform="translate(-633.104 -1782.589)" fill="#2e3440"/>
      <path id="Path_1228" data-name="Path 1228" d="M793.227,1867.576a9.411,9.411,0,0,1-2.828-7.046,9.167,9.167,0,0,1,2.828-6.975,10.822,10.822,0,0,1,14.25,0,9.167,9.167,0,0,1,2.828,6.975,9.413,9.413,0,0,1-2.828,7.046A10.6,10.6,0,0,1,793.227,1867.576Z" transform="translate(-711.894 -1816.787)" fill="#2e3440"/>
      <path id="Path_1229" data-name="Path 1229" d="M903.292,1812.828a13.114,13.114,0,0,1,2.44,7.991,12.344,12.344,0,0,1-5.454,10.745q-5.455,3.809-15.789,3.809H856.214v-52.781h26.841q10.046,0,15.178,3.77a11.844,11.844,0,0,1,5.13,10.029,12.676,12.676,0,0,1-1.761,6.635,12.815,12.815,0,0,1-5.2,4.75,15.1,15.1,0,0,1,6.893,5.052Z" transform="translate(-744.858 -1782.588)" fill="#2e3440"/>
      <path id="Path_1230" data-name="Path 1230" d="M990.568,1822.106h-4.552v13.272h-16.8V1782.6H993.2a27.98,27.98,0,0,1,12.029,2.413,18.018,18.018,0,0,1,7.9,6.936,19.767,19.767,0,0,1,2.775,10.557,19.528,19.528,0,0,1-2.421,9.878,17.5,17.5,0,0,1-6.976,6.711l10.463,16.288H999.039Z" transform="translate(-801.458 -1782.589)" fill="#2e3440"/>
      <path id="Path_1231" data-name="Path 1231" d="M1121.872,1819.733v15.644h-43.884V1782.6h42.9v15.513h-25.41v3.229h22.312v14.716h-22.312v3.679Z" transform="translate(-855.939 -1782.584)" fill="#2e3440"/>
      <path id="Path_1232" data-name="Path 1232" d="M1183.332,1796.388H1167.87v-13.8h48.708v13.8h-15.462v38.981h-17.795Z" transform="translate(-900.966 -1782.589)" fill="#2e3440"/>
      <path id="Path_1233" data-name="Path 1233" d="M1279.862,1796.388H1264.4v-13.8h48.708v13.8h-15.462v38.981h-17.785Z" transform="translate(-949.322 -1782.589)" fill="#2e3440"/>
    </g>
    <g id="Group_20" data-name="Group 20" transform="translate(659.195 1849.591)">
      <path id="Path_1234" data-name="Path 1234" d="M763.633,1919.26l-14.781,52.781H732.16l-7.455-28.2-7.852,28.2H700.16l-14.781-52.781h16.033l8.05,30.01,8.512-30.01h14.319l8.05,30.387,8.512-30.387Z" transform="translate(-685.379 -1918.04)" fill="#2e3440"/>
      <path id="Path_1235" data-name="Path 1235" d="M857.9,1919.26h17.795v52.781H857.9Z" transform="translate(-771.791 -1918.04)" fill="#2e3440"/>
      <path id="Path_1236" data-name="Path 1236" d="M912.5,1919.26h17.446v38.981h23.361v13.8H912.5Z" transform="translate(-799.14 -1918.04)" fill="#2e3440"/>
      <path id="Path_1237" data-name="Path 1237" d="M1045.305,1945.2a17.72,17.72,0,0,0-7.2-4.785l7.987-18.965a33.457,33.457,0,0,0-9.236-3.431,48.867,48.867,0,0,0-10.669-1.175,34.625,34.625,0,0,0-13.459,2.337,18.427,18.427,0,0,0-8.332,6.409,15.658,15.658,0,0,0-2.791,9.048,13.085,13.085,0,0,0,3.016,9.085,17.675,17.675,0,0,0,4.642,3.719l-8.486,19.181a34.252,34.252,0,0,0,10.216,3.959,55.383,55.383,0,0,0,12.78,1.469,34.12,34.12,0,0,0,13.46-2.376,18.774,18.774,0,0,0,8.332-6.41,15.486,15.486,0,0,0,2.791-9,12.844,12.844,0,0,0-3.055-9.064Z" transform="translate(-843.37 -1916.836)" fill="#2e3440"/>
      <path id="Path_1238" data-name="Path 1238" d="M1116.3,1968.489a27.058,27.058,0,0,1,0-48.106,34.837,34.837,0,0,1,30.612,0,27.056,27.056,0,0,1,0,48.106A34.822,34.822,0,0,1,1116.3,1968.489Z" transform="translate(-894.012 -1916.831)" fill="#2e3440"/>
      <path id="Path_1239" data-name="Path 1239" d="M1284.335,1919.26v52.781h-14.628l-20.057-23.978v23.978h-17.343V1919.26h14.628l20.057,23.978V1919.26Z" transform="translate(-959.338 -1918.04)" fill="#2e3440"/>
    </g>
  </g>
</svg>
