<svg xmlns="http://www.w3.org/2000/svg" width="345.417" height="134.521" viewBox="0 0 345.417 134.521">
  <g id="Logo_white-bg" transform="translate(0 0)">
    <text id="THE_WILSON" data-name="THE WILSON" transform="translate(83.419 44.794)" fill="#2e2e33" font-size="28" font-family="Lora-Regular, Lora"><tspan x="0" y="0">THE WILSON</tspan></text>
    <g id="Group_15" data-name="Group 15">
      <path id="Path_1199" data-name="Path 1199" d="M26.8,75.618a8.667,8.667,0,0,1,1.912,5.559,8.955,8.955,0,0,1-3.086,7.242q-3.086,2.6-8.848,2.6H0V54.963H16.371q5.508,0,8.516,2.4a8.228,8.228,0,0,1,3.01,6.834,8.418,8.418,0,0,1-1.734,5.431,7.989,7.989,0,0,1-4.539,2.83A9.038,9.038,0,0,1,26.8,75.618ZM8.721,69.7h5.711q4.541,0,4.539-3.875T14.33,61.951H8.721ZM19.787,79.954a3.791,3.791,0,0,0-1.275-3.035,5.394,5.394,0,0,0-3.621-1.1H8.721V83.93h6.223Q19.786,83.93,19.787,79.954Z" fill="#2e2e33"/>
      <path id="Path_1200" data-name="Path 1200" d="M59.6,84.508,42.125,84.44l-2.244,6.58H30.7l13.209-35.8,7.641.135L65.383,91.02H63.051Zm-1.616-6.656L50.05,60.686,44.368,77.811Z" fill="#2e2e33"/>
      <path id="Path_1201" data-name="Path 1201" d="M96.439,54.963V61.9H86.648V91.02H77.877V61.9H68.186V54.962H96.439Z" fill="#2e2e33"/>
      <path id="Path_1202" data-name="Path 1202" d="M126.02,54.963V61.9h-9.791V91.02h-8.773V61.9H97.767V54.962H126.02Z" fill="#2e2e33"/>
      <path id="Path_1203" data-name="Path 1203" d="M138.412,84.338h11.627V91.02H129.691V54.963h8.721Z" fill="#2e2e33"/>
      <path id="Path_1204" data-name="Path 1204" d="M162.789,61.9v7.546h12.189v6.58H162.789v8.008H176.51v6.986H154.069V54.963H176.51V61.9H162.789Z" fill="#2e2e33"/>
      <path id="Path_1205" data-name="Path 1205" d="M204.967,54.963V61.9H190.176v7.9H201.6v6.631H190.176V91.02h-8.721V54.963Z" fill="#2e2e33"/>
      <path id="Path_1206" data-name="Path 1206" d="M235.846,56.773a17.3,17.3,0,0,1,6.555,6.579,20.031,20.031,0,0,1-.026,19.048,17.41,17.41,0,0,1-6.58,6.6,19.04,19.04,0,0,1-18.41,0,17.4,17.4,0,0,1-6.58-6.6,19.937,19.937,0,0,1,0-19.048,17.471,17.471,0,0,1,6.58-6.579,19.146,19.146,0,0,1,18.461,0ZM219.781,65.29a10.839,10.839,0,0,0-2.523,7.574,10.865,10.865,0,0,0,2.523,7.549,9.635,9.635,0,0,0,13.592,0,10.8,10.8,0,0,0,2.551-7.549,10.863,10.863,0,0,0-2.525-7.548,9.7,9.7,0,0,0-13.618-.026Z" fill="#2e2e33"/>
      <path id="Path_1207" data-name="Path 1207" d="M268.2,91.02,260.4,77.4h-1.988V91.02h-8.723V54.963h14.893a16.08,16.08,0,0,1,7.242,1.479,10.228,10.228,0,0,1,4.438,4.055,11.6,11.6,0,0,1,1.479,5.891,10.467,10.467,0,0,1-2.168,6.679,11.07,11.07,0,0,1-6.3,3.775l8.568,14.178H268.2Zm-9.791-19.584h5.406a5.446,5.446,0,0,0,3.824-1.148,4.425,4.425,0,0,0,1.225-3.39,4.5,4.5,0,0,0-1.25-3.366,5.237,5.237,0,0,0-3.8-1.224h-5.406Z" fill="#2e2e33"/>
      <path id="Path_1208" data-name="Path 1208" d="M312.293,82.325a15.906,15.906,0,0,1-6.527,6.4,20.834,20.834,0,0,1-10.021,2.295H282.128V54.963h13.617a21.178,21.178,0,0,1,10.047,2.244,15.655,15.655,0,0,1,6.5,6.324,18.969,18.969,0,0,1,2.27,9.383A19.126,19.126,0,0,1,312.293,82.325Zm-9.383-1.811q2.83-2.7,2.83-7.6t-2.83-7.6q-2.83-2.7-7.932-2.7h-4.131v20.6h4.131Q300.079,83.217,302.91,80.514Z" fill="#2e2e33"/>
      <path id="Path_1209" data-name="Path 1209" d="M343.965,86.124a10.249,10.249,0,0,1-4.285,3.826,15.108,15.108,0,0,1-6.859,1.428,16.15,16.15,0,0,1-10-2.959,10.711,10.711,0,0,1-4.283-8.262h9.281a4.908,4.908,0,0,0,1.453,3.213,4.471,4.471,0,0,0,3.188,1.174,3.7,3.7,0,0,0,2.652-.918,3.219,3.219,0,0,0,.969-2.449,3.159,3.159,0,0,0-.893-2.295,7.006,7.006,0,0,0-2.217-1.5q-1.328-.586-3.674-1.4a44.974,44.974,0,0,1-5.584-2.27,10.276,10.276,0,0,1-3.723-3.264,9.449,9.449,0,0,1-1.555-5.636,9.49,9.49,0,0,1,1.631-5.559,10.385,10.385,0,0,1,4.514-3.6,16.479,16.479,0,0,1,6.605-1.25q6.018,0,9.563,2.856a10.9,10.9,0,0,1,4,7.854H335.32a4.859,4.859,0,0,0-1.3-2.83,3.826,3.826,0,0,0-2.83-1.047,3.654,3.654,0,0,0-2.475.816,3,3,0,0,0-.943,2.4,3.04,3.04,0,0,0,.842,2.167,6.374,6.374,0,0,0,2.117,1.453q1.275.563,3.672,1.43a40.329,40.329,0,0,1,5.66,2.32,10.816,10.816,0,0,1,3.773,3.34,9.538,9.538,0,0,1,1.582,5.713A9.93,9.93,0,0,1,343.965,86.124Z" fill="#2e2e33"/>
    </g>
    <g id="Group_16" data-name="Group 16">
      <path id="Path_1210" data-name="Path 1210" d="M67.092,101.3,71.42,134.52l-2.186-.842-2.184-33Z"/>
      <path id="Path_1211" data-name="Path 1211" d="M104.73,134.52h-4.367L82.8,107.784V134.52H78.428V100.68H82.8l17.568,26.783V100.68h4.367Z" fill="#fcbd32"/>
      <path id="Path_1212" data-name="Path 1212" d="M116.107,100.68v33.84h-4.369V100.68h4.369Z" fill="#fcbd32"/>
      <path id="Path_1213" data-name="Path 1213" d="M143.852,100.68v3.551H134.3V134.52H129.93V104.231h-9.551V100.68Z" fill="#fcbd32"/>
      <path id="Path_1214" data-name="Path 1214" d="M152.537,100.68v33.84H148.17V100.68h4.367Z" fill="#fcbd32"/>
      <path id="Path_1215" data-name="Path 1215" d="M179.369,126.7H164.49l-2.832,7.824h-4.705L169.482,101.3h4.943L186.9,134.52H182.2Zm-1.248-3.408L171.93,106.2l-6.191,17.088h12.382Z" fill="#fcbd32"/>
      <path id="Path_1216" data-name="Path 1216" d="M212.057,100.68v3.551h-9.551V134.52h-4.369V104.231h-9.551V100.68Z" fill="#fcbd32"/>
      <path id="Path_1217" data-name="Path 1217" d="M220.744,100.68v33.84h-4.367V100.68h4.367Z" fill="#fcbd32"/>
      <path id="Path_1218" data-name="Path 1218" d="M229.961,100.68l10.32,28.99,10.463-28.99H255.5l-12.432,33.84h-5.52l-12.385-33.84h4.8Z" fill="#fcbd32"/>
      <path id="Path_1219" data-name="Path 1219" d="M264.281,104.231V115.8h12.863v3.359H264.281v11.809h14.3v3.553H259.912V100.68h18.672v3.551h-14.3Z" fill="#fcbd32"/>
    </g>
    <g id="Group_17" data-name="Group 17">
      <path id="Path_1220" data-name="Path 1220" d="M21.715,15.256c3.133,2.206,5.6,6.125,4.334,7.921s-5.785.793-8.918-1.415-9.42-8.818-8.154-10.613S18.584,13.05,21.715,15.256Z" fill="#febd34"/>
      <path id="Path_1221" data-name="Path 1221" d="M32.543,11.817c.721,3.763-.227,8.295-2.385,8.708s-4.711-3.45-5.432-7.212S24.076.426,26.234.014,31.824,8.055,32.543,11.817Z" fill="#febd34"/>
      <path id="Path_1222" data-name="Path 1222" d="M30.738,29.239c3.131,2.207,5.6,6.125,4.332,7.922s-5.785.791-8.918-1.414S16.734,26.929,18,25.132,27.6,27.032,30.738,29.239Z" fill="#febd34"/>
      <path id="Path_1223" data-name="Path 1223" d="M41.566,25.8c.719,3.764-.227,8.3-2.387,8.709S34.468,31.06,33.747,27.3,33.1,14.411,35.257,14,40.846,22.038,41.566,25.8Z" fill="#febd34"/>
      <path id="Path_1224" data-name="Path 1224" d="M39.707,43.145c3.133,2.208,5.6,6.124,4.336,7.921s-5.787.791-8.92-1.414-9.416-8.817-8.154-10.614S36.576,40.938,39.707,43.145Z" fill="#febd34"/>
      <path id="Path_1225" data-name="Path 1225" d="M50.537,39.706c.721,3.763-.227,8.295-2.385,8.708s-4.713-3.45-5.432-7.213-.65-12.886,1.509-13.3S49.816,35.942,50.537,39.706Z" fill="#febd34"/>
    </g>
    <path id="Path_1226" data-name="Path 1226" d="M52.723,55.218s16.512,21.468,18.7,79.3l-3.436-.135S63.472,70.633,43.91,55.218" fill="#febd34"/>
  </g>
</svg>
