<svg xmlns="http://www.w3.org/2000/svg" width="370.222" height="145" viewBox="0 0 370.222 145">
  <path id="Union_15" data-name="Union 15" d="M92.084,145a21.479,21.479,0,0,1,0-42.957h61.128a11.108,11.108,0,0,1-.276-9.194H21.479a21.479,21.479,0,0,1,0-42.958H194.99a11.627,11.627,0,0,1-2.335-6.934H141.718a21.479,21.479,0,1,1,0-42.957H280.855a21.479,21.479,0,0,1,0,42.957H233.237a11.627,11.627,0,0,1-2.335,6.934h1.676a21.479,21.479,0,0,1,0,42.958H191.791a11.107,11.107,0,0,1-.276,9.194H348.744a21.479,21.479,0,0,1,0,42.957Z" fill="#f8f9fb"/>
</svg>
