<svg xmlns="http://www.w3.org/2000/svg" width="268.115" height="166" viewBox="0 0 268.115 166">
  <path id="Union_14" data-name="Union 14" d="M69.385,166a23.967,23.967,0,1,1,0-47.934h1.4a9.423,9.423,0,0,1-.492-11.1H23.967a23.967,23.967,0,1,1,0-47.933h84.34a8.915,8.915,0,0,1,.009-11.112A23.967,23.967,0,0,1,109.061,0H244.149a23.967,23.967,0,0,1,0,47.933h-94.3a8.915,8.915,0,0,1,0,11.1h9.207a23.967,23.967,0,1,1,0,47.933H112.562a9.422,9.422,0,0,1-.492,11.1h92.4a23.967,23.967,0,0,1,0,47.934Z" transform="translate(268.115 166) rotate(180)" fill="#f8f9fb"/>
</svg>
