<svg xmlns="http://www.w3.org/2000/svg" width="684.851" height="254.215" viewBox="0 0 684.851 254.215">
  <path id="Union_21" data-name="Union 21" d="M335.092,254.215a31.913,31.913,0,0,1,0-63.825h46.243V154.907q0-.338.017-.671H181.2a26.93,26.93,0,1,1,0-53.86h82.839a12.98,12.98,0,0,1-.718-4.271V63.824H31.911A31.912,31.912,0,0,1,31.911,0H652.939a31.912,31.912,0,0,1,0,63.824H342.687V96.106a12.98,12.98,0,0,1-.718,4.271H605.215a26.93,26.93,0,1,1,0,53.86H460.687q.017.334.017.671V190.39h79.98a31.913,31.913,0,0,1,0,63.825Z" transform="translate(684.851 254.215) rotate(180)" fill="#eceff4" opacity="0.6"/>
</svg>
